<svg xmlns="http://www.w3.org/2000/svg" xmlns:xlink="http://www.w3.org/1999/xlink" version="1.1" width="7.500in" height="4.500in" viewBox="0 0 5400 3240">
	<desc>Stata Graph - Graph</desc>
	<rect x="0" y="0" width="5400" height="3240" style="fill:#FFFFFF;stroke:none"/>
	<rect x="0.00" y="0.00" width="5400.00" height="3240.00" style="fill:#FFFFFF"/>
	<rect x="3.24" y="3.24" width="5393.52" height="3233.52" style="fill:none;stroke:#FFFFFF;stroke-width:6.48"/>
	<rect x="493.26" y="113.40" width="4793.34" height="2653.26" style="fill:#FFFFFF"/>
	<rect x="496.50" y="116.64" width="4786.86" height="2646.78" style="fill:none;stroke:#FFFFFF;stroke-width:6.48"/>
	<line x1="493.26" y1="2766.66" x2="558.06" y2="2766.66" style="stroke:#F0F0F0;stroke-width:9.72"/>
	<line x1="590.46" y1="2766.66" x2="655.26" y2="2766.66" style="stroke:#F0F0F0;stroke-width:9.72"/>
	<line x1="687.66" y1="2766.66" x2="752.46" y2="2766.66" style="stroke:#F0F0F0;stroke-width:9.72"/>
	<line x1="784.86" y1="2766.66" x2="849.66" y2="2766.66" style="stroke:#F0F0F0;stroke-width:9.72"/>
	<line x1="882.06" y1="2766.66" x2="946.86" y2="2766.66" style="stroke:#F0F0F0;stroke-width:9.72"/>
	<line x1="979.26" y1="2766.66" x2="1044.06" y2="2766.66" style="stroke:#F0F0F0;stroke-width:9.72"/>
	<line x1="1076.46" y1="2766.66" x2="1141.26" y2="2766.66" style="stroke:#F0F0F0;stroke-width:9.72"/>
	<line x1="1173.66" y1="2766.66" x2="1238.46" y2="2766.66" style="stroke:#F0F0F0;stroke-width:9.72"/>
	<line x1="1270.86" y1="2766.66" x2="1335.66" y2="2766.66" style="stroke:#F0F0F0;stroke-width:9.72"/>
	<line x1="1368.06" y1="2766.66" x2="1432.86" y2="2766.66" style="stroke:#F0F0F0;stroke-width:9.72"/>
	<line x1="1465.26" y1="2766.66" x2="1530.06" y2="2766.66" style="stroke:#F0F0F0;stroke-width:9.72"/>
	<line x1="1562.46" y1="2766.66" x2="1627.26" y2="2766.66" style="stroke:#F0F0F0;stroke-width:9.72"/>
	<line x1="1659.66" y1="2766.66" x2="1724.46" y2="2766.66" style="stroke:#F0F0F0;stroke-width:9.72"/>
	<line x1="1756.86" y1="2766.66" x2="1821.66" y2="2766.66" style="stroke:#F0F0F0;stroke-width:9.72"/>
	<line x1="1854.06" y1="2766.66" x2="1918.86" y2="2766.66" style="stroke:#F0F0F0;stroke-width:9.72"/>
	<line x1="1951.26" y1="2766.66" x2="2016.06" y2="2766.66" style="stroke:#F0F0F0;stroke-width:9.72"/>
	<line x1="2048.46" y1="2766.66" x2="2113.26" y2="2766.66" style="stroke:#F0F0F0;stroke-width:9.72"/>
	<line x1="2145.66" y1="2766.66" x2="2210.46" y2="2766.66" style="stroke:#F0F0F0;stroke-width:9.72"/>
	<line x1="2242.86" y1="2766.66" x2="2307.66" y2="2766.66" style="stroke:#F0F0F0;stroke-width:9.72"/>
	<line x1="2340.06" y1="2766.66" x2="2404.86" y2="2766.66" style="stroke:#F0F0F0;stroke-width:9.72"/>
	<line x1="2437.26" y1="2766.66" x2="2502.06" y2="2766.66" style="stroke:#F0F0F0;stroke-width:9.72"/>
	<line x1="2534.46" y1="2766.66" x2="2599.26" y2="2766.66" style="stroke:#F0F0F0;stroke-width:9.72"/>
	<line x1="2631.66" y1="2766.66" x2="2696.46" y2="2766.66" style="stroke:#F0F0F0;stroke-width:9.72"/>
	<line x1="2728.86" y1="2766.66" x2="2793.66" y2="2766.66" style="stroke:#F0F0F0;stroke-width:9.72"/>
	<line x1="2826.06" y1="2766.66" x2="2890.86" y2="2766.66" style="stroke:#F0F0F0;stroke-width:9.72"/>
	<line x1="2923.26" y1="2766.66" x2="2988.06" y2="2766.66" style="stroke:#F0F0F0;stroke-width:9.72"/>
	<line x1="3020.46" y1="2766.66" x2="3085.26" y2="2766.66" style="stroke:#F0F0F0;stroke-width:9.72"/>
	<line x1="3117.66" y1="2766.66" x2="3182.46" y2="2766.66" style="stroke:#F0F0F0;stroke-width:9.72"/>
	<line x1="3214.86" y1="2766.66" x2="3279.66" y2="2766.66" style="stroke:#F0F0F0;stroke-width:9.72"/>
	<line x1="3312.06" y1="2766.66" x2="3376.86" y2="2766.66" style="stroke:#F0F0F0;stroke-width:9.72"/>
	<line x1="3409.26" y1="2766.66" x2="3474.06" y2="2766.66" style="stroke:#F0F0F0;stroke-width:9.72"/>
	<line x1="3506.46" y1="2766.66" x2="3571.26" y2="2766.66" style="stroke:#F0F0F0;stroke-width:9.72"/>
	<line x1="3603.66" y1="2766.66" x2="3668.46" y2="2766.66" style="stroke:#F0F0F0;stroke-width:9.72"/>
	<line x1="3700.86" y1="2766.66" x2="3765.66" y2="2766.66" style="stroke:#F0F0F0;stroke-width:9.72"/>
	<line x1="3798.06" y1="2766.66" x2="3862.86" y2="2766.66" style="stroke:#F0F0F0;stroke-width:9.72"/>
	<line x1="3895.26" y1="2766.66" x2="3960.06" y2="2766.66" style="stroke:#F0F0F0;stroke-width:9.72"/>
	<line x1="3992.46" y1="2766.66" x2="4057.26" y2="2766.66" style="stroke:#F0F0F0;stroke-width:9.72"/>
	<line x1="4089.66" y1="2766.66" x2="4154.46" y2="2766.66" style="stroke:#F0F0F0;stroke-width:9.72"/>
	<line x1="4186.86" y1="2766.66" x2="4251.66" y2="2766.66" style="stroke:#F0F0F0;stroke-width:9.72"/>
	<line x1="4284.06" y1="2766.66" x2="4348.86" y2="2766.66" style="stroke:#F0F0F0;stroke-width:9.72"/>
	<line x1="4381.26" y1="2766.66" x2="4446.06" y2="2766.66" style="stroke:#F0F0F0;stroke-width:9.72"/>
	<line x1="4478.46" y1="2766.66" x2="4543.26" y2="2766.66" style="stroke:#F0F0F0;stroke-width:9.72"/>
	<line x1="4575.66" y1="2766.66" x2="4640.46" y2="2766.66" style="stroke:#F0F0F0;stroke-width:9.72"/>
	<line x1="4672.86" y1="2766.66" x2="4737.66" y2="2766.66" style="stroke:#F0F0F0;stroke-width:9.72"/>
	<line x1="4770.06" y1="2766.66" x2="4834.86" y2="2766.66" style="stroke:#F0F0F0;stroke-width:9.72"/>
	<line x1="4867.26" y1="2766.66" x2="4932.06" y2="2766.66" style="stroke:#F0F0F0;stroke-width:9.72"/>
	<line x1="4964.46" y1="2766.66" x2="5029.26" y2="2766.66" style="stroke:#F0F0F0;stroke-width:9.72"/>
	<line x1="5061.66" y1="2766.66" x2="5126.46" y2="2766.66" style="stroke:#F0F0F0;stroke-width:9.72"/>
	<line x1="5158.86" y1="2766.66" x2="5223.66" y2="2766.66" style="stroke:#F0F0F0;stroke-width:9.72"/>
	<line x1="5256.06" y1="2766.66" x2="5286.60" y2="2766.66" style="stroke:#F0F0F0;stroke-width:9.72"/>
	<line x1="493.26" y1="2121.19" x2="558.06" y2="2121.19" style="stroke:#F0F0F0;stroke-width:9.72"/>
	<line x1="590.46" y1="2121.19" x2="655.26" y2="2121.19" style="stroke:#F0F0F0;stroke-width:9.72"/>
	<line x1="687.66" y1="2121.19" x2="752.46" y2="2121.19" style="stroke:#F0F0F0;stroke-width:9.72"/>
	<line x1="784.86" y1="2121.19" x2="849.66" y2="2121.19" style="stroke:#F0F0F0;stroke-width:9.72"/>
	<line x1="882.06" y1="2121.19" x2="946.86" y2="2121.19" style="stroke:#F0F0F0;stroke-width:9.72"/>
	<line x1="979.26" y1="2121.19" x2="1044.06" y2="2121.19" style="stroke:#F0F0F0;stroke-width:9.72"/>
	<line x1="1076.46" y1="2121.19" x2="1141.26" y2="2121.19" style="stroke:#F0F0F0;stroke-width:9.72"/>
	<line x1="1173.66" y1="2121.19" x2="1238.46" y2="2121.19" style="stroke:#F0F0F0;stroke-width:9.72"/>
	<line x1="1270.86" y1="2121.19" x2="1335.66" y2="2121.19" style="stroke:#F0F0F0;stroke-width:9.72"/>
	<line x1="1368.06" y1="2121.19" x2="1432.86" y2="2121.19" style="stroke:#F0F0F0;stroke-width:9.72"/>
	<line x1="1465.26" y1="2121.19" x2="1530.06" y2="2121.19" style="stroke:#F0F0F0;stroke-width:9.72"/>
	<line x1="1562.46" y1="2121.19" x2="1627.26" y2="2121.19" style="stroke:#F0F0F0;stroke-width:9.72"/>
	<line x1="1659.66" y1="2121.19" x2="1724.46" y2="2121.19" style="stroke:#F0F0F0;stroke-width:9.72"/>
	<line x1="1756.86" y1="2121.19" x2="1821.66" y2="2121.19" style="stroke:#F0F0F0;stroke-width:9.72"/>
	<line x1="1854.06" y1="2121.19" x2="1918.86" y2="2121.19" style="stroke:#F0F0F0;stroke-width:9.72"/>
	<line x1="1951.26" y1="2121.19" x2="2016.06" y2="2121.19" style="stroke:#F0F0F0;stroke-width:9.72"/>
	<line x1="2048.46" y1="2121.19" x2="2113.26" y2="2121.19" style="stroke:#F0F0F0;stroke-width:9.72"/>
	<line x1="2145.66" y1="2121.19" x2="2210.46" y2="2121.19" style="stroke:#F0F0F0;stroke-width:9.72"/>
	<line x1="2242.86" y1="2121.19" x2="2307.66" y2="2121.19" style="stroke:#F0F0F0;stroke-width:9.72"/>
	<line x1="2340.06" y1="2121.19" x2="2404.86" y2="2121.19" style="stroke:#F0F0F0;stroke-width:9.72"/>
	<line x1="2437.26" y1="2121.19" x2="2502.06" y2="2121.19" style="stroke:#F0F0F0;stroke-width:9.72"/>
	<line x1="2534.46" y1="2121.19" x2="2599.26" y2="2121.19" style="stroke:#F0F0F0;stroke-width:9.72"/>
	<line x1="2631.66" y1="2121.19" x2="2696.46" y2="2121.19" style="stroke:#F0F0F0;stroke-width:9.72"/>
	<line x1="2728.86" y1="2121.19" x2="2793.66" y2="2121.19" style="stroke:#F0F0F0;stroke-width:9.72"/>
	<line x1="2826.06" y1="2121.19" x2="2890.86" y2="2121.19" style="stroke:#F0F0F0;stroke-width:9.72"/>
	<line x1="2923.26" y1="2121.19" x2="2988.06" y2="2121.19" style="stroke:#F0F0F0;stroke-width:9.72"/>
	<line x1="3020.46" y1="2121.19" x2="3085.26" y2="2121.19" style="stroke:#F0F0F0;stroke-width:9.72"/>
	<line x1="3117.66" y1="2121.19" x2="3182.46" y2="2121.19" style="stroke:#F0F0F0;stroke-width:9.72"/>
	<line x1="3214.86" y1="2121.19" x2="3279.66" y2="2121.19" style="stroke:#F0F0F0;stroke-width:9.72"/>
	<line x1="3312.06" y1="2121.19" x2="3376.86" y2="2121.19" style="stroke:#F0F0F0;stroke-width:9.72"/>
	<line x1="3409.26" y1="2121.19" x2="3474.06" y2="2121.19" style="stroke:#F0F0F0;stroke-width:9.72"/>
	<line x1="3506.46" y1="2121.19" x2="3571.26" y2="2121.19" style="stroke:#F0F0F0;stroke-width:9.72"/>
	<line x1="3603.66" y1="2121.19" x2="3668.46" y2="2121.19" style="stroke:#F0F0F0;stroke-width:9.72"/>
	<line x1="3700.86" y1="2121.19" x2="3765.66" y2="2121.19" style="stroke:#F0F0F0;stroke-width:9.72"/>
	<line x1="3798.06" y1="2121.19" x2="3862.86" y2="2121.19" style="stroke:#F0F0F0;stroke-width:9.72"/>
	<line x1="3895.26" y1="2121.19" x2="3960.06" y2="2121.19" style="stroke:#F0F0F0;stroke-width:9.72"/>
	<line x1="3992.46" y1="2121.19" x2="4057.26" y2="2121.19" style="stroke:#F0F0F0;stroke-width:9.72"/>
	<line x1="4089.66" y1="2121.19" x2="4154.46" y2="2121.19" style="stroke:#F0F0F0;stroke-width:9.72"/>
	<line x1="4186.86" y1="2121.19" x2="4251.66" y2="2121.19" style="stroke:#F0F0F0;stroke-width:9.72"/>
	<line x1="4284.06" y1="2121.19" x2="4348.86" y2="2121.19" style="stroke:#F0F0F0;stroke-width:9.72"/>
	<line x1="4381.26" y1="2121.19" x2="4446.06" y2="2121.19" style="stroke:#F0F0F0;stroke-width:9.72"/>
	<line x1="4478.46" y1="2121.19" x2="4543.26" y2="2121.19" style="stroke:#F0F0F0;stroke-width:9.72"/>
	<line x1="4575.66" y1="2121.19" x2="4640.46" y2="2121.19" style="stroke:#F0F0F0;stroke-width:9.72"/>
	<line x1="4672.86" y1="2121.19" x2="4737.66" y2="2121.19" style="stroke:#F0F0F0;stroke-width:9.72"/>
	<line x1="4770.06" y1="2121.19" x2="4834.86" y2="2121.19" style="stroke:#F0F0F0;stroke-width:9.72"/>
	<line x1="4867.26" y1="2121.19" x2="4932.06" y2="2121.19" style="stroke:#F0F0F0;stroke-width:9.72"/>
	<line x1="4964.46" y1="2121.19" x2="5029.26" y2="2121.19" style="stroke:#F0F0F0;stroke-width:9.72"/>
	<line x1="5061.66" y1="2121.19" x2="5126.46" y2="2121.19" style="stroke:#F0F0F0;stroke-width:9.72"/>
	<line x1="5158.86" y1="2121.19" x2="5223.66" y2="2121.19" style="stroke:#F0F0F0;stroke-width:9.72"/>
	<line x1="5256.06" y1="2121.19" x2="5286.60" y2="2121.19" style="stroke:#F0F0F0;stroke-width:9.72"/>
	<line x1="493.26" y1="1475.72" x2="558.06" y2="1475.72" style="stroke:#F0F0F0;stroke-width:9.72"/>
	<line x1="590.46" y1="1475.72" x2="655.26" y2="1475.72" style="stroke:#F0F0F0;stroke-width:9.72"/>
	<line x1="687.66" y1="1475.72" x2="752.46" y2="1475.72" style="stroke:#F0F0F0;stroke-width:9.72"/>
	<line x1="784.86" y1="1475.72" x2="849.66" y2="1475.72" style="stroke:#F0F0F0;stroke-width:9.72"/>
	<line x1="882.06" y1="1475.72" x2="946.86" y2="1475.72" style="stroke:#F0F0F0;stroke-width:9.72"/>
	<line x1="979.26" y1="1475.72" x2="1044.06" y2="1475.72" style="stroke:#F0F0F0;stroke-width:9.72"/>
	<line x1="1076.46" y1="1475.72" x2="1141.26" y2="1475.72" style="stroke:#F0F0F0;stroke-width:9.72"/>
	<line x1="1173.66" y1="1475.72" x2="1238.46" y2="1475.72" style="stroke:#F0F0F0;stroke-width:9.72"/>
	<line x1="1270.86" y1="1475.72" x2="1335.66" y2="1475.72" style="stroke:#F0F0F0;stroke-width:9.72"/>
	<line x1="1368.06" y1="1475.72" x2="1432.86" y2="1475.72" style="stroke:#F0F0F0;stroke-width:9.72"/>
	<line x1="1465.26" y1="1475.72" x2="1530.06" y2="1475.72" style="stroke:#F0F0F0;stroke-width:9.72"/>
	<line x1="1562.46" y1="1475.72" x2="1627.26" y2="1475.72" style="stroke:#F0F0F0;stroke-width:9.72"/>
	<line x1="1659.66" y1="1475.72" x2="1724.46" y2="1475.72" style="stroke:#F0F0F0;stroke-width:9.72"/>
	<line x1="1756.86" y1="1475.72" x2="1821.66" y2="1475.72" style="stroke:#F0F0F0;stroke-width:9.72"/>
	<line x1="1854.06" y1="1475.72" x2="1918.86" y2="1475.72" style="stroke:#F0F0F0;stroke-width:9.72"/>
	<line x1="1951.26" y1="1475.72" x2="2016.06" y2="1475.72" style="stroke:#F0F0F0;stroke-width:9.72"/>
	<line x1="2048.46" y1="1475.72" x2="2113.26" y2="1475.72" style="stroke:#F0F0F0;stroke-width:9.72"/>
	<line x1="2145.66" y1="1475.72" x2="2210.46" y2="1475.72" style="stroke:#F0F0F0;stroke-width:9.72"/>
	<line x1="2242.86" y1="1475.72" x2="2307.66" y2="1475.72" style="stroke:#F0F0F0;stroke-width:9.72"/>
	<line x1="2340.06" y1="1475.72" x2="2404.86" y2="1475.72" style="stroke:#F0F0F0;stroke-width:9.72"/>
	<line x1="2437.26" y1="1475.72" x2="2502.06" y2="1475.72" style="stroke:#F0F0F0;stroke-width:9.72"/>
	<line x1="2534.46" y1="1475.72" x2="2599.26" y2="1475.72" style="stroke:#F0F0F0;stroke-width:9.72"/>
	<line x1="2631.66" y1="1475.72" x2="2696.46" y2="1475.72" style="stroke:#F0F0F0;stroke-width:9.72"/>
	<line x1="2728.86" y1="1475.72" x2="2793.66" y2="1475.72" style="stroke:#F0F0F0;stroke-width:9.72"/>
	<line x1="2826.06" y1="1475.72" x2="2890.86" y2="1475.72" style="stroke:#F0F0F0;stroke-width:9.72"/>
	<line x1="2923.26" y1="1475.72" x2="2988.06" y2="1475.72" style="stroke:#F0F0F0;stroke-width:9.72"/>
	<line x1="3020.46" y1="1475.72" x2="3085.26" y2="1475.72" style="stroke:#F0F0F0;stroke-width:9.72"/>
	<line x1="3117.66" y1="1475.72" x2="3182.46" y2="1475.72" style="stroke:#F0F0F0;stroke-width:9.72"/>
	<line x1="3214.86" y1="1475.72" x2="3279.66" y2="1475.72" style="stroke:#F0F0F0;stroke-width:9.72"/>
	<line x1="3312.06" y1="1475.72" x2="3376.86" y2="1475.72" style="stroke:#F0F0F0;stroke-width:9.72"/>
	<line x1="3409.26" y1="1475.72" x2="3474.06" y2="1475.72" style="stroke:#F0F0F0;stroke-width:9.72"/>
	<line x1="3506.46" y1="1475.72" x2="3571.26" y2="1475.72" style="stroke:#F0F0F0;stroke-width:9.72"/>
	<line x1="3603.66" y1="1475.72" x2="3668.46" y2="1475.72" style="stroke:#F0F0F0;stroke-width:9.72"/>
	<line x1="3700.86" y1="1475.72" x2="3765.66" y2="1475.72" style="stroke:#F0F0F0;stroke-width:9.72"/>
	<line x1="3798.06" y1="1475.72" x2="3862.86" y2="1475.72" style="stroke:#F0F0F0;stroke-width:9.72"/>
	<line x1="3895.26" y1="1475.72" x2="3960.06" y2="1475.72" style="stroke:#F0F0F0;stroke-width:9.72"/>
	<line x1="3992.46" y1="1475.72" x2="4057.26" y2="1475.72" style="stroke:#F0F0F0;stroke-width:9.72"/>
	<line x1="4089.66" y1="1475.72" x2="4154.46" y2="1475.72" style="stroke:#F0F0F0;stroke-width:9.72"/>
	<line x1="4186.86" y1="1475.72" x2="4251.66" y2="1475.72" style="stroke:#F0F0F0;stroke-width:9.72"/>
	<line x1="4284.06" y1="1475.72" x2="4348.86" y2="1475.72" style="stroke:#F0F0F0;stroke-width:9.72"/>
	<line x1="4381.26" y1="1475.72" x2="4446.06" y2="1475.72" style="stroke:#F0F0F0;stroke-width:9.72"/>
	<line x1="4478.46" y1="1475.72" x2="4543.26" y2="1475.72" style="stroke:#F0F0F0;stroke-width:9.72"/>
	<line x1="4575.66" y1="1475.72" x2="4640.46" y2="1475.72" style="stroke:#F0F0F0;stroke-width:9.72"/>
	<line x1="4672.86" y1="1475.72" x2="4737.66" y2="1475.72" style="stroke:#F0F0F0;stroke-width:9.72"/>
	<line x1="4770.06" y1="1475.72" x2="4834.86" y2="1475.72" style="stroke:#F0F0F0;stroke-width:9.72"/>
	<line x1="4867.26" y1="1475.72" x2="4932.06" y2="1475.72" style="stroke:#F0F0F0;stroke-width:9.72"/>
	<line x1="4964.46" y1="1475.72" x2="5029.26" y2="1475.72" style="stroke:#F0F0F0;stroke-width:9.72"/>
	<line x1="5061.66" y1="1475.72" x2="5126.46" y2="1475.72" style="stroke:#F0F0F0;stroke-width:9.72"/>
	<line x1="5158.86" y1="1475.72" x2="5223.66" y2="1475.72" style="stroke:#F0F0F0;stroke-width:9.72"/>
	<line x1="5256.06" y1="1475.72" x2="5286.60" y2="1475.72" style="stroke:#F0F0F0;stroke-width:9.72"/>
	<line x1="493.26" y1="830.08" x2="558.06" y2="830.08" style="stroke:#F0F0F0;stroke-width:9.72"/>
	<line x1="590.46" y1="830.08" x2="655.26" y2="830.08" style="stroke:#F0F0F0;stroke-width:9.72"/>
	<line x1="687.66" y1="830.08" x2="752.46" y2="830.08" style="stroke:#F0F0F0;stroke-width:9.72"/>
	<line x1="784.86" y1="830.08" x2="849.66" y2="830.08" style="stroke:#F0F0F0;stroke-width:9.72"/>
	<line x1="882.06" y1="830.08" x2="946.86" y2="830.08" style="stroke:#F0F0F0;stroke-width:9.72"/>
	<line x1="979.26" y1="830.08" x2="1044.06" y2="830.08" style="stroke:#F0F0F0;stroke-width:9.72"/>
	<line x1="1076.46" y1="830.08" x2="1141.26" y2="830.08" style="stroke:#F0F0F0;stroke-width:9.72"/>
	<line x1="1173.66" y1="830.08" x2="1238.46" y2="830.08" style="stroke:#F0F0F0;stroke-width:9.72"/>
	<line x1="1270.86" y1="830.08" x2="1335.66" y2="830.08" style="stroke:#F0F0F0;stroke-width:9.72"/>
	<line x1="1368.06" y1="830.08" x2="1432.86" y2="830.08" style="stroke:#F0F0F0;stroke-width:9.72"/>
	<line x1="1465.26" y1="830.08" x2="1530.06" y2="830.08" style="stroke:#F0F0F0;stroke-width:9.72"/>
	<line x1="1562.46" y1="830.08" x2="1627.26" y2="830.08" style="stroke:#F0F0F0;stroke-width:9.72"/>
	<line x1="1659.66" y1="830.08" x2="1724.46" y2="830.08" style="stroke:#F0F0F0;stroke-width:9.72"/>
	<line x1="1756.86" y1="830.08" x2="1821.66" y2="830.08" style="stroke:#F0F0F0;stroke-width:9.72"/>
	<line x1="1854.06" y1="830.08" x2="1918.86" y2="830.08" style="stroke:#F0F0F0;stroke-width:9.72"/>
	<line x1="1951.26" y1="830.08" x2="2016.06" y2="830.08" style="stroke:#F0F0F0;stroke-width:9.72"/>
	<line x1="2048.46" y1="830.08" x2="2113.26" y2="830.08" style="stroke:#F0F0F0;stroke-width:9.72"/>
	<line x1="2145.66" y1="830.08" x2="2210.46" y2="830.08" style="stroke:#F0F0F0;stroke-width:9.72"/>
	<line x1="2242.86" y1="830.08" x2="2307.66" y2="830.08" style="stroke:#F0F0F0;stroke-width:9.72"/>
	<line x1="2340.06" y1="830.08" x2="2404.86" y2="830.08" style="stroke:#F0F0F0;stroke-width:9.72"/>
	<line x1="2437.26" y1="830.08" x2="2502.06" y2="830.08" style="stroke:#F0F0F0;stroke-width:9.72"/>
	<line x1="2534.46" y1="830.08" x2="2599.26" y2="830.08" style="stroke:#F0F0F0;stroke-width:9.72"/>
	<line x1="2631.66" y1="830.08" x2="2696.46" y2="830.08" style="stroke:#F0F0F0;stroke-width:9.72"/>
	<line x1="2728.86" y1="830.08" x2="2793.66" y2="830.08" style="stroke:#F0F0F0;stroke-width:9.72"/>
	<line x1="2826.06" y1="830.08" x2="2890.86" y2="830.08" style="stroke:#F0F0F0;stroke-width:9.72"/>
	<line x1="2923.26" y1="830.08" x2="2988.06" y2="830.08" style="stroke:#F0F0F0;stroke-width:9.72"/>
	<line x1="3020.46" y1="830.08" x2="3085.26" y2="830.08" style="stroke:#F0F0F0;stroke-width:9.72"/>
	<line x1="3117.66" y1="830.08" x2="3182.46" y2="830.08" style="stroke:#F0F0F0;stroke-width:9.72"/>
	<line x1="3214.86" y1="830.08" x2="3279.66" y2="830.08" style="stroke:#F0F0F0;stroke-width:9.72"/>
	<line x1="3312.06" y1="830.08" x2="3376.86" y2="830.08" style="stroke:#F0F0F0;stroke-width:9.72"/>
	<line x1="3409.26" y1="830.08" x2="3474.06" y2="830.08" style="stroke:#F0F0F0;stroke-width:9.72"/>
	<line x1="3506.46" y1="830.08" x2="3571.26" y2="830.08" style="stroke:#F0F0F0;stroke-width:9.72"/>
	<line x1="3603.66" y1="830.08" x2="3668.46" y2="830.08" style="stroke:#F0F0F0;stroke-width:9.72"/>
	<line x1="3700.86" y1="830.08" x2="3765.66" y2="830.08" style="stroke:#F0F0F0;stroke-width:9.72"/>
	<line x1="3798.06" y1="830.08" x2="3862.86" y2="830.08" style="stroke:#F0F0F0;stroke-width:9.72"/>
	<line x1="3895.26" y1="830.08" x2="3960.06" y2="830.08" style="stroke:#F0F0F0;stroke-width:9.72"/>
	<line x1="3992.46" y1="830.08" x2="4057.26" y2="830.08" style="stroke:#F0F0F0;stroke-width:9.72"/>
	<line x1="4089.66" y1="830.08" x2="4154.46" y2="830.08" style="stroke:#F0F0F0;stroke-width:9.72"/>
	<line x1="4186.86" y1="830.08" x2="4251.66" y2="830.08" style="stroke:#F0F0F0;stroke-width:9.72"/>
	<line x1="4284.06" y1="830.08" x2="4348.86" y2="830.08" style="stroke:#F0F0F0;stroke-width:9.72"/>
	<line x1="4381.26" y1="830.08" x2="4446.06" y2="830.08" style="stroke:#F0F0F0;stroke-width:9.72"/>
	<line x1="4478.46" y1="830.08" x2="4543.26" y2="830.08" style="stroke:#F0F0F0;stroke-width:9.72"/>
	<line x1="4575.66" y1="830.08" x2="4640.46" y2="830.08" style="stroke:#F0F0F0;stroke-width:9.72"/>
	<line x1="4672.86" y1="830.08" x2="4737.66" y2="830.08" style="stroke:#F0F0F0;stroke-width:9.72"/>
	<line x1="4770.06" y1="830.08" x2="4834.86" y2="830.08" style="stroke:#F0F0F0;stroke-width:9.72"/>
	<line x1="4867.26" y1="830.08" x2="4932.06" y2="830.08" style="stroke:#F0F0F0;stroke-width:9.72"/>
	<line x1="4964.46" y1="830.08" x2="5029.26" y2="830.08" style="stroke:#F0F0F0;stroke-width:9.72"/>
	<line x1="5061.66" y1="830.08" x2="5126.46" y2="830.08" style="stroke:#F0F0F0;stroke-width:9.72"/>
	<line x1="5158.86" y1="830.08" x2="5223.66" y2="830.08" style="stroke:#F0F0F0;stroke-width:9.72"/>
	<line x1="5256.06" y1="830.08" x2="5286.60" y2="830.08" style="stroke:#F0F0F0;stroke-width:9.72"/>
	<line x1="493.26" y1="184.61" x2="558.06" y2="184.61" style="stroke:#F0F0F0;stroke-width:9.72"/>
	<line x1="590.46" y1="184.61" x2="655.26" y2="184.61" style="stroke:#F0F0F0;stroke-width:9.72"/>
	<line x1="687.66" y1="184.61" x2="752.46" y2="184.61" style="stroke:#F0F0F0;stroke-width:9.72"/>
	<line x1="784.86" y1="184.61" x2="849.66" y2="184.61" style="stroke:#F0F0F0;stroke-width:9.72"/>
	<line x1="882.06" y1="184.61" x2="946.86" y2="184.61" style="stroke:#F0F0F0;stroke-width:9.72"/>
	<line x1="979.26" y1="184.61" x2="1044.06" y2="184.61" style="stroke:#F0F0F0;stroke-width:9.72"/>
	<line x1="1076.46" y1="184.61" x2="1141.26" y2="184.61" style="stroke:#F0F0F0;stroke-width:9.72"/>
	<line x1="1173.66" y1="184.61" x2="1238.46" y2="184.61" style="stroke:#F0F0F0;stroke-width:9.72"/>
	<line x1="1270.86" y1="184.61" x2="1335.66" y2="184.61" style="stroke:#F0F0F0;stroke-width:9.72"/>
	<line x1="1368.06" y1="184.61" x2="1432.86" y2="184.61" style="stroke:#F0F0F0;stroke-width:9.72"/>
	<line x1="1465.26" y1="184.61" x2="1530.06" y2="184.61" style="stroke:#F0F0F0;stroke-width:9.72"/>
	<line x1="1562.46" y1="184.61" x2="1627.26" y2="184.61" style="stroke:#F0F0F0;stroke-width:9.72"/>
	<line x1="1659.66" y1="184.61" x2="1724.46" y2="184.61" style="stroke:#F0F0F0;stroke-width:9.72"/>
	<line x1="1756.86" y1="184.61" x2="1821.66" y2="184.61" style="stroke:#F0F0F0;stroke-width:9.72"/>
	<line x1="1854.06" y1="184.61" x2="1918.86" y2="184.61" style="stroke:#F0F0F0;stroke-width:9.72"/>
	<line x1="1951.26" y1="184.61" x2="2016.06" y2="184.61" style="stroke:#F0F0F0;stroke-width:9.72"/>
	<line x1="2048.46" y1="184.61" x2="2113.26" y2="184.61" style="stroke:#F0F0F0;stroke-width:9.72"/>
	<line x1="2145.66" y1="184.61" x2="2210.46" y2="184.61" style="stroke:#F0F0F0;stroke-width:9.72"/>
	<line x1="2242.86" y1="184.61" x2="2307.66" y2="184.61" style="stroke:#F0F0F0;stroke-width:9.72"/>
	<line x1="2340.06" y1="184.61" x2="2404.86" y2="184.61" style="stroke:#F0F0F0;stroke-width:9.72"/>
	<line x1="2437.26" y1="184.61" x2="2502.06" y2="184.61" style="stroke:#F0F0F0;stroke-width:9.72"/>
	<line x1="2534.46" y1="184.61" x2="2599.26" y2="184.61" style="stroke:#F0F0F0;stroke-width:9.72"/>
	<line x1="2631.66" y1="184.61" x2="2696.46" y2="184.61" style="stroke:#F0F0F0;stroke-width:9.72"/>
	<line x1="2728.86" y1="184.61" x2="2793.66" y2="184.61" style="stroke:#F0F0F0;stroke-width:9.72"/>
	<line x1="2826.06" y1="184.61" x2="2890.86" y2="184.61" style="stroke:#F0F0F0;stroke-width:9.72"/>
	<line x1="2923.26" y1="184.61" x2="2988.06" y2="184.61" style="stroke:#F0F0F0;stroke-width:9.72"/>
	<line x1="3020.46" y1="184.61" x2="3085.26" y2="184.61" style="stroke:#F0F0F0;stroke-width:9.72"/>
	<line x1="3117.66" y1="184.61" x2="3182.46" y2="184.61" style="stroke:#F0F0F0;stroke-width:9.72"/>
	<line x1="3214.86" y1="184.61" x2="3279.66" y2="184.61" style="stroke:#F0F0F0;stroke-width:9.72"/>
	<line x1="3312.06" y1="184.61" x2="3376.86" y2="184.61" style="stroke:#F0F0F0;stroke-width:9.72"/>
	<line x1="3409.26" y1="184.61" x2="3474.06" y2="184.61" style="stroke:#F0F0F0;stroke-width:9.72"/>
	<line x1="3506.46" y1="184.61" x2="3571.26" y2="184.61" style="stroke:#F0F0F0;stroke-width:9.72"/>
	<line x1="3603.66" y1="184.61" x2="3668.46" y2="184.61" style="stroke:#F0F0F0;stroke-width:9.72"/>
	<line x1="3700.86" y1="184.61" x2="3765.66" y2="184.61" style="stroke:#F0F0F0;stroke-width:9.72"/>
	<line x1="3798.06" y1="184.61" x2="3862.86" y2="184.61" style="stroke:#F0F0F0;stroke-width:9.72"/>
	<line x1="3895.26" y1="184.61" x2="3960.06" y2="184.61" style="stroke:#F0F0F0;stroke-width:9.72"/>
	<line x1="3992.46" y1="184.61" x2="4057.26" y2="184.61" style="stroke:#F0F0F0;stroke-width:9.72"/>
	<line x1="4089.66" y1="184.61" x2="4154.46" y2="184.61" style="stroke:#F0F0F0;stroke-width:9.72"/>
	<line x1="4186.86" y1="184.61" x2="4251.66" y2="184.61" style="stroke:#F0F0F0;stroke-width:9.72"/>
	<line x1="4284.06" y1="184.61" x2="4348.86" y2="184.61" style="stroke:#F0F0F0;stroke-width:9.72"/>
	<line x1="4381.26" y1="184.61" x2="4446.06" y2="184.61" style="stroke:#F0F0F0;stroke-width:9.72"/>
	<line x1="4478.46" y1="184.61" x2="4543.26" y2="184.61" style="stroke:#F0F0F0;stroke-width:9.72"/>
	<line x1="4575.66" y1="184.61" x2="4640.46" y2="184.61" style="stroke:#F0F0F0;stroke-width:9.72"/>
	<line x1="4672.86" y1="184.61" x2="4737.66" y2="184.61" style="stroke:#F0F0F0;stroke-width:9.72"/>
	<line x1="4770.06" y1="184.61" x2="4834.86" y2="184.61" style="stroke:#F0F0F0;stroke-width:9.72"/>
	<line x1="4867.26" y1="184.61" x2="4932.06" y2="184.61" style="stroke:#F0F0F0;stroke-width:9.72"/>
	<line x1="4964.46" y1="184.61" x2="5029.26" y2="184.61" style="stroke:#F0F0F0;stroke-width:9.72"/>
	<line x1="5061.66" y1="184.61" x2="5126.46" y2="184.61" style="stroke:#F0F0F0;stroke-width:9.72"/>
	<line x1="5158.86" y1="184.61" x2="5223.66" y2="184.61" style="stroke:#F0F0F0;stroke-width:9.72"/>
	<line x1="5256.06" y1="184.61" x2="5286.60" y2="184.61" style="stroke:#F0F0F0;stroke-width:9.72"/>
	<line x1="564.47" y1="2766.66" x2="564.47" y2="2701.86" style="stroke:#F0F0F0;stroke-width:9.72"/>
	<line x1="564.47" y1="2669.46" x2="564.47" y2="2604.66" style="stroke:#F0F0F0;stroke-width:9.72"/>
	<line x1="564.47" y1="2572.26" x2="564.47" y2="2507.46" style="stroke:#F0F0F0;stroke-width:9.72"/>
	<line x1="564.47" y1="2475.06" x2="564.47" y2="2410.26" style="stroke:#F0F0F0;stroke-width:9.72"/>
	<line x1="564.47" y1="2377.86" x2="564.47" y2="2313.06" style="stroke:#F0F0F0;stroke-width:9.72"/>
	<line x1="564.47" y1="2280.66" x2="564.47" y2="2215.86" style="stroke:#F0F0F0;stroke-width:9.72"/>
	<line x1="564.47" y1="2183.46" x2="564.47" y2="2118.66" style="stroke:#F0F0F0;stroke-width:9.72"/>
	<line x1="564.47" y1="2086.26" x2="564.47" y2="2021.46" style="stroke:#F0F0F0;stroke-width:9.72"/>
	<line x1="564.47" y1="1989.06" x2="564.47" y2="1924.26" style="stroke:#F0F0F0;stroke-width:9.72"/>
	<line x1="564.47" y1="1891.86" x2="564.47" y2="1827.06" style="stroke:#F0F0F0;stroke-width:9.72"/>
	<line x1="564.47" y1="1794.66" x2="564.47" y2="1729.86" style="stroke:#F0F0F0;stroke-width:9.72"/>
	<line x1="564.47" y1="1697.46" x2="564.47" y2="1632.66" style="stroke:#F0F0F0;stroke-width:9.72"/>
	<line x1="564.47" y1="1600.26" x2="564.47" y2="1535.46" style="stroke:#F0F0F0;stroke-width:9.72"/>
	<line x1="564.47" y1="1503.06" x2="564.47" y2="1438.26" style="stroke:#F0F0F0;stroke-width:9.72"/>
	<line x1="564.47" y1="1405.86" x2="564.47" y2="1341.06" style="stroke:#F0F0F0;stroke-width:9.72"/>
	<line x1="564.47" y1="1308.66" x2="564.47" y2="1243.86" style="stroke:#F0F0F0;stroke-width:9.72"/>
	<line x1="564.47" y1="1211.46" x2="564.47" y2="1146.66" style="stroke:#F0F0F0;stroke-width:9.72"/>
	<line x1="564.47" y1="1114.26" x2="564.47" y2="1049.46" style="stroke:#F0F0F0;stroke-width:9.72"/>
	<line x1="564.47" y1="1017.06" x2="564.47" y2="952.26" style="stroke:#F0F0F0;stroke-width:9.72"/>
	<line x1="564.47" y1="919.86" x2="564.47" y2="855.06" style="stroke:#F0F0F0;stroke-width:9.72"/>
	<line x1="564.47" y1="822.66" x2="564.47" y2="757.86" style="stroke:#F0F0F0;stroke-width:9.72"/>
	<line x1="564.47" y1="725.46" x2="564.47" y2="660.66" style="stroke:#F0F0F0;stroke-width:9.72"/>
	<line x1="564.47" y1="628.26" x2="564.47" y2="563.46" style="stroke:#F0F0F0;stroke-width:9.72"/>
	<line x1="564.47" y1="531.06" x2="564.47" y2="466.26" style="stroke:#F0F0F0;stroke-width:9.72"/>
	<line x1="564.47" y1="433.86" x2="564.47" y2="369.06" style="stroke:#F0F0F0;stroke-width:9.72"/>
	<line x1="564.47" y1="336.66" x2="564.47" y2="271.86" style="stroke:#F0F0F0;stroke-width:9.72"/>
	<line x1="564.47" y1="239.46" x2="564.47" y2="174.66" style="stroke:#F0F0F0;stroke-width:9.72"/>
	<line x1="564.47" y1="142.26" x2="564.47" y2="113.40" style="stroke:#F0F0F0;stroke-width:9.72"/>
	<line x1="1727.16" y1="2766.66" x2="1727.16" y2="2701.86" style="stroke:#F0F0F0;stroke-width:9.72"/>
	<line x1="1727.16" y1="2669.46" x2="1727.16" y2="2604.66" style="stroke:#F0F0F0;stroke-width:9.72"/>
	<line x1="1727.16" y1="2572.26" x2="1727.16" y2="2507.46" style="stroke:#F0F0F0;stroke-width:9.72"/>
	<line x1="1727.16" y1="2475.06" x2="1727.16" y2="2410.26" style="stroke:#F0F0F0;stroke-width:9.72"/>
	<line x1="1727.16" y1="2377.86" x2="1727.16" y2="2313.06" style="stroke:#F0F0F0;stroke-width:9.72"/>
	<line x1="1727.16" y1="2280.66" x2="1727.16" y2="2215.86" style="stroke:#F0F0F0;stroke-width:9.72"/>
	<line x1="1727.16" y1="2183.46" x2="1727.16" y2="2118.66" style="stroke:#F0F0F0;stroke-width:9.72"/>
	<line x1="1727.16" y1="2086.26" x2="1727.16" y2="2021.46" style="stroke:#F0F0F0;stroke-width:9.72"/>
	<line x1="1727.16" y1="1989.06" x2="1727.16" y2="1924.26" style="stroke:#F0F0F0;stroke-width:9.72"/>
	<line x1="1727.16" y1="1891.86" x2="1727.16" y2="1827.06" style="stroke:#F0F0F0;stroke-width:9.72"/>
	<line x1="1727.16" y1="1794.66" x2="1727.16" y2="1729.86" style="stroke:#F0F0F0;stroke-width:9.72"/>
	<line x1="1727.16" y1="1697.46" x2="1727.16" y2="1632.66" style="stroke:#F0F0F0;stroke-width:9.72"/>
	<line x1="1727.16" y1="1600.26" x2="1727.16" y2="1535.46" style="stroke:#F0F0F0;stroke-width:9.72"/>
	<line x1="1727.16" y1="1503.06" x2="1727.16" y2="1438.26" style="stroke:#F0F0F0;stroke-width:9.72"/>
	<line x1="1727.16" y1="1405.86" x2="1727.16" y2="1341.06" style="stroke:#F0F0F0;stroke-width:9.72"/>
	<line x1="1727.16" y1="1308.66" x2="1727.16" y2="1243.86" style="stroke:#F0F0F0;stroke-width:9.72"/>
	<line x1="1727.16" y1="1211.46" x2="1727.16" y2="1146.66" style="stroke:#F0F0F0;stroke-width:9.72"/>
	<line x1="1727.16" y1="1114.26" x2="1727.16" y2="1049.46" style="stroke:#F0F0F0;stroke-width:9.72"/>
	<line x1="1727.16" y1="1017.06" x2="1727.16" y2="952.26" style="stroke:#F0F0F0;stroke-width:9.72"/>
	<line x1="1727.16" y1="919.86" x2="1727.16" y2="855.06" style="stroke:#F0F0F0;stroke-width:9.72"/>
	<line x1="1727.16" y1="822.66" x2="1727.16" y2="757.86" style="stroke:#F0F0F0;stroke-width:9.72"/>
	<line x1="1727.16" y1="725.46" x2="1727.16" y2="660.66" style="stroke:#F0F0F0;stroke-width:9.72"/>
	<line x1="1727.16" y1="628.26" x2="1727.16" y2="563.46" style="stroke:#F0F0F0;stroke-width:9.72"/>
	<line x1="1727.16" y1="531.06" x2="1727.16" y2="466.26" style="stroke:#F0F0F0;stroke-width:9.72"/>
	<line x1="1727.16" y1="433.86" x2="1727.16" y2="369.06" style="stroke:#F0F0F0;stroke-width:9.72"/>
	<line x1="1727.16" y1="336.66" x2="1727.16" y2="271.86" style="stroke:#F0F0F0;stroke-width:9.72"/>
	<line x1="1727.16" y1="239.46" x2="1727.16" y2="174.66" style="stroke:#F0F0F0;stroke-width:9.72"/>
	<line x1="1727.16" y1="142.26" x2="1727.16" y2="113.40" style="stroke:#F0F0F0;stroke-width:9.72"/>
	<line x1="2889.84" y1="2766.66" x2="2889.84" y2="2701.86" style="stroke:#F0F0F0;stroke-width:9.72"/>
	<line x1="2889.84" y1="2669.46" x2="2889.84" y2="2604.66" style="stroke:#F0F0F0;stroke-width:9.72"/>
	<line x1="2889.84" y1="2572.26" x2="2889.84" y2="2507.46" style="stroke:#F0F0F0;stroke-width:9.72"/>
	<line x1="2889.84" y1="2475.06" x2="2889.84" y2="2410.26" style="stroke:#F0F0F0;stroke-width:9.72"/>
	<line x1="2889.84" y1="2377.86" x2="2889.84" y2="2313.06" style="stroke:#F0F0F0;stroke-width:9.72"/>
	<line x1="2889.84" y1="2280.66" x2="2889.84" y2="2215.86" style="stroke:#F0F0F0;stroke-width:9.72"/>
	<line x1="2889.84" y1="2183.46" x2="2889.84" y2="2118.66" style="stroke:#F0F0F0;stroke-width:9.72"/>
	<line x1="2889.84" y1="2086.26" x2="2889.84" y2="2021.46" style="stroke:#F0F0F0;stroke-width:9.72"/>
	<line x1="2889.84" y1="1989.06" x2="2889.84" y2="1924.26" style="stroke:#F0F0F0;stroke-width:9.72"/>
	<line x1="2889.84" y1="1891.86" x2="2889.84" y2="1827.06" style="stroke:#F0F0F0;stroke-width:9.72"/>
	<line x1="2889.84" y1="1794.66" x2="2889.84" y2="1729.86" style="stroke:#F0F0F0;stroke-width:9.72"/>
	<line x1="2889.84" y1="1697.46" x2="2889.84" y2="1632.66" style="stroke:#F0F0F0;stroke-width:9.72"/>
	<line x1="2889.84" y1="1600.26" x2="2889.84" y2="1535.46" style="stroke:#F0F0F0;stroke-width:9.72"/>
	<line x1="2889.84" y1="1503.06" x2="2889.84" y2="1438.26" style="stroke:#F0F0F0;stroke-width:9.72"/>
	<line x1="2889.84" y1="1405.86" x2="2889.84" y2="1341.06" style="stroke:#F0F0F0;stroke-width:9.72"/>
	<line x1="2889.84" y1="1308.66" x2="2889.84" y2="1243.86" style="stroke:#F0F0F0;stroke-width:9.72"/>
	<line x1="2889.84" y1="1211.46" x2="2889.84" y2="1146.66" style="stroke:#F0F0F0;stroke-width:9.72"/>
	<line x1="2889.84" y1="1114.26" x2="2889.84" y2="1049.46" style="stroke:#F0F0F0;stroke-width:9.72"/>
	<line x1="2889.84" y1="1017.06" x2="2889.84" y2="952.26" style="stroke:#F0F0F0;stroke-width:9.72"/>
	<line x1="2889.84" y1="919.86" x2="2889.84" y2="855.06" style="stroke:#F0F0F0;stroke-width:9.72"/>
	<line x1="2889.84" y1="822.66" x2="2889.84" y2="757.86" style="stroke:#F0F0F0;stroke-width:9.72"/>
	<line x1="2889.84" y1="725.46" x2="2889.84" y2="660.66" style="stroke:#F0F0F0;stroke-width:9.72"/>
	<line x1="2889.84" y1="628.26" x2="2889.84" y2="563.46" style="stroke:#F0F0F0;stroke-width:9.72"/>
	<line x1="2889.84" y1="531.06" x2="2889.84" y2="466.26" style="stroke:#F0F0F0;stroke-width:9.72"/>
	<line x1="2889.84" y1="433.86" x2="2889.84" y2="369.06" style="stroke:#F0F0F0;stroke-width:9.72"/>
	<line x1="2889.84" y1="336.66" x2="2889.84" y2="271.86" style="stroke:#F0F0F0;stroke-width:9.72"/>
	<line x1="2889.84" y1="239.46" x2="2889.84" y2="174.66" style="stroke:#F0F0F0;stroke-width:9.72"/>
	<line x1="2889.84" y1="142.26" x2="2889.84" y2="113.40" style="stroke:#F0F0F0;stroke-width:9.72"/>
	<line x1="4052.53" y1="2766.66" x2="4052.53" y2="2701.86" style="stroke:#F0F0F0;stroke-width:9.72"/>
	<line x1="4052.53" y1="2669.46" x2="4052.53" y2="2604.66" style="stroke:#F0F0F0;stroke-width:9.72"/>
	<line x1="4052.53" y1="2572.26" x2="4052.53" y2="2507.46" style="stroke:#F0F0F0;stroke-width:9.72"/>
	<line x1="4052.53" y1="2475.06" x2="4052.53" y2="2410.26" style="stroke:#F0F0F0;stroke-width:9.72"/>
	<line x1="4052.53" y1="2377.86" x2="4052.53" y2="2313.06" style="stroke:#F0F0F0;stroke-width:9.72"/>
	<line x1="4052.53" y1="2280.66" x2="4052.53" y2="2215.86" style="stroke:#F0F0F0;stroke-width:9.72"/>
	<line x1="4052.53" y1="2183.46" x2="4052.53" y2="2118.66" style="stroke:#F0F0F0;stroke-width:9.72"/>
	<line x1="4052.53" y1="2086.26" x2="4052.53" y2="2021.46" style="stroke:#F0F0F0;stroke-width:9.72"/>
	<line x1="4052.53" y1="1989.06" x2="4052.53" y2="1924.26" style="stroke:#F0F0F0;stroke-width:9.72"/>
	<line x1="4052.53" y1="1891.86" x2="4052.53" y2="1827.06" style="stroke:#F0F0F0;stroke-width:9.72"/>
	<line x1="4052.53" y1="1794.66" x2="4052.53" y2="1729.86" style="stroke:#F0F0F0;stroke-width:9.72"/>
	<line x1="4052.53" y1="1697.46" x2="4052.53" y2="1632.66" style="stroke:#F0F0F0;stroke-width:9.72"/>
	<line x1="4052.53" y1="1600.26" x2="4052.53" y2="1535.46" style="stroke:#F0F0F0;stroke-width:9.72"/>
	<line x1="4052.53" y1="1503.06" x2="4052.53" y2="1438.26" style="stroke:#F0F0F0;stroke-width:9.72"/>
	<line x1="4052.53" y1="1405.86" x2="4052.53" y2="1341.06" style="stroke:#F0F0F0;stroke-width:9.72"/>
	<line x1="4052.53" y1="1308.66" x2="4052.53" y2="1243.86" style="stroke:#F0F0F0;stroke-width:9.72"/>
	<line x1="4052.53" y1="1211.46" x2="4052.53" y2="1146.66" style="stroke:#F0F0F0;stroke-width:9.72"/>
	<line x1="4052.53" y1="1114.26" x2="4052.53" y2="1049.46" style="stroke:#F0F0F0;stroke-width:9.72"/>
	<line x1="4052.53" y1="1017.06" x2="4052.53" y2="952.26" style="stroke:#F0F0F0;stroke-width:9.72"/>
	<line x1="4052.53" y1="919.86" x2="4052.53" y2="855.06" style="stroke:#F0F0F0;stroke-width:9.72"/>
	<line x1="4052.53" y1="822.66" x2="4052.53" y2="757.86" style="stroke:#F0F0F0;stroke-width:9.72"/>
	<line x1="4052.53" y1="725.46" x2="4052.53" y2="660.66" style="stroke:#F0F0F0;stroke-width:9.72"/>
	<line x1="4052.53" y1="628.26" x2="4052.53" y2="563.46" style="stroke:#F0F0F0;stroke-width:9.72"/>
	<line x1="4052.53" y1="531.06" x2="4052.53" y2="466.26" style="stroke:#F0F0F0;stroke-width:9.72"/>
	<line x1="4052.53" y1="433.86" x2="4052.53" y2="369.06" style="stroke:#F0F0F0;stroke-width:9.72"/>
	<line x1="4052.53" y1="336.66" x2="4052.53" y2="271.86" style="stroke:#F0F0F0;stroke-width:9.72"/>
	<line x1="4052.53" y1="239.46" x2="4052.53" y2="174.66" style="stroke:#F0F0F0;stroke-width:9.72"/>
	<line x1="4052.53" y1="142.26" x2="4052.53" y2="113.40" style="stroke:#F0F0F0;stroke-width:9.72"/>
	<line x1="5215.39" y1="2766.66" x2="5215.39" y2="2701.86" style="stroke:#F0F0F0;stroke-width:9.72"/>
	<line x1="5215.39" y1="2669.46" x2="5215.39" y2="2604.66" style="stroke:#F0F0F0;stroke-width:9.72"/>
	<line x1="5215.39" y1="2572.26" x2="5215.39" y2="2507.46" style="stroke:#F0F0F0;stroke-width:9.72"/>
	<line x1="5215.39" y1="2475.06" x2="5215.39" y2="2410.26" style="stroke:#F0F0F0;stroke-width:9.72"/>
	<line x1="5215.39" y1="2377.86" x2="5215.39" y2="2313.06" style="stroke:#F0F0F0;stroke-width:9.72"/>
	<line x1="5215.39" y1="2280.66" x2="5215.39" y2="2215.86" style="stroke:#F0F0F0;stroke-width:9.72"/>
	<line x1="5215.39" y1="2183.46" x2="5215.39" y2="2118.66" style="stroke:#F0F0F0;stroke-width:9.72"/>
	<line x1="5215.39" y1="2086.26" x2="5215.39" y2="2021.46" style="stroke:#F0F0F0;stroke-width:9.72"/>
	<line x1="5215.39" y1="1989.06" x2="5215.39" y2="1924.26" style="stroke:#F0F0F0;stroke-width:9.72"/>
	<line x1="5215.39" y1="1891.86" x2="5215.39" y2="1827.06" style="stroke:#F0F0F0;stroke-width:9.72"/>
	<line x1="5215.39" y1="1794.66" x2="5215.39" y2="1729.86" style="stroke:#F0F0F0;stroke-width:9.72"/>
	<line x1="5215.39" y1="1697.46" x2="5215.39" y2="1632.66" style="stroke:#F0F0F0;stroke-width:9.72"/>
	<line x1="5215.39" y1="1600.26" x2="5215.39" y2="1535.46" style="stroke:#F0F0F0;stroke-width:9.72"/>
	<line x1="5215.39" y1="1503.06" x2="5215.39" y2="1438.26" style="stroke:#F0F0F0;stroke-width:9.72"/>
	<line x1="5215.39" y1="1405.86" x2="5215.39" y2="1341.06" style="stroke:#F0F0F0;stroke-width:9.72"/>
	<line x1="5215.39" y1="1308.66" x2="5215.39" y2="1243.86" style="stroke:#F0F0F0;stroke-width:9.72"/>
	<line x1="5215.39" y1="1211.46" x2="5215.39" y2="1146.66" style="stroke:#F0F0F0;stroke-width:9.72"/>
	<line x1="5215.39" y1="1114.26" x2="5215.39" y2="1049.46" style="stroke:#F0F0F0;stroke-width:9.72"/>
	<line x1="5215.39" y1="1017.06" x2="5215.39" y2="952.26" style="stroke:#F0F0F0;stroke-width:9.72"/>
	<line x1="5215.39" y1="919.86" x2="5215.39" y2="855.06" style="stroke:#F0F0F0;stroke-width:9.72"/>
	<line x1="5215.39" y1="822.66" x2="5215.39" y2="757.86" style="stroke:#F0F0F0;stroke-width:9.72"/>
	<line x1="5215.39" y1="725.46" x2="5215.39" y2="660.66" style="stroke:#F0F0F0;stroke-width:9.72"/>
	<line x1="5215.39" y1="628.26" x2="5215.39" y2="563.46" style="stroke:#F0F0F0;stroke-width:9.72"/>
	<line x1="5215.39" y1="531.06" x2="5215.39" y2="466.26" style="stroke:#F0F0F0;stroke-width:9.72"/>
	<line x1="5215.39" y1="433.86" x2="5215.39" y2="369.06" style="stroke:#F0F0F0;stroke-width:9.72"/>
	<line x1="5215.39" y1="336.66" x2="5215.39" y2="271.86" style="stroke:#F0F0F0;stroke-width:9.72"/>
	<line x1="5215.39" y1="239.46" x2="5215.39" y2="174.66" style="stroke:#F0F0F0;stroke-width:9.72"/>
	<line x1="5215.39" y1="142.26" x2="5215.39" y2="113.40" style="stroke:#F0F0F0;stroke-width:9.72"/>
	<rect x="1167.08" y="2760.41" width="86.74" height="6.24" style="fill:#3191FF"/>
	<rect x="1169.51" y="2762.84" width="81.88" height="1.38" style="fill:none;stroke:#5FAAFF;stroke-width:4.86"/>
	<rect x="1427.12" y="2741.85" width="86.74" height="24.81" style="fill:#3191FF"/>
	<rect x="1429.55" y="2744.28" width="81.88" height="19.95" style="fill:none;stroke:#5FAAFF;stroke-width:4.86"/>
	<rect x="1513.86" y="2667.77" width="86.74" height="98.89" style="fill:#3191FF"/>
	<rect x="1516.29" y="2670.20" width="81.88" height="94.03" style="fill:none;stroke:#5FAAFF;stroke-width:4.86"/>
	<rect x="1600.59" y="2605.84" width="86.74" height="160.82" style="fill:#3191FF"/>
	<rect x="1603.02" y="2608.27" width="81.88" height="155.96" style="fill:none;stroke:#5FAAFF;stroke-width:4.86"/>
	<rect x="1687.33" y="2389.50" width="86.74" height="377.16" style="fill:#3191FF"/>
	<rect x="1689.76" y="2391.93" width="81.88" height="372.30" style="fill:none;stroke:#5FAAFF;stroke-width:4.86"/>
	<rect x="1774.07" y="2197.80" width="86.57" height="568.86" style="fill:#3191FF"/>
	<rect x="1776.50" y="2200.23" width="81.71" height="564.00" style="fill:none;stroke:#5FAAFF;stroke-width:4.86"/>
	<rect x="1860.64" y="1913.46" width="86.74" height="853.20" style="fill:#3191FF"/>
	<rect x="1863.07" y="1915.89" width="81.88" height="848.34" style="fill:none;stroke:#5FAAFF;stroke-width:4.86"/>
	<rect x="1947.38" y="1493.10" width="86.74" height="1273.56" style="fill:#3191FF"/>
	<rect x="1949.81" y="1495.53" width="81.88" height="1268.70" style="fill:none;stroke:#5FAAFF;stroke-width:4.86"/>
	<rect x="2034.11" y="1301.57" width="86.74" height="1465.09" style="fill:#3191FF"/>
	<rect x="2036.54" y="1304.00" width="81.88" height="1460.23" style="fill:none;stroke:#5FAAFF;stroke-width:4.86"/>
	<rect x="2120.85" y="1196.44" width="86.74" height="1570.22" style="fill:#3191FF"/>
	<rect x="2123.28" y="1198.87" width="81.88" height="1565.36" style="fill:none;stroke:#5FAAFF;stroke-width:4.86"/>
	<rect x="2207.59" y="1060.43" width="86.57" height="1706.23" style="fill:#3191FF"/>
	<rect x="2210.02" y="1062.86" width="81.71" height="1701.37" style="fill:none;stroke:#5FAAFF;stroke-width:4.86"/>
	<rect x="2294.16" y="831.60" width="86.74" height="1935.06" style="fill:#3191FF"/>
	<rect x="2296.59" y="834.03" width="81.88" height="1930.20" style="fill:none;stroke:#5FAAFF;stroke-width:4.86"/>
	<rect x="2380.89" y="776.08" width="86.74" height="1990.57" style="fill:#3191FF"/>
	<rect x="2383.32" y="778.51" width="81.88" height="1985.72" style="fill:none;stroke:#5FAAFF;stroke-width:4.86"/>
	<rect x="2467.63" y="1196.44" width="86.74" height="1570.22" style="fill:#3191FF"/>
	<rect x="2470.06" y="1198.87" width="81.88" height="1565.36" style="fill:none;stroke:#5FAAFF;stroke-width:4.86"/>
	<rect x="2554.37" y="998.66" width="86.74" height="1767.99" style="fill:#3191FF"/>
	<rect x="2556.80" y="1001.09" width="81.88" height="1763.13" style="fill:none;stroke:#5FAAFF;stroke-width:4.86"/>
	<rect x="2641.11" y="973.86" width="86.57" height="1792.80" style="fill:#3191FF"/>
	<rect x="2643.54" y="976.29" width="81.71" height="1787.94" style="fill:none;stroke:#5FAAFF;stroke-width:4.86"/>
	<rect x="2727.68" y="942.97" width="86.74" height="1823.68" style="fill:#3191FF"/>
	<rect x="2730.11" y="945.40" width="81.88" height="1818.82" style="fill:none;stroke:#5FAAFF;stroke-width:4.86"/>
	<rect x="2814.41" y="831.60" width="86.74" height="1935.06" style="fill:#3191FF"/>
	<rect x="2816.84" y="834.03" width="81.88" height="1930.20" style="fill:none;stroke:#5FAAFF;stroke-width:4.86"/>
	<rect x="2901.15" y="547.26" width="86.74" height="2219.40" style="fill:#3191FF"/>
	<rect x="2903.58" y="549.69" width="81.88" height="2214.54" style="fill:none;stroke:#5FAAFF;stroke-width:4.86"/>
	<rect x="2987.89" y="664.71" width="86.74" height="2101.95" style="fill:#3191FF"/>
	<rect x="2990.32" y="667.14" width="81.88" height="2097.09" style="fill:none;stroke:#5FAAFF;stroke-width:4.86"/>
	<rect x="3074.63" y="324.84" width="86.57" height="2441.81" style="fill:#3191FF"/>
	<rect x="3077.06" y="327.27" width="81.71" height="2436.95" style="fill:none;stroke:#5FAAFF;stroke-width:4.86"/>
	<rect x="3161.19" y="201.15" width="86.74" height="2565.51" style="fill:#3191FF"/>
	<rect x="3163.62" y="203.58" width="81.88" height="2560.65" style="fill:none;stroke:#5FAAFF;stroke-width:4.86"/>
	<rect x="3247.93" y="244.35" width="86.74" height="2522.31" style="fill:#3191FF"/>
	<rect x="3250.36" y="246.78" width="81.88" height="2517.45" style="fill:none;stroke:#5FAAFF;stroke-width:4.86"/>
	<rect x="3334.67" y="541.18" width="86.74" height="2225.48" style="fill:#3191FF"/>
	<rect x="3337.10" y="543.61" width="81.88" height="2220.61" style="fill:none;stroke:#5FAAFF;stroke-width:4.86"/>
	<rect x="3421.41" y="831.60" width="86.74" height="1935.06" style="fill:#3191FF"/>
	<rect x="3423.84" y="834.03" width="81.88" height="1930.20" style="fill:none;stroke:#5FAAFF;stroke-width:4.86"/>
	<rect x="3508.14" y="1153.07" width="86.74" height="1613.59" style="fill:#3191FF"/>
	<rect x="3510.57" y="1155.50" width="81.88" height="1608.73" style="fill:none;stroke:#5FAAFF;stroke-width:4.86"/>
	<rect x="3594.88" y="1585.91" width="86.57" height="1180.74" style="fill:#3191FF"/>
	<rect x="3597.31" y="1588.34" width="81.71" height="1175.88" style="fill:none;stroke:#5FAAFF;stroke-width:4.86"/>
	<rect x="3681.45" y="1851.69" width="86.74" height="914.96" style="fill:#3191FF"/>
	<rect x="3683.88" y="1854.12" width="81.88" height="910.10" style="fill:none;stroke:#5FAAFF;stroke-width:4.86"/>
	<rect x="3768.19" y="2000.03" width="86.74" height="766.63" style="fill:#3191FF"/>
	<rect x="3770.62" y="2002.46" width="81.88" height="761.77" style="fill:none;stroke:#5FAAFF;stroke-width:4.86"/>
	<rect x="3854.93" y="2092.84" width="86.74" height="673.82" style="fill:#3191FF"/>
	<rect x="3857.36" y="2095.27" width="81.88" height="668.96" style="fill:none;stroke:#5FAAFF;stroke-width:4.86"/>
	<rect x="3941.66" y="2358.62" width="86.74" height="408.04" style="fill:#3191FF"/>
	<rect x="3944.09" y="2361.05" width="81.88" height="403.18" style="fill:none;stroke:#5FAAFF;stroke-width:4.86"/>
	<rect x="4028.40" y="2395.74" width="86.57" height="370.91" style="fill:#3191FF"/>
	<rect x="4030.83" y="2398.17" width="81.71" height="366.05" style="fill:none;stroke:#5FAAFF;stroke-width:4.86"/>
	<rect x="4114.97" y="2581.20" width="86.74" height="185.46" style="fill:#3191FF"/>
	<rect x="4117.40" y="2583.63" width="81.88" height="180.60" style="fill:none;stroke:#5FAAFF;stroke-width:4.86"/>
	<rect x="4201.71" y="2680.09" width="86.74" height="86.57" style="fill:#3191FF"/>
	<rect x="4204.14" y="2682.52" width="81.88" height="81.71" style="fill:none;stroke:#5FAAFF;stroke-width:4.86"/>
	<rect x="4288.44" y="2686.16" width="86.74" height="80.49" style="fill:#3191FF"/>
	<rect x="4290.87" y="2688.59" width="81.88" height="75.63" style="fill:none;stroke:#5FAAFF;stroke-width:4.86"/>
	<rect x="4375.18" y="2698.65" width="86.74" height="68.01" style="fill:#3191FF"/>
	<rect x="4377.61" y="2701.08" width="81.88" height="63.15" style="fill:none;stroke:#5FAAFF;stroke-width:4.86"/>
	<line x1="493.26" y1="2766.66" x2="493.26" y2="113.40" style="stroke:#000000;stroke-width:6.48"/>
	<line x1="493.26" y1="2766.66" x2="448.20" y2="2766.66" style="stroke:#000000;stroke-width:6.48"/>
	<text x="425.76" y="2806.09" style="font-family:'Helvetica';font-size:112.56px;fill:#000000" text-anchor="end">0</text>
	<line x1="493.26" y1="2121.19" x2="448.20" y2="2121.19" style="stroke:#000000;stroke-width:6.48"/>
	<text x="425.76" y="2160.62" style="font-family:'Helvetica';font-size:112.56px;fill:#000000" text-anchor="end">.1</text>
	<line x1="493.26" y1="1475.72" x2="448.20" y2="1475.72" style="stroke:#000000;stroke-width:6.48"/>
	<text x="425.76" y="1515.16" style="font-family:'Helvetica';font-size:112.56px;fill:#000000" text-anchor="end">.2</text>
	<line x1="493.26" y1="830.08" x2="448.20" y2="830.08" style="stroke:#000000;stroke-width:6.48"/>
	<text x="425.76" y="869.52" style="font-family:'Helvetica';font-size:112.56px;fill:#000000" text-anchor="end">.3</text>
	<line x1="493.26" y1="184.61" x2="448.20" y2="184.61" style="stroke:#000000;stroke-width:6.48"/>
	<text x="425.76" y="224.05" style="font-family:'Helvetica';font-size:112.56px;fill:#000000" text-anchor="end">.4</text>
	<text x="214.55" y="1439.94" style="font-family:'Helvetica';font-size:112.56px;fill:#000000" transform="rotate(-90 214.55,1439.94)" text-anchor="middle">Density</text>
	<line x1="493.26" y1="2766.66" x2="5286.60" y2="2766.66" style="stroke:#000000;stroke-width:6.48"/>
	<line x1="564.47" y1="2766.66" x2="564.47" y2="2811.54" style="stroke:#000000;stroke-width:6.48"/>
	<text x="564.47" y="2912.86" style="font-family:'Helvetica';font-size:112.56px;fill:#000000" text-anchor="middle">-4</text>
	<line x1="1727.16" y1="2766.66" x2="1727.16" y2="2811.54" style="stroke:#000000;stroke-width:6.48"/>
	<text x="1727.16" y="2912.86" style="font-family:'Helvetica';font-size:112.56px;fill:#000000" text-anchor="middle">-2</text>
	<line x1="2889.84" y1="2766.66" x2="2889.84" y2="2811.54" style="stroke:#000000;stroke-width:6.48"/>
	<text x="2889.84" y="2912.86" style="font-family:'Helvetica';font-size:112.56px;fill:#000000" text-anchor="middle">0</text>
	<line x1="4052.53" y1="2766.66" x2="4052.53" y2="2811.54" style="stroke:#000000;stroke-width:6.48"/>
	<text x="4052.53" y="2912.86" style="font-family:'Helvetica';font-size:112.56px;fill:#000000" text-anchor="middle">2</text>
	<line x1="5215.39" y1="2766.66" x2="5215.39" y2="2811.54" style="stroke:#000000;stroke-width:6.48"/>
	<text x="5215.39" y="2912.86" style="font-family:'Helvetica';font-size:112.56px;fill:#000000" text-anchor="middle">4</text>
	<text x="2889.84" y="3070.31" style="font-family:'Helvetica';font-size:112.56px;fill:#000000" text-anchor="middle">Scores for factor 1</text>
</svg>