<svg xmlns="http://www.w3.org/2000/svg" xmlns:xlink="http://www.w3.org/1999/xlink" version="1.1" width="6.000in" height="4.000in" viewBox="0 0 4320 2880">
	<desc>Stata Graph - Graph</desc>
	<rect x="0" y="0" width="4320" height="2880" style="fill:#FFFFFF;stroke:none"/>
	<rect x="0.00" y="0.00" width="4320.00" height="2880.00" style="fill:#FFFFFF"/>
	<rect x="2.88" y="2.88" width="4314.24" height="2874.24" style="fill:none;stroke:#FFFFFF;stroke-width:5.76"/>
	<rect x="1311.39" y="275.40" width="2069.28" height="2069.31" style="fill:#FFFFFF"/>
	<rect x="1314.27" y="278.28" width="2063.52" height="2063.55" style="fill:none;stroke:#FFFFFF;stroke-width:5.76"/>
	<line x1="1311.39" y1="2281.27" x2="1369.04" y2="2281.27" style="stroke:#F0F0F0;stroke-width:8.64"/>
	<line x1="1397.79" y1="2281.27" x2="1455.44" y2="2281.27" style="stroke:#F0F0F0;stroke-width:8.64"/>
	<line x1="1484.19" y1="2281.27" x2="1541.84" y2="2281.27" style="stroke:#F0F0F0;stroke-width:8.64"/>
	<line x1="1570.59" y1="2281.27" x2="1628.24" y2="2281.27" style="stroke:#F0F0F0;stroke-width:8.64"/>
	<line x1="1656.99" y1="2281.27" x2="1714.64" y2="2281.27" style="stroke:#F0F0F0;stroke-width:8.64"/>
	<line x1="1743.39" y1="2281.27" x2="1801.04" y2="2281.27" style="stroke:#F0F0F0;stroke-width:8.64"/>
	<line x1="1829.79" y1="2281.27" x2="1887.44" y2="2281.27" style="stroke:#F0F0F0;stroke-width:8.64"/>
	<line x1="1916.19" y1="2281.27" x2="1973.84" y2="2281.27" style="stroke:#F0F0F0;stroke-width:8.64"/>
	<line x1="2002.59" y1="2281.27" x2="2060.24" y2="2281.27" style="stroke:#F0F0F0;stroke-width:8.64"/>
	<line x1="2088.99" y1="2281.27" x2="2146.64" y2="2281.27" style="stroke:#F0F0F0;stroke-width:8.64"/>
	<line x1="2175.39" y1="2281.27" x2="2233.04" y2="2281.27" style="stroke:#F0F0F0;stroke-width:8.64"/>
	<line x1="2261.79" y1="2281.27" x2="2319.44" y2="2281.27" style="stroke:#F0F0F0;stroke-width:8.64"/>
	<line x1="2348.19" y1="2281.27" x2="2405.84" y2="2281.27" style="stroke:#F0F0F0;stroke-width:8.64"/>
	<line x1="2434.59" y1="2281.27" x2="2492.24" y2="2281.27" style="stroke:#F0F0F0;stroke-width:8.64"/>
	<line x1="2520.99" y1="2281.27" x2="2578.64" y2="2281.27" style="stroke:#F0F0F0;stroke-width:8.64"/>
	<line x1="2607.39" y1="2281.27" x2="2665.04" y2="2281.27" style="stroke:#F0F0F0;stroke-width:8.64"/>
	<line x1="2693.79" y1="2281.27" x2="2751.44" y2="2281.27" style="stroke:#F0F0F0;stroke-width:8.64"/>
	<line x1="2780.19" y1="2281.27" x2="2837.84" y2="2281.27" style="stroke:#F0F0F0;stroke-width:8.64"/>
	<line x1="2866.59" y1="2281.27" x2="2924.24" y2="2281.27" style="stroke:#F0F0F0;stroke-width:8.64"/>
	<line x1="2952.99" y1="2281.27" x2="3010.64" y2="2281.27" style="stroke:#F0F0F0;stroke-width:8.64"/>
	<line x1="3039.39" y1="2281.27" x2="3097.04" y2="2281.27" style="stroke:#F0F0F0;stroke-width:8.64"/>
	<line x1="3125.79" y1="2281.27" x2="3183.44" y2="2281.27" style="stroke:#F0F0F0;stroke-width:8.64"/>
	<line x1="3212.19" y1="2281.27" x2="3269.84" y2="2281.27" style="stroke:#F0F0F0;stroke-width:8.64"/>
	<line x1="3298.59" y1="2281.27" x2="3356.24" y2="2281.27" style="stroke:#F0F0F0;stroke-width:8.64"/>
	<line x1="1311.39" y1="1957.53" x2="1369.04" y2="1957.53" style="stroke:#F0F0F0;stroke-width:8.64"/>
	<line x1="1397.79" y1="1957.53" x2="1455.44" y2="1957.53" style="stroke:#F0F0F0;stroke-width:8.64"/>
	<line x1="1484.19" y1="1957.53" x2="1541.84" y2="1957.53" style="stroke:#F0F0F0;stroke-width:8.64"/>
	<line x1="1570.59" y1="1957.53" x2="1628.24" y2="1957.53" style="stroke:#F0F0F0;stroke-width:8.64"/>
	<line x1="1656.99" y1="1957.53" x2="1714.64" y2="1957.53" style="stroke:#F0F0F0;stroke-width:8.64"/>
	<line x1="1743.39" y1="1957.53" x2="1801.04" y2="1957.53" style="stroke:#F0F0F0;stroke-width:8.64"/>
	<line x1="1829.79" y1="1957.53" x2="1887.44" y2="1957.53" style="stroke:#F0F0F0;stroke-width:8.64"/>
	<line x1="1916.19" y1="1957.53" x2="1973.84" y2="1957.53" style="stroke:#F0F0F0;stroke-width:8.64"/>
	<line x1="2002.59" y1="1957.53" x2="2060.24" y2="1957.53" style="stroke:#F0F0F0;stroke-width:8.64"/>
	<line x1="2088.99" y1="1957.53" x2="2146.64" y2="1957.53" style="stroke:#F0F0F0;stroke-width:8.64"/>
	<line x1="2175.39" y1="1957.53" x2="2233.04" y2="1957.53" style="stroke:#F0F0F0;stroke-width:8.64"/>
	<line x1="2261.79" y1="1957.53" x2="2319.44" y2="1957.53" style="stroke:#F0F0F0;stroke-width:8.64"/>
	<line x1="2348.19" y1="1957.53" x2="2405.84" y2="1957.53" style="stroke:#F0F0F0;stroke-width:8.64"/>
	<line x1="2434.59" y1="1957.53" x2="2492.24" y2="1957.53" style="stroke:#F0F0F0;stroke-width:8.64"/>
	<line x1="2520.99" y1="1957.53" x2="2578.64" y2="1957.53" style="stroke:#F0F0F0;stroke-width:8.64"/>
	<line x1="2607.39" y1="1957.53" x2="2665.04" y2="1957.53" style="stroke:#F0F0F0;stroke-width:8.64"/>
	<line x1="2693.79" y1="1957.53" x2="2751.44" y2="1957.53" style="stroke:#F0F0F0;stroke-width:8.64"/>
	<line x1="2780.19" y1="1957.53" x2="2837.84" y2="1957.53" style="stroke:#F0F0F0;stroke-width:8.64"/>
	<line x1="2866.59" y1="1957.53" x2="2924.24" y2="1957.53" style="stroke:#F0F0F0;stroke-width:8.64"/>
	<line x1="2952.99" y1="1957.53" x2="3010.64" y2="1957.53" style="stroke:#F0F0F0;stroke-width:8.64"/>
	<line x1="3039.39" y1="1957.53" x2="3097.04" y2="1957.53" style="stroke:#F0F0F0;stroke-width:8.64"/>
	<line x1="3125.79" y1="1957.53" x2="3183.44" y2="1957.53" style="stroke:#F0F0F0;stroke-width:8.64"/>
	<line x1="3212.19" y1="1957.53" x2="3269.84" y2="1957.53" style="stroke:#F0F0F0;stroke-width:8.64"/>
	<line x1="3298.59" y1="1957.53" x2="3356.24" y2="1957.53" style="stroke:#F0F0F0;stroke-width:8.64"/>
	<line x1="1311.39" y1="1633.80" x2="1369.04" y2="1633.80" style="stroke:#F0F0F0;stroke-width:8.64"/>
	<line x1="1397.79" y1="1633.80" x2="1455.44" y2="1633.80" style="stroke:#F0F0F0;stroke-width:8.64"/>
	<line x1="1484.19" y1="1633.80" x2="1541.84" y2="1633.80" style="stroke:#F0F0F0;stroke-width:8.64"/>
	<line x1="1570.59" y1="1633.80" x2="1628.24" y2="1633.80" style="stroke:#F0F0F0;stroke-width:8.64"/>
	<line x1="1656.99" y1="1633.80" x2="1714.64" y2="1633.80" style="stroke:#F0F0F0;stroke-width:8.64"/>
	<line x1="1743.39" y1="1633.80" x2="1801.04" y2="1633.80" style="stroke:#F0F0F0;stroke-width:8.64"/>
	<line x1="1829.79" y1="1633.80" x2="1887.44" y2="1633.80" style="stroke:#F0F0F0;stroke-width:8.64"/>
	<line x1="1916.19" y1="1633.80" x2="1973.84" y2="1633.80" style="stroke:#F0F0F0;stroke-width:8.64"/>
	<line x1="2002.59" y1="1633.80" x2="2060.24" y2="1633.80" style="stroke:#F0F0F0;stroke-width:8.64"/>
	<line x1="2088.99" y1="1633.80" x2="2146.64" y2="1633.80" style="stroke:#F0F0F0;stroke-width:8.64"/>
	<line x1="2175.39" y1="1633.80" x2="2233.04" y2="1633.80" style="stroke:#F0F0F0;stroke-width:8.64"/>
	<line x1="2261.79" y1="1633.80" x2="2319.44" y2="1633.80" style="stroke:#F0F0F0;stroke-width:8.64"/>
	<line x1="2348.19" y1="1633.80" x2="2405.84" y2="1633.80" style="stroke:#F0F0F0;stroke-width:8.64"/>
	<line x1="2434.59" y1="1633.80" x2="2492.24" y2="1633.80" style="stroke:#F0F0F0;stroke-width:8.64"/>
	<line x1="2520.99" y1="1633.80" x2="2578.64" y2="1633.80" style="stroke:#F0F0F0;stroke-width:8.64"/>
	<line x1="2607.39" y1="1633.80" x2="2665.04" y2="1633.80" style="stroke:#F0F0F0;stroke-width:8.64"/>
	<line x1="2693.79" y1="1633.80" x2="2751.44" y2="1633.80" style="stroke:#F0F0F0;stroke-width:8.64"/>
	<line x1="2780.19" y1="1633.80" x2="2837.84" y2="1633.80" style="stroke:#F0F0F0;stroke-width:8.64"/>
	<line x1="2866.59" y1="1633.80" x2="2924.24" y2="1633.80" style="stroke:#F0F0F0;stroke-width:8.64"/>
	<line x1="2952.99" y1="1633.80" x2="3010.64" y2="1633.80" style="stroke:#F0F0F0;stroke-width:8.64"/>
	<line x1="3039.39" y1="1633.80" x2="3097.04" y2="1633.80" style="stroke:#F0F0F0;stroke-width:8.64"/>
	<line x1="3125.79" y1="1633.80" x2="3183.44" y2="1633.80" style="stroke:#F0F0F0;stroke-width:8.64"/>
	<line x1="3212.19" y1="1633.80" x2="3269.84" y2="1633.80" style="stroke:#F0F0F0;stroke-width:8.64"/>
	<line x1="3298.59" y1="1633.80" x2="3356.24" y2="1633.80" style="stroke:#F0F0F0;stroke-width:8.64"/>
	<line x1="1311.39" y1="1310.06" x2="1369.04" y2="1310.06" style="stroke:#F0F0F0;stroke-width:8.64"/>
	<line x1="1397.79" y1="1310.06" x2="1455.44" y2="1310.06" style="stroke:#F0F0F0;stroke-width:8.64"/>
	<line x1="1484.19" y1="1310.06" x2="1541.84" y2="1310.06" style="stroke:#F0F0F0;stroke-width:8.64"/>
	<line x1="1570.59" y1="1310.06" x2="1628.24" y2="1310.06" style="stroke:#F0F0F0;stroke-width:8.64"/>
	<line x1="1656.99" y1="1310.06" x2="1714.64" y2="1310.06" style="stroke:#F0F0F0;stroke-width:8.64"/>
	<line x1="1743.39" y1="1310.06" x2="1801.04" y2="1310.06" style="stroke:#F0F0F0;stroke-width:8.64"/>
	<line x1="1829.79" y1="1310.06" x2="1887.44" y2="1310.06" style="stroke:#F0F0F0;stroke-width:8.64"/>
	<line x1="1916.19" y1="1310.06" x2="1973.84" y2="1310.06" style="stroke:#F0F0F0;stroke-width:8.64"/>
	<line x1="2002.59" y1="1310.06" x2="2060.24" y2="1310.06" style="stroke:#F0F0F0;stroke-width:8.64"/>
	<line x1="2088.99" y1="1310.06" x2="2146.64" y2="1310.06" style="stroke:#F0F0F0;stroke-width:8.64"/>
	<line x1="2175.39" y1="1310.06" x2="2233.04" y2="1310.06" style="stroke:#F0F0F0;stroke-width:8.64"/>
	<line x1="2261.79" y1="1310.06" x2="2319.44" y2="1310.06" style="stroke:#F0F0F0;stroke-width:8.64"/>
	<line x1="2348.19" y1="1310.06" x2="2405.84" y2="1310.06" style="stroke:#F0F0F0;stroke-width:8.64"/>
	<line x1="2434.59" y1="1310.06" x2="2492.24" y2="1310.06" style="stroke:#F0F0F0;stroke-width:8.64"/>
	<line x1="2520.99" y1="1310.06" x2="2578.64" y2="1310.06" style="stroke:#F0F0F0;stroke-width:8.64"/>
	<line x1="2607.39" y1="1310.06" x2="2665.04" y2="1310.06" style="stroke:#F0F0F0;stroke-width:8.64"/>
	<line x1="2693.79" y1="1310.06" x2="2751.44" y2="1310.06" style="stroke:#F0F0F0;stroke-width:8.64"/>
	<line x1="2780.19" y1="1310.06" x2="2837.84" y2="1310.06" style="stroke:#F0F0F0;stroke-width:8.64"/>
	<line x1="2866.59" y1="1310.06" x2="2924.24" y2="1310.06" style="stroke:#F0F0F0;stroke-width:8.64"/>
	<line x1="2952.99" y1="1310.06" x2="3010.64" y2="1310.06" style="stroke:#F0F0F0;stroke-width:8.64"/>
	<line x1="3039.39" y1="1310.06" x2="3097.04" y2="1310.06" style="stroke:#F0F0F0;stroke-width:8.64"/>
	<line x1="3125.79" y1="1310.06" x2="3183.44" y2="1310.06" style="stroke:#F0F0F0;stroke-width:8.64"/>
	<line x1="3212.19" y1="1310.06" x2="3269.84" y2="1310.06" style="stroke:#F0F0F0;stroke-width:8.64"/>
	<line x1="3298.59" y1="1310.06" x2="3356.24" y2="1310.06" style="stroke:#F0F0F0;stroke-width:8.64"/>
	<line x1="1311.39" y1="986.19" x2="1369.04" y2="986.19" style="stroke:#F0F0F0;stroke-width:8.64"/>
	<line x1="1397.79" y1="986.19" x2="1455.44" y2="986.19" style="stroke:#F0F0F0;stroke-width:8.64"/>
	<line x1="1484.19" y1="986.19" x2="1541.84" y2="986.19" style="stroke:#F0F0F0;stroke-width:8.64"/>
	<line x1="1570.59" y1="986.19" x2="1628.24" y2="986.19" style="stroke:#F0F0F0;stroke-width:8.64"/>
	<line x1="1656.99" y1="986.19" x2="1714.64" y2="986.19" style="stroke:#F0F0F0;stroke-width:8.64"/>
	<line x1="1743.39" y1="986.19" x2="1801.04" y2="986.19" style="stroke:#F0F0F0;stroke-width:8.64"/>
	<line x1="1829.79" y1="986.19" x2="1887.44" y2="986.19" style="stroke:#F0F0F0;stroke-width:8.64"/>
	<line x1="1916.19" y1="986.19" x2="1973.84" y2="986.19" style="stroke:#F0F0F0;stroke-width:8.64"/>
	<line x1="2002.59" y1="986.19" x2="2060.24" y2="986.19" style="stroke:#F0F0F0;stroke-width:8.64"/>
	<line x1="2088.99" y1="986.19" x2="2146.64" y2="986.19" style="stroke:#F0F0F0;stroke-width:8.64"/>
	<line x1="2175.39" y1="986.19" x2="2233.04" y2="986.19" style="stroke:#F0F0F0;stroke-width:8.64"/>
	<line x1="2261.79" y1="986.19" x2="2319.44" y2="986.19" style="stroke:#F0F0F0;stroke-width:8.64"/>
	<line x1="2348.19" y1="986.19" x2="2405.84" y2="986.19" style="stroke:#F0F0F0;stroke-width:8.64"/>
	<line x1="2434.59" y1="986.19" x2="2492.24" y2="986.19" style="stroke:#F0F0F0;stroke-width:8.64"/>
	<line x1="2520.99" y1="986.19" x2="2578.64" y2="986.19" style="stroke:#F0F0F0;stroke-width:8.64"/>
	<line x1="2607.39" y1="986.19" x2="2665.04" y2="986.19" style="stroke:#F0F0F0;stroke-width:8.64"/>
	<line x1="2693.79" y1="986.19" x2="2751.44" y2="986.19" style="stroke:#F0F0F0;stroke-width:8.64"/>
	<line x1="2780.19" y1="986.19" x2="2837.84" y2="986.19" style="stroke:#F0F0F0;stroke-width:8.64"/>
	<line x1="2866.59" y1="986.19" x2="2924.24" y2="986.19" style="stroke:#F0F0F0;stroke-width:8.64"/>
	<line x1="2952.99" y1="986.19" x2="3010.64" y2="986.19" style="stroke:#F0F0F0;stroke-width:8.64"/>
	<line x1="3039.39" y1="986.19" x2="3097.04" y2="986.19" style="stroke:#F0F0F0;stroke-width:8.64"/>
	<line x1="3125.79" y1="986.19" x2="3183.44" y2="986.19" style="stroke:#F0F0F0;stroke-width:8.64"/>
	<line x1="3212.19" y1="986.19" x2="3269.84" y2="986.19" style="stroke:#F0F0F0;stroke-width:8.64"/>
	<line x1="3298.59" y1="986.19" x2="3356.24" y2="986.19" style="stroke:#F0F0F0;stroke-width:8.64"/>
	<line x1="1311.39" y1="662.46" x2="1369.04" y2="662.46" style="stroke:#F0F0F0;stroke-width:8.64"/>
	<line x1="1397.79" y1="662.46" x2="1455.44" y2="662.46" style="stroke:#F0F0F0;stroke-width:8.64"/>
	<line x1="1484.19" y1="662.46" x2="1541.84" y2="662.46" style="stroke:#F0F0F0;stroke-width:8.64"/>
	<line x1="1570.59" y1="662.46" x2="1628.24" y2="662.46" style="stroke:#F0F0F0;stroke-width:8.64"/>
	<line x1="1656.99" y1="662.46" x2="1714.64" y2="662.46" style="stroke:#F0F0F0;stroke-width:8.64"/>
	<line x1="1743.39" y1="662.46" x2="1801.04" y2="662.46" style="stroke:#F0F0F0;stroke-width:8.64"/>
	<line x1="1829.79" y1="662.46" x2="1887.44" y2="662.46" style="stroke:#F0F0F0;stroke-width:8.64"/>
	<line x1="1916.19" y1="662.46" x2="1973.84" y2="662.46" style="stroke:#F0F0F0;stroke-width:8.64"/>
	<line x1="2002.59" y1="662.46" x2="2060.24" y2="662.46" style="stroke:#F0F0F0;stroke-width:8.64"/>
	<line x1="2088.99" y1="662.46" x2="2146.64" y2="662.46" style="stroke:#F0F0F0;stroke-width:8.64"/>
	<line x1="2175.39" y1="662.46" x2="2233.04" y2="662.46" style="stroke:#F0F0F0;stroke-width:8.64"/>
	<line x1="2261.79" y1="662.46" x2="2319.44" y2="662.46" style="stroke:#F0F0F0;stroke-width:8.64"/>
	<line x1="2348.19" y1="662.46" x2="2405.84" y2="662.46" style="stroke:#F0F0F0;stroke-width:8.64"/>
	<line x1="2434.59" y1="662.46" x2="2492.24" y2="662.46" style="stroke:#F0F0F0;stroke-width:8.64"/>
	<line x1="2520.99" y1="662.46" x2="2578.64" y2="662.46" style="stroke:#F0F0F0;stroke-width:8.64"/>
	<line x1="2607.39" y1="662.46" x2="2665.04" y2="662.46" style="stroke:#F0F0F0;stroke-width:8.64"/>
	<line x1="2693.79" y1="662.46" x2="2751.44" y2="662.46" style="stroke:#F0F0F0;stroke-width:8.64"/>
	<line x1="2780.19" y1="662.46" x2="2837.84" y2="662.46" style="stroke:#F0F0F0;stroke-width:8.64"/>
	<line x1="2866.59" y1="662.46" x2="2924.24" y2="662.46" style="stroke:#F0F0F0;stroke-width:8.64"/>
	<line x1="2952.99" y1="662.46" x2="3010.64" y2="662.46" style="stroke:#F0F0F0;stroke-width:8.64"/>
	<line x1="3039.39" y1="662.46" x2="3097.04" y2="662.46" style="stroke:#F0F0F0;stroke-width:8.64"/>
	<line x1="3125.79" y1="662.46" x2="3183.44" y2="662.46" style="stroke:#F0F0F0;stroke-width:8.64"/>
	<line x1="3212.19" y1="662.46" x2="3269.84" y2="662.46" style="stroke:#F0F0F0;stroke-width:8.64"/>
	<line x1="3298.59" y1="662.46" x2="3356.24" y2="662.46" style="stroke:#F0F0F0;stroke-width:8.64"/>
	<line x1="1311.39" y1="338.72" x2="1369.04" y2="338.72" style="stroke:#F0F0F0;stroke-width:8.64"/>
	<line x1="1397.79" y1="338.72" x2="1455.44" y2="338.72" style="stroke:#F0F0F0;stroke-width:8.64"/>
	<line x1="1484.19" y1="338.72" x2="1541.84" y2="338.72" style="stroke:#F0F0F0;stroke-width:8.64"/>
	<line x1="1570.59" y1="338.72" x2="1628.24" y2="338.72" style="stroke:#F0F0F0;stroke-width:8.64"/>
	<line x1="1656.99" y1="338.72" x2="1714.64" y2="338.72" style="stroke:#F0F0F0;stroke-width:8.64"/>
	<line x1="1743.39" y1="338.72" x2="1801.04" y2="338.72" style="stroke:#F0F0F0;stroke-width:8.64"/>
	<line x1="1829.79" y1="338.72" x2="1887.44" y2="338.72" style="stroke:#F0F0F0;stroke-width:8.64"/>
	<line x1="1916.19" y1="338.72" x2="1973.84" y2="338.72" style="stroke:#F0F0F0;stroke-width:8.64"/>
	<line x1="2002.59" y1="338.72" x2="2060.24" y2="338.72" style="stroke:#F0F0F0;stroke-width:8.64"/>
	<line x1="2088.99" y1="338.72" x2="2146.64" y2="338.72" style="stroke:#F0F0F0;stroke-width:8.64"/>
	<line x1="2175.39" y1="338.72" x2="2233.04" y2="338.72" style="stroke:#F0F0F0;stroke-width:8.64"/>
	<line x1="2261.79" y1="338.72" x2="2319.44" y2="338.72" style="stroke:#F0F0F0;stroke-width:8.64"/>
	<line x1="2348.19" y1="338.72" x2="2405.84" y2="338.72" style="stroke:#F0F0F0;stroke-width:8.64"/>
	<line x1="2434.59" y1="338.72" x2="2492.24" y2="338.72" style="stroke:#F0F0F0;stroke-width:8.64"/>
	<line x1="2520.99" y1="338.72" x2="2578.64" y2="338.72" style="stroke:#F0F0F0;stroke-width:8.64"/>
	<line x1="2607.39" y1="338.72" x2="2665.04" y2="338.72" style="stroke:#F0F0F0;stroke-width:8.64"/>
	<line x1="2693.79" y1="338.72" x2="2751.44" y2="338.72" style="stroke:#F0F0F0;stroke-width:8.64"/>
	<line x1="2780.19" y1="338.72" x2="2837.84" y2="338.72" style="stroke:#F0F0F0;stroke-width:8.64"/>
	<line x1="2866.59" y1="338.72" x2="2924.24" y2="338.72" style="stroke:#F0F0F0;stroke-width:8.64"/>
	<line x1="2952.99" y1="338.72" x2="3010.64" y2="338.72" style="stroke:#F0F0F0;stroke-width:8.64"/>
	<line x1="3039.39" y1="338.72" x2="3097.04" y2="338.72" style="stroke:#F0F0F0;stroke-width:8.64"/>
	<line x1="3125.79" y1="338.72" x2="3183.44" y2="338.72" style="stroke:#F0F0F0;stroke-width:8.64"/>
	<line x1="3212.19" y1="338.72" x2="3269.84" y2="338.72" style="stroke:#F0F0F0;stroke-width:8.64"/>
	<line x1="3298.59" y1="338.72" x2="3356.24" y2="338.72" style="stroke:#F0F0F0;stroke-width:8.64"/>
	<line x1="1374.84" y1="2344.72" x2="1374.84" y2="2287.07" style="stroke:#F0F0F0;stroke-width:8.64"/>
	<line x1="1374.84" y1="2258.32" x2="1374.84" y2="2200.67" style="stroke:#F0F0F0;stroke-width:8.64"/>
	<line x1="1374.84" y1="2171.91" x2="1374.84" y2="2114.27" style="stroke:#F0F0F0;stroke-width:8.64"/>
	<line x1="1374.84" y1="2085.51" x2="1374.84" y2="2027.87" style="stroke:#F0F0F0;stroke-width:8.64"/>
	<line x1="1374.84" y1="1999.11" x2="1374.84" y2="1941.47" style="stroke:#F0F0F0;stroke-width:8.64"/>
	<line x1="1374.84" y1="1912.71" x2="1374.84" y2="1855.06" style="stroke:#F0F0F0;stroke-width:8.64"/>
	<line x1="1374.84" y1="1826.31" x2="1374.84" y2="1768.66" style="stroke:#F0F0F0;stroke-width:8.64"/>
	<line x1="1374.84" y1="1739.91" x2="1374.84" y2="1682.26" style="stroke:#F0F0F0;stroke-width:8.64"/>
	<line x1="1374.84" y1="1653.51" x2="1374.84" y2="1595.86" style="stroke:#F0F0F0;stroke-width:8.64"/>
	<line x1="1374.84" y1="1567.10" x2="1374.84" y2="1509.46" style="stroke:#F0F0F0;stroke-width:8.64"/>
	<line x1="1374.84" y1="1480.70" x2="1374.84" y2="1423.06" style="stroke:#F0F0F0;stroke-width:8.64"/>
	<line x1="1374.84" y1="1394.30" x2="1374.84" y2="1336.66" style="stroke:#F0F0F0;stroke-width:8.64"/>
	<line x1="1374.84" y1="1307.90" x2="1374.84" y2="1250.25" style="stroke:#F0F0F0;stroke-width:8.64"/>
	<line x1="1374.84" y1="1221.50" x2="1374.84" y2="1163.85" style="stroke:#F0F0F0;stroke-width:8.64"/>
	<line x1="1374.84" y1="1135.10" x2="1374.84" y2="1077.45" style="stroke:#F0F0F0;stroke-width:8.64"/>
	<line x1="1374.84" y1="1048.70" x2="1374.84" y2="991.05" style="stroke:#F0F0F0;stroke-width:8.64"/>
	<line x1="1374.84" y1="962.30" x2="1374.84" y2="904.65" style="stroke:#F0F0F0;stroke-width:8.64"/>
	<line x1="1374.84" y1="875.89" x2="1374.84" y2="818.25" style="stroke:#F0F0F0;stroke-width:8.64"/>
	<line x1="1374.84" y1="789.49" x2="1374.84" y2="731.85" style="stroke:#F0F0F0;stroke-width:8.64"/>
	<line x1="1374.84" y1="703.09" x2="1374.84" y2="645.45" style="stroke:#F0F0F0;stroke-width:8.64"/>
	<line x1="1374.84" y1="616.69" x2="1374.84" y2="559.04" style="stroke:#F0F0F0;stroke-width:8.64"/>
	<line x1="1374.84" y1="530.29" x2="1374.84" y2="472.64" style="stroke:#F0F0F0;stroke-width:8.64"/>
	<line x1="1374.84" y1="443.89" x2="1374.84" y2="386.24" style="stroke:#F0F0F0;stroke-width:8.64"/>
	<line x1="1374.84" y1="357.49" x2="1374.84" y2="299.84" style="stroke:#F0F0F0;stroke-width:8.64"/>
	<line x1="1698.57" y1="2344.72" x2="1698.57" y2="2287.07" style="stroke:#F0F0F0;stroke-width:8.64"/>
	<line x1="1698.57" y1="2258.32" x2="1698.57" y2="2200.67" style="stroke:#F0F0F0;stroke-width:8.64"/>
	<line x1="1698.57" y1="2171.91" x2="1698.57" y2="2114.27" style="stroke:#F0F0F0;stroke-width:8.64"/>
	<line x1="1698.57" y1="2085.51" x2="1698.57" y2="2027.87" style="stroke:#F0F0F0;stroke-width:8.64"/>
	<line x1="1698.57" y1="1999.11" x2="1698.57" y2="1941.47" style="stroke:#F0F0F0;stroke-width:8.64"/>
	<line x1="1698.57" y1="1912.71" x2="1698.57" y2="1855.06" style="stroke:#F0F0F0;stroke-width:8.64"/>
	<line x1="1698.57" y1="1826.31" x2="1698.57" y2="1768.66" style="stroke:#F0F0F0;stroke-width:8.64"/>
	<line x1="1698.57" y1="1739.91" x2="1698.57" y2="1682.26" style="stroke:#F0F0F0;stroke-width:8.64"/>
	<line x1="1698.57" y1="1653.51" x2="1698.57" y2="1595.86" style="stroke:#F0F0F0;stroke-width:8.64"/>
	<line x1="1698.57" y1="1567.10" x2="1698.57" y2="1509.46" style="stroke:#F0F0F0;stroke-width:8.64"/>
	<line x1="1698.57" y1="1480.70" x2="1698.57" y2="1423.06" style="stroke:#F0F0F0;stroke-width:8.64"/>
	<line x1="1698.57" y1="1394.30" x2="1698.57" y2="1336.66" style="stroke:#F0F0F0;stroke-width:8.64"/>
	<line x1="1698.57" y1="1307.90" x2="1698.57" y2="1250.25" style="stroke:#F0F0F0;stroke-width:8.64"/>
	<line x1="1698.57" y1="1221.50" x2="1698.57" y2="1163.85" style="stroke:#F0F0F0;stroke-width:8.64"/>
	<line x1="1698.57" y1="1135.10" x2="1698.57" y2="1077.45" style="stroke:#F0F0F0;stroke-width:8.64"/>
	<line x1="1698.57" y1="1048.70" x2="1698.57" y2="991.05" style="stroke:#F0F0F0;stroke-width:8.64"/>
	<line x1="1698.57" y1="962.30" x2="1698.57" y2="904.65" style="stroke:#F0F0F0;stroke-width:8.64"/>
	<line x1="1698.57" y1="875.89" x2="1698.57" y2="818.25" style="stroke:#F0F0F0;stroke-width:8.64"/>
	<line x1="1698.57" y1="789.49" x2="1698.57" y2="731.85" style="stroke:#F0F0F0;stroke-width:8.64"/>
	<line x1="1698.57" y1="703.09" x2="1698.57" y2="645.45" style="stroke:#F0F0F0;stroke-width:8.64"/>
	<line x1="1698.57" y1="616.69" x2="1698.57" y2="559.04" style="stroke:#F0F0F0;stroke-width:8.64"/>
	<line x1="1698.57" y1="530.29" x2="1698.57" y2="472.64" style="stroke:#F0F0F0;stroke-width:8.64"/>
	<line x1="1698.57" y1="443.89" x2="1698.57" y2="386.24" style="stroke:#F0F0F0;stroke-width:8.64"/>
	<line x1="1698.57" y1="357.49" x2="1698.57" y2="299.84" style="stroke:#F0F0F0;stroke-width:8.64"/>
	<line x1="2022.30" y1="2344.72" x2="2022.30" y2="2287.07" style="stroke:#F0F0F0;stroke-width:8.64"/>
	<line x1="2022.30" y1="2258.32" x2="2022.30" y2="2200.67" style="stroke:#F0F0F0;stroke-width:8.64"/>
	<line x1="2022.30" y1="2171.91" x2="2022.30" y2="2114.27" style="stroke:#F0F0F0;stroke-width:8.64"/>
	<line x1="2022.30" y1="2085.51" x2="2022.30" y2="2027.87" style="stroke:#F0F0F0;stroke-width:8.64"/>
	<line x1="2022.30" y1="1999.11" x2="2022.30" y2="1941.47" style="stroke:#F0F0F0;stroke-width:8.64"/>
	<line x1="2022.30" y1="1912.71" x2="2022.30" y2="1855.06" style="stroke:#F0F0F0;stroke-width:8.64"/>
	<line x1="2022.30" y1="1826.31" x2="2022.30" y2="1768.66" style="stroke:#F0F0F0;stroke-width:8.64"/>
	<line x1="2022.30" y1="1739.91" x2="2022.30" y2="1682.26" style="stroke:#F0F0F0;stroke-width:8.64"/>
	<line x1="2022.30" y1="1653.51" x2="2022.30" y2="1595.86" style="stroke:#F0F0F0;stroke-width:8.64"/>
	<line x1="2022.30" y1="1567.10" x2="2022.30" y2="1509.46" style="stroke:#F0F0F0;stroke-width:8.64"/>
	<line x1="2022.30" y1="1480.70" x2="2022.30" y2="1423.06" style="stroke:#F0F0F0;stroke-width:8.64"/>
	<line x1="2022.30" y1="1394.30" x2="2022.30" y2="1336.66" style="stroke:#F0F0F0;stroke-width:8.64"/>
	<line x1="2022.30" y1="1307.90" x2="2022.30" y2="1250.25" style="stroke:#F0F0F0;stroke-width:8.64"/>
	<line x1="2022.30" y1="1221.50" x2="2022.30" y2="1163.85" style="stroke:#F0F0F0;stroke-width:8.64"/>
	<line x1="2022.30" y1="1135.10" x2="2022.30" y2="1077.45" style="stroke:#F0F0F0;stroke-width:8.64"/>
	<line x1="2022.30" y1="1048.70" x2="2022.30" y2="991.05" style="stroke:#F0F0F0;stroke-width:8.64"/>
	<line x1="2022.30" y1="962.30" x2="2022.30" y2="904.65" style="stroke:#F0F0F0;stroke-width:8.64"/>
	<line x1="2022.30" y1="875.89" x2="2022.30" y2="818.25" style="stroke:#F0F0F0;stroke-width:8.64"/>
	<line x1="2022.30" y1="789.49" x2="2022.30" y2="731.85" style="stroke:#F0F0F0;stroke-width:8.64"/>
	<line x1="2022.30" y1="703.09" x2="2022.30" y2="645.45" style="stroke:#F0F0F0;stroke-width:8.64"/>
	<line x1="2022.30" y1="616.69" x2="2022.30" y2="559.04" style="stroke:#F0F0F0;stroke-width:8.64"/>
	<line x1="2022.30" y1="530.29" x2="2022.30" y2="472.64" style="stroke:#F0F0F0;stroke-width:8.64"/>
	<line x1="2022.30" y1="443.89" x2="2022.30" y2="386.24" style="stroke:#F0F0F0;stroke-width:8.64"/>
	<line x1="2022.30" y1="357.49" x2="2022.30" y2="299.84" style="stroke:#F0F0F0;stroke-width:8.64"/>
	<line x1="2346.03" y1="2344.72" x2="2346.03" y2="2287.07" style="stroke:#F0F0F0;stroke-width:8.64"/>
	<line x1="2346.03" y1="2258.32" x2="2346.03" y2="2200.67" style="stroke:#F0F0F0;stroke-width:8.64"/>
	<line x1="2346.03" y1="2171.91" x2="2346.03" y2="2114.27" style="stroke:#F0F0F0;stroke-width:8.64"/>
	<line x1="2346.03" y1="2085.51" x2="2346.03" y2="2027.87" style="stroke:#F0F0F0;stroke-width:8.64"/>
	<line x1="2346.03" y1="1999.11" x2="2346.03" y2="1941.47" style="stroke:#F0F0F0;stroke-width:8.64"/>
	<line x1="2346.03" y1="1912.71" x2="2346.03" y2="1855.06" style="stroke:#F0F0F0;stroke-width:8.64"/>
	<line x1="2346.03" y1="1826.31" x2="2346.03" y2="1768.66" style="stroke:#F0F0F0;stroke-width:8.64"/>
	<line x1="2346.03" y1="1739.91" x2="2346.03" y2="1682.26" style="stroke:#F0F0F0;stroke-width:8.64"/>
	<line x1="2346.03" y1="1653.51" x2="2346.03" y2="1595.86" style="stroke:#F0F0F0;stroke-width:8.64"/>
	<line x1="2346.03" y1="1567.10" x2="2346.03" y2="1509.46" style="stroke:#F0F0F0;stroke-width:8.64"/>
	<line x1="2346.03" y1="1480.70" x2="2346.03" y2="1423.06" style="stroke:#F0F0F0;stroke-width:8.64"/>
	<line x1="2346.03" y1="1394.30" x2="2346.03" y2="1336.66" style="stroke:#F0F0F0;stroke-width:8.64"/>
	<line x1="2346.03" y1="1307.90" x2="2346.03" y2="1250.25" style="stroke:#F0F0F0;stroke-width:8.64"/>
	<line x1="2346.03" y1="1221.50" x2="2346.03" y2="1163.85" style="stroke:#F0F0F0;stroke-width:8.64"/>
	<line x1="2346.03" y1="1135.10" x2="2346.03" y2="1077.45" style="stroke:#F0F0F0;stroke-width:8.64"/>
	<line x1="2346.03" y1="1048.70" x2="2346.03" y2="991.05" style="stroke:#F0F0F0;stroke-width:8.64"/>
	<line x1="2346.03" y1="962.30" x2="2346.03" y2="904.65" style="stroke:#F0F0F0;stroke-width:8.64"/>
	<line x1="2346.03" y1="875.89" x2="2346.03" y2="818.25" style="stroke:#F0F0F0;stroke-width:8.64"/>
	<line x1="2346.03" y1="789.49" x2="2346.03" y2="731.85" style="stroke:#F0F0F0;stroke-width:8.64"/>
	<line x1="2346.03" y1="703.09" x2="2346.03" y2="645.45" style="stroke:#F0F0F0;stroke-width:8.64"/>
	<line x1="2346.03" y1="616.69" x2="2346.03" y2="559.04" style="stroke:#F0F0F0;stroke-width:8.64"/>
	<line x1="2346.03" y1="530.29" x2="2346.03" y2="472.64" style="stroke:#F0F0F0;stroke-width:8.64"/>
	<line x1="2346.03" y1="443.89" x2="2346.03" y2="386.24" style="stroke:#F0F0F0;stroke-width:8.64"/>
	<line x1="2346.03" y1="357.49" x2="2346.03" y2="299.84" style="stroke:#F0F0F0;stroke-width:8.64"/>
	<line x1="2669.90" y1="2344.72" x2="2669.90" y2="2287.07" style="stroke:#F0F0F0;stroke-width:8.64"/>
	<line x1="2669.90" y1="2258.32" x2="2669.90" y2="2200.67" style="stroke:#F0F0F0;stroke-width:8.64"/>
	<line x1="2669.90" y1="2171.91" x2="2669.90" y2="2114.27" style="stroke:#F0F0F0;stroke-width:8.64"/>
	<line x1="2669.90" y1="2085.51" x2="2669.90" y2="2027.87" style="stroke:#F0F0F0;stroke-width:8.64"/>
	<line x1="2669.90" y1="1999.11" x2="2669.90" y2="1941.47" style="stroke:#F0F0F0;stroke-width:8.64"/>
	<line x1="2669.90" y1="1912.71" x2="2669.90" y2="1855.06" style="stroke:#F0F0F0;stroke-width:8.64"/>
	<line x1="2669.90" y1="1826.31" x2="2669.90" y2="1768.66" style="stroke:#F0F0F0;stroke-width:8.64"/>
	<line x1="2669.90" y1="1739.91" x2="2669.90" y2="1682.26" style="stroke:#F0F0F0;stroke-width:8.64"/>
	<line x1="2669.90" y1="1653.51" x2="2669.90" y2="1595.86" style="stroke:#F0F0F0;stroke-width:8.64"/>
	<line x1="2669.90" y1="1567.10" x2="2669.90" y2="1509.46" style="stroke:#F0F0F0;stroke-width:8.64"/>
	<line x1="2669.90" y1="1480.70" x2="2669.90" y2="1423.06" style="stroke:#F0F0F0;stroke-width:8.64"/>
	<line x1="2669.90" y1="1394.30" x2="2669.90" y2="1336.66" style="stroke:#F0F0F0;stroke-width:8.64"/>
	<line x1="2669.90" y1="1307.90" x2="2669.90" y2="1250.25" style="stroke:#F0F0F0;stroke-width:8.64"/>
	<line x1="2669.90" y1="1221.50" x2="2669.90" y2="1163.85" style="stroke:#F0F0F0;stroke-width:8.64"/>
	<line x1="2669.90" y1="1135.10" x2="2669.90" y2="1077.45" style="stroke:#F0F0F0;stroke-width:8.64"/>
	<line x1="2669.90" y1="1048.70" x2="2669.90" y2="991.05" style="stroke:#F0F0F0;stroke-width:8.64"/>
	<line x1="2669.90" y1="962.30" x2="2669.90" y2="904.65" style="stroke:#F0F0F0;stroke-width:8.64"/>
	<line x1="2669.90" y1="875.89" x2="2669.90" y2="818.25" style="stroke:#F0F0F0;stroke-width:8.64"/>
	<line x1="2669.90" y1="789.49" x2="2669.90" y2="731.85" style="stroke:#F0F0F0;stroke-width:8.64"/>
	<line x1="2669.90" y1="703.09" x2="2669.90" y2="645.45" style="stroke:#F0F0F0;stroke-width:8.64"/>
	<line x1="2669.90" y1="616.69" x2="2669.90" y2="559.04" style="stroke:#F0F0F0;stroke-width:8.64"/>
	<line x1="2669.90" y1="530.29" x2="2669.90" y2="472.64" style="stroke:#F0F0F0;stroke-width:8.64"/>
	<line x1="2669.90" y1="443.89" x2="2669.90" y2="386.24" style="stroke:#F0F0F0;stroke-width:8.64"/>
	<line x1="2669.90" y1="357.49" x2="2669.90" y2="299.84" style="stroke:#F0F0F0;stroke-width:8.64"/>
	<line x1="2993.63" y1="2344.72" x2="2993.63" y2="2287.07" style="stroke:#F0F0F0;stroke-width:8.64"/>
	<line x1="2993.63" y1="2258.32" x2="2993.63" y2="2200.67" style="stroke:#F0F0F0;stroke-width:8.64"/>
	<line x1="2993.63" y1="2171.91" x2="2993.63" y2="2114.27" style="stroke:#F0F0F0;stroke-width:8.64"/>
	<line x1="2993.63" y1="2085.51" x2="2993.63" y2="2027.87" style="stroke:#F0F0F0;stroke-width:8.64"/>
	<line x1="2993.63" y1="1999.11" x2="2993.63" y2="1941.47" style="stroke:#F0F0F0;stroke-width:8.64"/>
	<line x1="2993.63" y1="1912.71" x2="2993.63" y2="1855.06" style="stroke:#F0F0F0;stroke-width:8.64"/>
	<line x1="2993.63" y1="1826.31" x2="2993.63" y2="1768.66" style="stroke:#F0F0F0;stroke-width:8.64"/>
	<line x1="2993.63" y1="1739.91" x2="2993.63" y2="1682.26" style="stroke:#F0F0F0;stroke-width:8.64"/>
	<line x1="2993.63" y1="1653.51" x2="2993.63" y2="1595.86" style="stroke:#F0F0F0;stroke-width:8.64"/>
	<line x1="2993.63" y1="1567.10" x2="2993.63" y2="1509.46" style="stroke:#F0F0F0;stroke-width:8.64"/>
	<line x1="2993.63" y1="1480.70" x2="2993.63" y2="1423.06" style="stroke:#F0F0F0;stroke-width:8.64"/>
	<line x1="2993.63" y1="1394.30" x2="2993.63" y2="1336.66" style="stroke:#F0F0F0;stroke-width:8.64"/>
	<line x1="2993.63" y1="1307.90" x2="2993.63" y2="1250.25" style="stroke:#F0F0F0;stroke-width:8.64"/>
	<line x1="2993.63" y1="1221.50" x2="2993.63" y2="1163.85" style="stroke:#F0F0F0;stroke-width:8.64"/>
	<line x1="2993.63" y1="1135.10" x2="2993.63" y2="1077.45" style="stroke:#F0F0F0;stroke-width:8.64"/>
	<line x1="2993.63" y1="1048.70" x2="2993.63" y2="991.05" style="stroke:#F0F0F0;stroke-width:8.64"/>
	<line x1="2993.63" y1="962.30" x2="2993.63" y2="904.65" style="stroke:#F0F0F0;stroke-width:8.64"/>
	<line x1="2993.63" y1="875.89" x2="2993.63" y2="818.25" style="stroke:#F0F0F0;stroke-width:8.64"/>
	<line x1="2993.63" y1="789.49" x2="2993.63" y2="731.85" style="stroke:#F0F0F0;stroke-width:8.64"/>
	<line x1="2993.63" y1="703.09" x2="2993.63" y2="645.45" style="stroke:#F0F0F0;stroke-width:8.64"/>
	<line x1="2993.63" y1="616.69" x2="2993.63" y2="559.04" style="stroke:#F0F0F0;stroke-width:8.64"/>
	<line x1="2993.63" y1="530.29" x2="2993.63" y2="472.64" style="stroke:#F0F0F0;stroke-width:8.64"/>
	<line x1="2993.63" y1="443.89" x2="2993.63" y2="386.24" style="stroke:#F0F0F0;stroke-width:8.64"/>
	<line x1="2993.63" y1="357.49" x2="2993.63" y2="299.84" style="stroke:#F0F0F0;stroke-width:8.64"/>
	<line x1="3317.36" y1="2344.72" x2="3317.36" y2="2287.07" style="stroke:#F0F0F0;stroke-width:8.64"/>
	<line x1="3317.36" y1="2258.32" x2="3317.36" y2="2200.67" style="stroke:#F0F0F0;stroke-width:8.64"/>
	<line x1="3317.36" y1="2171.91" x2="3317.36" y2="2114.27" style="stroke:#F0F0F0;stroke-width:8.64"/>
	<line x1="3317.36" y1="2085.51" x2="3317.36" y2="2027.87" style="stroke:#F0F0F0;stroke-width:8.64"/>
	<line x1="3317.36" y1="1999.11" x2="3317.36" y2="1941.47" style="stroke:#F0F0F0;stroke-width:8.64"/>
	<line x1="3317.36" y1="1912.71" x2="3317.36" y2="1855.06" style="stroke:#F0F0F0;stroke-width:8.64"/>
	<line x1="3317.36" y1="1826.31" x2="3317.36" y2="1768.66" style="stroke:#F0F0F0;stroke-width:8.64"/>
	<line x1="3317.36" y1="1739.91" x2="3317.36" y2="1682.26" style="stroke:#F0F0F0;stroke-width:8.64"/>
	<line x1="3317.36" y1="1653.51" x2="3317.36" y2="1595.86" style="stroke:#F0F0F0;stroke-width:8.64"/>
	<line x1="3317.36" y1="1567.10" x2="3317.36" y2="1509.46" style="stroke:#F0F0F0;stroke-width:8.64"/>
	<line x1="3317.36" y1="1480.70" x2="3317.36" y2="1423.06" style="stroke:#F0F0F0;stroke-width:8.64"/>
	<line x1="3317.36" y1="1394.30" x2="3317.36" y2="1336.66" style="stroke:#F0F0F0;stroke-width:8.64"/>
	<line x1="3317.36" y1="1307.90" x2="3317.36" y2="1250.25" style="stroke:#F0F0F0;stroke-width:8.64"/>
	<line x1="3317.36" y1="1221.50" x2="3317.36" y2="1163.85" style="stroke:#F0F0F0;stroke-width:8.64"/>
	<line x1="3317.36" y1="1135.10" x2="3317.36" y2="1077.45" style="stroke:#F0F0F0;stroke-width:8.64"/>
	<line x1="3317.36" y1="1048.70" x2="3317.36" y2="991.05" style="stroke:#F0F0F0;stroke-width:8.64"/>
	<line x1="3317.36" y1="962.30" x2="3317.36" y2="904.65" style="stroke:#F0F0F0;stroke-width:8.64"/>
	<line x1="3317.36" y1="875.89" x2="3317.36" y2="818.25" style="stroke:#F0F0F0;stroke-width:8.64"/>
	<line x1="3317.36" y1="789.49" x2="3317.36" y2="731.85" style="stroke:#F0F0F0;stroke-width:8.64"/>
	<line x1="3317.36" y1="703.09" x2="3317.36" y2="645.45" style="stroke:#F0F0F0;stroke-width:8.64"/>
	<line x1="3317.36" y1="616.69" x2="3317.36" y2="559.04" style="stroke:#F0F0F0;stroke-width:8.64"/>
	<line x1="3317.36" y1="530.29" x2="3317.36" y2="472.64" style="stroke:#F0F0F0;stroke-width:8.64"/>
	<line x1="3317.36" y1="443.89" x2="3317.36" y2="386.24" style="stroke:#F0F0F0;stroke-width:8.64"/>
	<line x1="3317.36" y1="357.49" x2="3317.36" y2="299.84" style="stroke:#F0F0F0;stroke-width:8.64"/>
	<circle cx="2563.79" cy="1276.58" r="19.30" style="fill:#1A85FF"/>
	<circle cx="2563.79" cy="1276.58" r="14.99" style="fill:none;stroke:#1A85FF;stroke-width:8.64"/>
	<text x="2598.75" y="1304.59" style="font-family:'Helvetica';font-size:79.92px;fill:#1A85ff">GMA</text>
	<circle cx="2265.44" cy="1352.99" r="19.30" style="fill:#1A85FF"/>
	<circle cx="2265.44" cy="1352.99" r="14.99" style="fill:none;stroke:#1A85FF;stroke-width:8.64"/>
	<text x="2300.40" y="1381.00" style="font-family:'Helvetica';font-size:79.92px;fill:#1A85ff">PDM</text>
	<circle cx="2556.36" cy="1326.94" r="19.30" style="fill:#1A85FF"/>
	<circle cx="2556.36" cy="1326.94" r="14.99" style="fill:none;stroke:#1A85FF;stroke-width:8.64"/>
	<text x="2591.32" y="1354.94" style="font-family:'Helvetica';font-size:79.92px;fill:#1A85ff">SM</text>
	<circle cx="2265.17" cy="1507.70" r="19.30" style="fill:#1A85FF"/>
	<circle cx="2265.17" cy="1507.70" r="14.99" style="fill:none;stroke:#1A85FF;stroke-width:8.64"/>
	<text x="2300.13" y="1535.71" style="font-family:'Helvetica';font-size:79.92px;fill:#1A85ff">MPS</text>
	<circle cx="2487.11" cy="1176.00" r="19.30" style="fill:#1A85FF"/>
	<circle cx="2487.11" cy="1176.00" r="14.99" style="fill:none;stroke:#1A85FF;stroke-width:8.64"/>
	<text x="2522.07" y="1204.01" style="font-family:'Helvetica';font-size:79.92px;fill:#1A85ff">OMO</text>
	<circle cx="2446.61" cy="1142.12" r="19.30" style="fill:#1A85FF"/>
	<circle cx="2446.61" cy="1142.12" r="14.99" style="fill:none;stroke:#1A85FF;stroke-width:8.64"/>
	<text x="2481.57" y="1170.12" style="font-family:'Helvetica';font-size:79.92px;fill:#1A85ff">SET</text>
	<circle cx="2605.64" cy="1432.37" r="19.30" style="fill:#1A85FF"/>
	<circle cx="2605.64" cy="1432.37" r="14.99" style="fill:none;stroke:#1A85FF;stroke-width:8.64"/>
	<text x="2640.60" y="1460.38" style="font-family:'Helvetica';font-size:79.92px;fill:#1A85ff">HP</text>
	<circle cx="3108.92" cy="1794.72" r="19.30" style="fill:#1A85FF"/>
	<circle cx="3108.92" cy="1794.72" r="14.99" style="fill:none;stroke:#1A85FF;stroke-width:8.64"/>
	<text x="3143.88" y="1822.72" style="font-family:'Helvetica';font-size:79.92px;fill:#1A85ff">TPE</text>
	<circle cx="2448.50" cy="1510.13" r="19.30" style="fill:#1A85FF"/>
	<circle cx="2448.50" cy="1510.13" r="14.99" style="fill:none;stroke:#1A85FF;stroke-width:8.64"/>
	<text x="2483.46" y="1538.14" style="font-family:'Helvetica';font-size:79.92px;fill:#1A85ff">API</text>
	<circle cx="2618.32" cy="1641.63" r="19.30" style="fill:#1A85FF"/>
	<circle cx="2618.32" cy="1641.63" r="14.99" style="fill:none;stroke:#1A85FF;stroke-width:8.64"/>
	<text x="2653.29" y="1669.63" style="font-family:'Helvetica';font-size:79.92px;fill:#1A85ff">APH</text>
	<circle cx="2716.34" cy="1264.83" r="19.30" style="fill:#1A85FF"/>
	<circle cx="2716.34" cy="1264.83" r="14.99" style="fill:none;stroke:#1A85FF;stroke-width:8.64"/>
	<text x="2751.30" y="1292.84" style="font-family:'Helvetica';font-size:79.92px;fill:#1A85ff">APB</text>
	<circle cx="2367.50" cy="1131.59" r="19.30" style="fill:#1A85FF"/>
	<circle cx="2367.50" cy="1131.59" r="14.99" style="fill:none;stroke:#1A85FF;stroke-width:8.64"/>
	<text x="2402.46" y="1159.59" style="font-family:'Helvetica';font-size:79.92px;fill:#1A85ff">AOA</text>
	<circle cx="2476.44" cy="1385.53" r="19.30" style="fill:#1A85FF"/>
	<circle cx="2476.44" cy="1385.53" r="14.99" style="fill:none;stroke:#1A85FF;stroke-width:8.64"/>
	<text x="2511.41" y="1413.53" style="font-family:'Helvetica';font-size:79.92px;fill:#1A85ff">NCC</text>
	<circle cx="2429.73" cy="1087.44" r="19.30" style="fill:#1A85FF"/>
	<circle cx="2429.73" cy="1087.44" r="14.99" style="fill:none;stroke:#1A85FF;stroke-width:8.64"/>
	<text x="2464.70" y="1115.45" style="font-family:'Helvetica';font-size:79.92px;fill:#1A85ff">FRC</text>
	<circle cx="2400.17" cy="1310.33" r="19.30" style="fill:#1A85FF"/>
	<circle cx="2400.17" cy="1310.33" r="14.99" style="fill:none;stroke:#1A85FF;stroke-width:8.64"/>
	<text x="2435.13" y="1338.34" style="font-family:'Helvetica';font-size:79.92px;fill:#1A85ff">OCW</text>
	<circle cx="2211.57" cy="1051.13" r="19.30" style="fill:#1A85FF"/>
	<circle cx="2211.57" cy="1051.13" r="14.99" style="fill:none;stroke:#1A85FF;stroke-width:8.64"/>
	<text x="2246.54" y="1079.13" style="font-family:'Helvetica';font-size:79.92px;fill:#1A85ff">SDC</text>
	<circle cx="2507.90" cy="1261.32" r="19.30" style="fill:#1A85FF"/>
	<circle cx="2507.90" cy="1261.32" r="14.99" style="fill:none;stroke:#1A85FF;stroke-width:8.64"/>
	<text x="2542.86" y="1289.33" style="font-family:'Helvetica';font-size:79.92px;fill:#1A85ff">SEC</text>
	<circle cx="1993.95" cy="1449.79" r="19.30" style="fill:#1A85FF"/>
	<circle cx="1993.95" cy="1449.79" r="14.99" style="fill:none;stroke:#1A85FF;stroke-width:8.64"/>
	<text x="2028.92" y="1477.79" style="font-family:'Helvetica';font-size:79.92px;fill:#1A85ff">SMC</text>
	<circle cx="1883.93" cy="1448.30" r="19.30" style="fill:#1A85FF"/>
	<circle cx="1883.93" cy="1448.30" r="14.99" style="fill:none;stroke:#1A85FF;stroke-width:8.64"/>
	<text x="1918.89" y="1476.31" style="font-family:'Helvetica';font-size:79.92px;fill:#1A85ff">SMM</text>
	<circle cx="2072.39" cy="1177.35" r="19.30" style="fill:#1A85FF"/>
	<circle cx="2072.39" cy="1177.35" r="14.99" style="fill:none;stroke:#1A85FF;stroke-width:8.64"/>
	<text x="2107.35" y="1205.36" style="font-family:'Helvetica';font-size:79.92px;fill:#1A85ff">SMO</text>
	<circle cx="2424.74" cy="1111.20" r="19.30" style="fill:#1A85FF"/>
	<circle cx="2424.74" cy="1111.20" r="14.99" style="fill:none;stroke:#1A85FF;stroke-width:8.64"/>
	<text x="2459.70" y="1139.21" style="font-family:'Helvetica';font-size:79.92px;fill:#1A85ff">PSP</text>
	<circle cx="2318.90" cy="1011.30" r="19.30" style="fill:#1A85FF"/>
	<circle cx="2318.90" cy="1011.30" r="14.99" style="fill:none;stroke:#1A85FF;stroke-width:8.64"/>
	<text x="2353.86" y="1039.31" style="font-family:'Helvetica';font-size:79.92px;fill:#1A85ff">CW</text>
	<circle cx="2353.05" cy="1078.80" r="19.30" style="fill:#1A85FF"/>
	<circle cx="2353.05" cy="1078.80" r="14.99" style="fill:none;stroke:#1A85FF;stroke-width:8.64"/>
	<text x="2388.02" y="1106.81" style="font-family:'Helvetica';font-size:79.92px;fill:#1A85ff">PSW</text>
	<circle cx="2273.94" cy="1111.74" r="19.30" style="fill:#1A85FF"/>
	<circle cx="2273.94" cy="1111.74" r="14.99" style="fill:none;stroke:#1A85FF;stroke-width:8.64"/>
	<text x="2308.91" y="1139.75" style="font-family:'Helvetica';font-size:79.92px;fill:#1A85ff">HW</text>
	<circle cx="2445.93" cy="1254.17" r="19.30" style="fill:#1A85FF"/>
	<circle cx="2445.93" cy="1254.17" r="14.99" style="fill:none;stroke:#1A85FF;stroke-width:8.64"/>
	<text x="2480.90" y="1282.18" style="font-family:'Helvetica';font-size:79.92px;fill:#1A85ff">CCW</text>
	<circle cx="2469.42" cy="1091.76" r="19.30" style="fill:#1A85FF"/>
	<circle cx="2469.42" cy="1091.76" r="14.99" style="fill:none;stroke:#1A85FF;stroke-width:8.64"/>
	<text x="2504.39" y="1119.77" style="font-family:'Helvetica';font-size:79.92px;fill:#1A85ff">BSR</text>
	<circle cx="2156.36" cy="1625.83" r="19.30" style="fill:#1A85FF"/>
	<circle cx="2156.36" cy="1625.83" r="14.99" style="fill:none;stroke:#1A85FF;stroke-width:8.64"/>
	<text x="2191.32" y="1653.84" style="font-family:'Helvetica';font-size:79.92px;fill:#1A85ff">SW</text>
	<circle cx="1662.80" cy="1705.35" r="19.30" style="fill:#1A85FF"/>
	<circle cx="1662.80" cy="1705.35" r="14.99" style="fill:none;stroke:#1A85FF;stroke-width:8.64"/>
	<text x="1697.76" y="1733.35" style="font-family:'Helvetica';font-size:79.92px;fill:#1A85ff">PMO</text>
	<circle cx="2004.75" cy="1294.40" r="19.30" style="fill:#1A85FF"/>
	<circle cx="2004.75" cy="1294.40" r="14.99" style="fill:none;stroke:#1A85FF;stroke-width:8.64"/>
	<text x="2039.72" y="1322.41" style="font-family:'Helvetica';font-size:79.92px;fill:#1A85ff">TO</text>
	<circle cx="2173.36" cy="1117.68" r="19.30" style="fill:#1A85FF"/>
	<circle cx="2173.36" cy="1117.68" r="14.99" style="fill:none;stroke:#1A85FF;stroke-width:8.64"/>
	<text x="2208.33" y="1145.69" style="font-family:'Helvetica';font-size:79.92px;fill:#1A85ff">GL</text>
	<circle cx="2019.33" cy="1479.22" r="19.30" style="fill:#1A85FF"/>
	<circle cx="2019.33" cy="1479.22" r="14.99" style="fill:none;stroke:#1A85FF;stroke-width:8.64"/>
	<text x="2054.30" y="1507.22" style="font-family:'Helvetica';font-size:79.92px;fill:#1A85ff">RWS</text>
	<line x1="1311.39" y1="2344.72" x2="1311.39" y2="275.40" style="stroke:#000000;stroke-width:5.76"/>
	<line x1="1311.39" y1="2281.27" x2="1271.43" y2="2281.27" style="stroke:#000000;stroke-width:5.76"/>
	<text x="1251.45" y="2316.31" style="font-family:'Helvetica';font-size:100.04px;fill:#000000" text-anchor="end">-.3</text>
	<line x1="1311.39" y1="1957.53" x2="1271.43" y2="1957.53" style="stroke:#000000;stroke-width:5.76"/>
	<text x="1251.45" y="1992.58" style="font-family:'Helvetica';font-size:100.04px;fill:#000000" text-anchor="end">-.2</text>
	<line x1="1311.39" y1="1633.80" x2="1271.43" y2="1633.80" style="stroke:#000000;stroke-width:5.76"/>
	<text x="1251.45" y="1668.84" style="font-family:'Helvetica';font-size:100.04px;fill:#000000" text-anchor="end">-.1</text>
	<line x1="1311.39" y1="1310.06" x2="1271.43" y2="1310.06" style="stroke:#000000;stroke-width:5.76"/>
	<text x="1251.45" y="1345.11" style="font-family:'Helvetica';font-size:100.04px;fill:#000000" text-anchor="end">0</text>
	<line x1="1311.39" y1="986.19" x2="1271.43" y2="986.19" style="stroke:#000000;stroke-width:5.76"/>
	<text x="1251.45" y="1021.24" style="font-family:'Helvetica';font-size:100.04px;fill:#000000" text-anchor="end">.1</text>
	<line x1="1311.39" y1="662.46" x2="1271.43" y2="662.46" style="stroke:#000000;stroke-width:5.76"/>
	<text x="1251.45" y="697.50" style="font-family:'Helvetica';font-size:100.04px;fill:#000000" text-anchor="end">.2</text>
	<line x1="1311.39" y1="338.72" x2="1271.43" y2="338.72" style="stroke:#000000;stroke-width:5.76"/>
	<text x="1251.45" y="373.77" style="font-family:'Helvetica';font-size:100.04px;fill:#000000" text-anchor="end">.3</text>
	<text x="1029.13" y="1310.06" style="font-family:'Helvetica';font-size:100.04px;fill:#000000" transform="rotate(-90 1029.13,1310.06)" text-anchor="middle">Dimension 3</text>
	<line x1="1311.39" y1="2344.72" x2="3380.67" y2="2344.72" style="stroke:#000000;stroke-width:5.76"/>
	<line x1="1374.84" y1="2344.72" x2="1374.84" y2="2384.68" style="stroke:#000000;stroke-width:5.76"/>
	<text x="1374.84" y="2474.62" style="font-family:'Helvetica';font-size:100.04px;fill:#000000" text-anchor="middle">-.3</text>
	<line x1="1698.57" y1="2344.72" x2="1698.57" y2="2384.68" style="stroke:#000000;stroke-width:5.76"/>
	<text x="1698.57" y="2474.62" style="font-family:'Helvetica';font-size:100.04px;fill:#000000" text-anchor="middle">-.2</text>
	<line x1="2022.30" y1="2344.72" x2="2022.30" y2="2384.68" style="stroke:#000000;stroke-width:5.76"/>
	<text x="2022.30" y="2474.62" style="font-family:'Helvetica';font-size:100.04px;fill:#000000" text-anchor="middle">-.1</text>
	<line x1="2346.03" y1="2344.72" x2="2346.03" y2="2384.68" style="stroke:#000000;stroke-width:5.76"/>
	<text x="2346.03" y="2474.62" style="font-family:'Helvetica';font-size:100.04px;fill:#000000" text-anchor="middle">0</text>
	<line x1="2669.90" y1="2344.72" x2="2669.90" y2="2384.68" style="stroke:#000000;stroke-width:5.76"/>
	<text x="2669.90" y="2474.62" style="font-family:'Helvetica';font-size:100.04px;fill:#000000" text-anchor="middle">.1</text>
	<line x1="2993.63" y1="2344.72" x2="2993.63" y2="2384.68" style="stroke:#000000;stroke-width:5.76"/>
	<text x="2993.63" y="2474.62" style="font-family:'Helvetica';font-size:100.04px;fill:#000000" text-anchor="middle">.2</text>
	<line x1="3317.36" y1="2344.72" x2="3317.36" y2="2384.68" style="stroke:#000000;stroke-width:5.76"/>
	<text x="3317.36" y="2474.62" style="font-family:'Helvetica';font-size:100.04px;fill:#000000" text-anchor="middle">.3</text>
	<text x="2346.03" y="2614.61" style="font-family:'Helvetica';font-size:100.04px;fill:#000000" text-anchor="middle">Dimension 1</text>
	<text x="1328.67" y="2737.83" style="font-family:'Helvetica';font-size:79.92px;fill:#000000">Classical MDS</text>
	<text x="2160.00" y="216.06" style="font-family:'Helvetica';font-size:140.00px;fill:#000000" text-anchor="middle">MDS configuration</text>
</svg>