<svg xmlns="http://www.w3.org/2000/svg" xmlns:xlink="http://www.w3.org/1999/xlink" version="1.1" width="7.500in" height="4.500in" viewBox="0 0 5400 3240">
	<desc>Stata Graph - plot2</desc>
	<rect x="0" y="0" width="5400" height="3240" style="fill:#FFFFFF;stroke:none"/>
	<rect x="0.00" y="0.00" width="5400.00" height="3240.00" style="fill:#FFFFFF"/>
	<rect x="3.24" y="3.24" width="5393.52" height="3233.52" style="fill:none;stroke:#FFFFFF;stroke-width:6.48"/>
	<rect x="620.83" y="293.96" width="4665.77" height="2472.69" style="fill:#FFFFFF"/>
	<rect x="624.07" y="297.20" width="4659.29" height="2466.21" style="fill:none;stroke:#FFFFFF;stroke-width:6.48"/>
	<line x1="620.83" y1="2695.28" x2="685.63" y2="2695.28" style="stroke:#F0F0F0;stroke-width:9.72"/>
	<line x1="718.03" y1="2695.28" x2="782.83" y2="2695.28" style="stroke:#F0F0F0;stroke-width:9.72"/>
	<line x1="815.23" y1="2695.28" x2="880.03" y2="2695.28" style="stroke:#F0F0F0;stroke-width:9.72"/>
	<line x1="912.43" y1="2695.28" x2="977.23" y2="2695.28" style="stroke:#F0F0F0;stroke-width:9.72"/>
	<line x1="1009.63" y1="2695.28" x2="1074.43" y2="2695.28" style="stroke:#F0F0F0;stroke-width:9.72"/>
	<line x1="1106.83" y1="2695.28" x2="1171.63" y2="2695.28" style="stroke:#F0F0F0;stroke-width:9.72"/>
	<line x1="1204.03" y1="2695.28" x2="1268.83" y2="2695.28" style="stroke:#F0F0F0;stroke-width:9.72"/>
	<line x1="1301.23" y1="2695.28" x2="1366.03" y2="2695.28" style="stroke:#F0F0F0;stroke-width:9.72"/>
	<line x1="1398.43" y1="2695.28" x2="1463.23" y2="2695.28" style="stroke:#F0F0F0;stroke-width:9.72"/>
	<line x1="1495.63" y1="2695.28" x2="1560.43" y2="2695.28" style="stroke:#F0F0F0;stroke-width:9.72"/>
	<line x1="1592.83" y1="2695.28" x2="1657.63" y2="2695.28" style="stroke:#F0F0F0;stroke-width:9.72"/>
	<line x1="1690.03" y1="2695.28" x2="1754.83" y2="2695.28" style="stroke:#F0F0F0;stroke-width:9.72"/>
	<line x1="1787.23" y1="2695.28" x2="1852.03" y2="2695.28" style="stroke:#F0F0F0;stroke-width:9.72"/>
	<line x1="1884.43" y1="2695.28" x2="1949.23" y2="2695.28" style="stroke:#F0F0F0;stroke-width:9.72"/>
	<line x1="1981.63" y1="2695.28" x2="2046.43" y2="2695.28" style="stroke:#F0F0F0;stroke-width:9.72"/>
	<line x1="2078.83" y1="2695.28" x2="2143.63" y2="2695.28" style="stroke:#F0F0F0;stroke-width:9.72"/>
	<line x1="2176.03" y1="2695.28" x2="2240.83" y2="2695.28" style="stroke:#F0F0F0;stroke-width:9.72"/>
	<line x1="2273.23" y1="2695.28" x2="2338.03" y2="2695.28" style="stroke:#F0F0F0;stroke-width:9.72"/>
	<line x1="2370.43" y1="2695.28" x2="2435.23" y2="2695.28" style="stroke:#F0F0F0;stroke-width:9.72"/>
	<line x1="2467.63" y1="2695.28" x2="2532.43" y2="2695.28" style="stroke:#F0F0F0;stroke-width:9.72"/>
	<line x1="2564.83" y1="2695.28" x2="2629.63" y2="2695.28" style="stroke:#F0F0F0;stroke-width:9.72"/>
	<line x1="2662.03" y1="2695.28" x2="2726.83" y2="2695.28" style="stroke:#F0F0F0;stroke-width:9.72"/>
	<line x1="2759.23" y1="2695.28" x2="2824.03" y2="2695.28" style="stroke:#F0F0F0;stroke-width:9.72"/>
	<line x1="2856.43" y1="2695.28" x2="2921.23" y2="2695.28" style="stroke:#F0F0F0;stroke-width:9.72"/>
	<line x1="2953.63" y1="2695.28" x2="3018.43" y2="2695.28" style="stroke:#F0F0F0;stroke-width:9.72"/>
	<line x1="3050.83" y1="2695.28" x2="3115.63" y2="2695.28" style="stroke:#F0F0F0;stroke-width:9.72"/>
	<line x1="3148.03" y1="2695.28" x2="3212.83" y2="2695.28" style="stroke:#F0F0F0;stroke-width:9.72"/>
	<line x1="3245.23" y1="2695.28" x2="3310.03" y2="2695.28" style="stroke:#F0F0F0;stroke-width:9.72"/>
	<line x1="3342.43" y1="2695.28" x2="3407.23" y2="2695.28" style="stroke:#F0F0F0;stroke-width:9.72"/>
	<line x1="3439.63" y1="2695.28" x2="3504.43" y2="2695.28" style="stroke:#F0F0F0;stroke-width:9.72"/>
	<line x1="3536.83" y1="2695.28" x2="3601.63" y2="2695.28" style="stroke:#F0F0F0;stroke-width:9.72"/>
	<line x1="3634.03" y1="2695.28" x2="3698.83" y2="2695.28" style="stroke:#F0F0F0;stroke-width:9.72"/>
	<line x1="3731.23" y1="2695.28" x2="3796.03" y2="2695.28" style="stroke:#F0F0F0;stroke-width:9.72"/>
	<line x1="3828.43" y1="2695.28" x2="3893.23" y2="2695.28" style="stroke:#F0F0F0;stroke-width:9.72"/>
	<line x1="3925.63" y1="2695.28" x2="3990.43" y2="2695.28" style="stroke:#F0F0F0;stroke-width:9.72"/>
	<line x1="4022.83" y1="2695.28" x2="4087.63" y2="2695.28" style="stroke:#F0F0F0;stroke-width:9.72"/>
	<line x1="4120.03" y1="2695.28" x2="4184.83" y2="2695.28" style="stroke:#F0F0F0;stroke-width:9.72"/>
	<line x1="4217.23" y1="2695.28" x2="4282.03" y2="2695.28" style="stroke:#F0F0F0;stroke-width:9.72"/>
	<line x1="4314.43" y1="2695.28" x2="4379.23" y2="2695.28" style="stroke:#F0F0F0;stroke-width:9.72"/>
	<line x1="4411.63" y1="2695.28" x2="4476.43" y2="2695.28" style="stroke:#F0F0F0;stroke-width:9.72"/>
	<line x1="4508.83" y1="2695.28" x2="4573.63" y2="2695.28" style="stroke:#F0F0F0;stroke-width:9.72"/>
	<line x1="4606.03" y1="2695.28" x2="4670.83" y2="2695.28" style="stroke:#F0F0F0;stroke-width:9.72"/>
	<line x1="4703.23" y1="2695.28" x2="4768.03" y2="2695.28" style="stroke:#F0F0F0;stroke-width:9.72"/>
	<line x1="4800.43" y1="2695.28" x2="4865.23" y2="2695.28" style="stroke:#F0F0F0;stroke-width:9.72"/>
	<line x1="4897.63" y1="2695.28" x2="4962.43" y2="2695.28" style="stroke:#F0F0F0;stroke-width:9.72"/>
	<line x1="4994.83" y1="2695.28" x2="5059.63" y2="2695.28" style="stroke:#F0F0F0;stroke-width:9.72"/>
	<line x1="5092.03" y1="2695.28" x2="5156.83" y2="2695.28" style="stroke:#F0F0F0;stroke-width:9.72"/>
	<line x1="5189.23" y1="2695.28" x2="5254.03" y2="2695.28" style="stroke:#F0F0F0;stroke-width:9.72"/>
	<line x1="5286.43" y1="2695.28" x2="5286.60" y2="2695.28" style="stroke:#F0F0F0;stroke-width:9.72"/>
	<line x1="620.83" y1="1962.39" x2="685.63" y2="1962.39" style="stroke:#F0F0F0;stroke-width:9.72"/>
	<line x1="718.03" y1="1962.39" x2="782.83" y2="1962.39" style="stroke:#F0F0F0;stroke-width:9.72"/>
	<line x1="815.23" y1="1962.39" x2="880.03" y2="1962.39" style="stroke:#F0F0F0;stroke-width:9.72"/>
	<line x1="912.43" y1="1962.39" x2="977.23" y2="1962.39" style="stroke:#F0F0F0;stroke-width:9.72"/>
	<line x1="1009.63" y1="1962.39" x2="1074.43" y2="1962.39" style="stroke:#F0F0F0;stroke-width:9.72"/>
	<line x1="1106.83" y1="1962.39" x2="1171.63" y2="1962.39" style="stroke:#F0F0F0;stroke-width:9.72"/>
	<line x1="1204.03" y1="1962.39" x2="1268.83" y2="1962.39" style="stroke:#F0F0F0;stroke-width:9.72"/>
	<line x1="1301.23" y1="1962.39" x2="1366.03" y2="1962.39" style="stroke:#F0F0F0;stroke-width:9.72"/>
	<line x1="1398.43" y1="1962.39" x2="1463.23" y2="1962.39" style="stroke:#F0F0F0;stroke-width:9.72"/>
	<line x1="1495.63" y1="1962.39" x2="1560.43" y2="1962.39" style="stroke:#F0F0F0;stroke-width:9.72"/>
	<line x1="1592.83" y1="1962.39" x2="1657.63" y2="1962.39" style="stroke:#F0F0F0;stroke-width:9.72"/>
	<line x1="1690.03" y1="1962.39" x2="1754.83" y2="1962.39" style="stroke:#F0F0F0;stroke-width:9.72"/>
	<line x1="1787.23" y1="1962.39" x2="1852.03" y2="1962.39" style="stroke:#F0F0F0;stroke-width:9.72"/>
	<line x1="1884.43" y1="1962.39" x2="1949.23" y2="1962.39" style="stroke:#F0F0F0;stroke-width:9.72"/>
	<line x1="1981.63" y1="1962.39" x2="2046.43" y2="1962.39" style="stroke:#F0F0F0;stroke-width:9.72"/>
	<line x1="2078.83" y1="1962.39" x2="2143.63" y2="1962.39" style="stroke:#F0F0F0;stroke-width:9.72"/>
	<line x1="2176.03" y1="1962.39" x2="2240.83" y2="1962.39" style="stroke:#F0F0F0;stroke-width:9.72"/>
	<line x1="2273.23" y1="1962.39" x2="2338.03" y2="1962.39" style="stroke:#F0F0F0;stroke-width:9.72"/>
	<line x1="2370.43" y1="1962.39" x2="2435.23" y2="1962.39" style="stroke:#F0F0F0;stroke-width:9.72"/>
	<line x1="2467.63" y1="1962.39" x2="2532.43" y2="1962.39" style="stroke:#F0F0F0;stroke-width:9.72"/>
	<line x1="2564.83" y1="1962.39" x2="2629.63" y2="1962.39" style="stroke:#F0F0F0;stroke-width:9.72"/>
	<line x1="2662.03" y1="1962.39" x2="2726.83" y2="1962.39" style="stroke:#F0F0F0;stroke-width:9.72"/>
	<line x1="2759.23" y1="1962.39" x2="2824.03" y2="1962.39" style="stroke:#F0F0F0;stroke-width:9.72"/>
	<line x1="2856.43" y1="1962.39" x2="2921.23" y2="1962.39" style="stroke:#F0F0F0;stroke-width:9.72"/>
	<line x1="2953.63" y1="1962.39" x2="3018.43" y2="1962.39" style="stroke:#F0F0F0;stroke-width:9.72"/>
	<line x1="3050.83" y1="1962.39" x2="3115.63" y2="1962.39" style="stroke:#F0F0F0;stroke-width:9.72"/>
	<line x1="3148.03" y1="1962.39" x2="3212.83" y2="1962.39" style="stroke:#F0F0F0;stroke-width:9.72"/>
	<line x1="3245.23" y1="1962.39" x2="3310.03" y2="1962.39" style="stroke:#F0F0F0;stroke-width:9.72"/>
	<line x1="3342.43" y1="1962.39" x2="3407.23" y2="1962.39" style="stroke:#F0F0F0;stroke-width:9.72"/>
	<line x1="3439.63" y1="1962.39" x2="3504.43" y2="1962.39" style="stroke:#F0F0F0;stroke-width:9.72"/>
	<line x1="3536.83" y1="1962.39" x2="3601.63" y2="1962.39" style="stroke:#F0F0F0;stroke-width:9.72"/>
	<line x1="3634.03" y1="1962.39" x2="3698.83" y2="1962.39" style="stroke:#F0F0F0;stroke-width:9.72"/>
	<line x1="3731.23" y1="1962.39" x2="3796.03" y2="1962.39" style="stroke:#F0F0F0;stroke-width:9.72"/>
	<line x1="3828.43" y1="1962.39" x2="3893.23" y2="1962.39" style="stroke:#F0F0F0;stroke-width:9.72"/>
	<line x1="3925.63" y1="1962.39" x2="3990.43" y2="1962.39" style="stroke:#F0F0F0;stroke-width:9.72"/>
	<line x1="4022.83" y1="1962.39" x2="4087.63" y2="1962.39" style="stroke:#F0F0F0;stroke-width:9.72"/>
	<line x1="4120.03" y1="1962.39" x2="4184.83" y2="1962.39" style="stroke:#F0F0F0;stroke-width:9.72"/>
	<line x1="4217.23" y1="1962.39" x2="4282.03" y2="1962.39" style="stroke:#F0F0F0;stroke-width:9.72"/>
	<line x1="4314.43" y1="1962.39" x2="4379.23" y2="1962.39" style="stroke:#F0F0F0;stroke-width:9.72"/>
	<line x1="4411.63" y1="1962.39" x2="4476.43" y2="1962.39" style="stroke:#F0F0F0;stroke-width:9.72"/>
	<line x1="4508.83" y1="1962.39" x2="4573.63" y2="1962.39" style="stroke:#F0F0F0;stroke-width:9.72"/>
	<line x1="4606.03" y1="1962.39" x2="4670.83" y2="1962.39" style="stroke:#F0F0F0;stroke-width:9.72"/>
	<line x1="4703.23" y1="1962.39" x2="4768.03" y2="1962.39" style="stroke:#F0F0F0;stroke-width:9.72"/>
	<line x1="4800.43" y1="1962.39" x2="4865.23" y2="1962.39" style="stroke:#F0F0F0;stroke-width:9.72"/>
	<line x1="4897.63" y1="1962.39" x2="4962.43" y2="1962.39" style="stroke:#F0F0F0;stroke-width:9.72"/>
	<line x1="4994.83" y1="1962.39" x2="5059.63" y2="1962.39" style="stroke:#F0F0F0;stroke-width:9.72"/>
	<line x1="5092.03" y1="1962.39" x2="5156.83" y2="1962.39" style="stroke:#F0F0F0;stroke-width:9.72"/>
	<line x1="5189.23" y1="1962.39" x2="5254.03" y2="1962.39" style="stroke:#F0F0F0;stroke-width:9.72"/>
	<line x1="5286.43" y1="1962.39" x2="5286.60" y2="1962.39" style="stroke:#F0F0F0;stroke-width:9.72"/>
	<line x1="620.83" y1="1229.51" x2="685.63" y2="1229.51" style="stroke:#F0F0F0;stroke-width:9.72"/>
	<line x1="718.03" y1="1229.51" x2="782.83" y2="1229.51" style="stroke:#F0F0F0;stroke-width:9.72"/>
	<line x1="815.23" y1="1229.51" x2="880.03" y2="1229.51" style="stroke:#F0F0F0;stroke-width:9.72"/>
	<line x1="912.43" y1="1229.51" x2="977.23" y2="1229.51" style="stroke:#F0F0F0;stroke-width:9.72"/>
	<line x1="1009.63" y1="1229.51" x2="1074.43" y2="1229.51" style="stroke:#F0F0F0;stroke-width:9.72"/>
	<line x1="1106.83" y1="1229.51" x2="1171.63" y2="1229.51" style="stroke:#F0F0F0;stroke-width:9.72"/>
	<line x1="1204.03" y1="1229.51" x2="1268.83" y2="1229.51" style="stroke:#F0F0F0;stroke-width:9.72"/>
	<line x1="1301.23" y1="1229.51" x2="1366.03" y2="1229.51" style="stroke:#F0F0F0;stroke-width:9.72"/>
	<line x1="1398.43" y1="1229.51" x2="1463.23" y2="1229.51" style="stroke:#F0F0F0;stroke-width:9.72"/>
	<line x1="1495.63" y1="1229.51" x2="1560.43" y2="1229.51" style="stroke:#F0F0F0;stroke-width:9.72"/>
	<line x1="1592.83" y1="1229.51" x2="1657.63" y2="1229.51" style="stroke:#F0F0F0;stroke-width:9.72"/>
	<line x1="1690.03" y1="1229.51" x2="1754.83" y2="1229.51" style="stroke:#F0F0F0;stroke-width:9.72"/>
	<line x1="1787.23" y1="1229.51" x2="1852.03" y2="1229.51" style="stroke:#F0F0F0;stroke-width:9.72"/>
	<line x1="1884.43" y1="1229.51" x2="1949.23" y2="1229.51" style="stroke:#F0F0F0;stroke-width:9.72"/>
	<line x1="1981.63" y1="1229.51" x2="2046.43" y2="1229.51" style="stroke:#F0F0F0;stroke-width:9.72"/>
	<line x1="2078.83" y1="1229.51" x2="2143.63" y2="1229.51" style="stroke:#F0F0F0;stroke-width:9.72"/>
	<line x1="2176.03" y1="1229.51" x2="2240.83" y2="1229.51" style="stroke:#F0F0F0;stroke-width:9.72"/>
	<line x1="2273.23" y1="1229.51" x2="2338.03" y2="1229.51" style="stroke:#F0F0F0;stroke-width:9.72"/>
	<line x1="2370.43" y1="1229.51" x2="2435.23" y2="1229.51" style="stroke:#F0F0F0;stroke-width:9.72"/>
	<line x1="2467.63" y1="1229.51" x2="2532.43" y2="1229.51" style="stroke:#F0F0F0;stroke-width:9.72"/>
	<line x1="2564.83" y1="1229.51" x2="2629.63" y2="1229.51" style="stroke:#F0F0F0;stroke-width:9.72"/>
	<line x1="2662.03" y1="1229.51" x2="2726.83" y2="1229.51" style="stroke:#F0F0F0;stroke-width:9.72"/>
	<line x1="2759.23" y1="1229.51" x2="2824.03" y2="1229.51" style="stroke:#F0F0F0;stroke-width:9.72"/>
	<line x1="2856.43" y1="1229.51" x2="2921.23" y2="1229.51" style="stroke:#F0F0F0;stroke-width:9.72"/>
	<line x1="2953.63" y1="1229.51" x2="3018.43" y2="1229.51" style="stroke:#F0F0F0;stroke-width:9.72"/>
	<line x1="3050.83" y1="1229.51" x2="3115.63" y2="1229.51" style="stroke:#F0F0F0;stroke-width:9.72"/>
	<line x1="3148.03" y1="1229.51" x2="3212.83" y2="1229.51" style="stroke:#F0F0F0;stroke-width:9.72"/>
	<line x1="3245.23" y1="1229.51" x2="3310.03" y2="1229.51" style="stroke:#F0F0F0;stroke-width:9.72"/>
	<line x1="3342.43" y1="1229.51" x2="3407.23" y2="1229.51" style="stroke:#F0F0F0;stroke-width:9.72"/>
	<line x1="3439.63" y1="1229.51" x2="3504.43" y2="1229.51" style="stroke:#F0F0F0;stroke-width:9.72"/>
	<line x1="3536.83" y1="1229.51" x2="3601.63" y2="1229.51" style="stroke:#F0F0F0;stroke-width:9.72"/>
	<line x1="3634.03" y1="1229.51" x2="3698.83" y2="1229.51" style="stroke:#F0F0F0;stroke-width:9.72"/>
	<line x1="3731.23" y1="1229.51" x2="3796.03" y2="1229.51" style="stroke:#F0F0F0;stroke-width:9.72"/>
	<line x1="3828.43" y1="1229.51" x2="3893.23" y2="1229.51" style="stroke:#F0F0F0;stroke-width:9.72"/>
	<line x1="3925.63" y1="1229.51" x2="3990.43" y2="1229.51" style="stroke:#F0F0F0;stroke-width:9.72"/>
	<line x1="4022.83" y1="1229.51" x2="4087.63" y2="1229.51" style="stroke:#F0F0F0;stroke-width:9.72"/>
	<line x1="4120.03" y1="1229.51" x2="4184.83" y2="1229.51" style="stroke:#F0F0F0;stroke-width:9.72"/>
	<line x1="4217.23" y1="1229.51" x2="4282.03" y2="1229.51" style="stroke:#F0F0F0;stroke-width:9.72"/>
	<line x1="4314.43" y1="1229.51" x2="4379.23" y2="1229.51" style="stroke:#F0F0F0;stroke-width:9.72"/>
	<line x1="4411.63" y1="1229.51" x2="4476.43" y2="1229.51" style="stroke:#F0F0F0;stroke-width:9.72"/>
	<line x1="4508.83" y1="1229.51" x2="4573.63" y2="1229.51" style="stroke:#F0F0F0;stroke-width:9.72"/>
	<line x1="4606.03" y1="1229.51" x2="4670.83" y2="1229.51" style="stroke:#F0F0F0;stroke-width:9.72"/>
	<line x1="4703.23" y1="1229.51" x2="4768.03" y2="1229.51" style="stroke:#F0F0F0;stroke-width:9.72"/>
	<line x1="4800.43" y1="1229.51" x2="4865.23" y2="1229.51" style="stroke:#F0F0F0;stroke-width:9.72"/>
	<line x1="4897.63" y1="1229.51" x2="4962.43" y2="1229.51" style="stroke:#F0F0F0;stroke-width:9.72"/>
	<line x1="4994.83" y1="1229.51" x2="5059.63" y2="1229.51" style="stroke:#F0F0F0;stroke-width:9.72"/>
	<line x1="5092.03" y1="1229.51" x2="5156.83" y2="1229.51" style="stroke:#F0F0F0;stroke-width:9.72"/>
	<line x1="5189.23" y1="1229.51" x2="5254.03" y2="1229.51" style="stroke:#F0F0F0;stroke-width:9.72"/>
	<line x1="5286.43" y1="1229.51" x2="5286.60" y2="1229.51" style="stroke:#F0F0F0;stroke-width:9.72"/>
	<line x1="620.83" y1="496.63" x2="685.63" y2="496.63" style="stroke:#F0F0F0;stroke-width:9.72"/>
	<line x1="718.03" y1="496.63" x2="782.83" y2="496.63" style="stroke:#F0F0F0;stroke-width:9.72"/>
	<line x1="815.23" y1="496.63" x2="880.03" y2="496.63" style="stroke:#F0F0F0;stroke-width:9.72"/>
	<line x1="912.43" y1="496.63" x2="977.23" y2="496.63" style="stroke:#F0F0F0;stroke-width:9.72"/>
	<line x1="1009.63" y1="496.63" x2="1074.43" y2="496.63" style="stroke:#F0F0F0;stroke-width:9.72"/>
	<line x1="1106.83" y1="496.63" x2="1171.63" y2="496.63" style="stroke:#F0F0F0;stroke-width:9.72"/>
	<line x1="1204.03" y1="496.63" x2="1268.83" y2="496.63" style="stroke:#F0F0F0;stroke-width:9.72"/>
	<line x1="1301.23" y1="496.63" x2="1366.03" y2="496.63" style="stroke:#F0F0F0;stroke-width:9.72"/>
	<line x1="1398.43" y1="496.63" x2="1463.23" y2="496.63" style="stroke:#F0F0F0;stroke-width:9.72"/>
	<line x1="1495.63" y1="496.63" x2="1560.43" y2="496.63" style="stroke:#F0F0F0;stroke-width:9.72"/>
	<line x1="1592.83" y1="496.63" x2="1657.63" y2="496.63" style="stroke:#F0F0F0;stroke-width:9.72"/>
	<line x1="1690.03" y1="496.63" x2="1754.83" y2="496.63" style="stroke:#F0F0F0;stroke-width:9.72"/>
	<line x1="1787.23" y1="496.63" x2="1852.03" y2="496.63" style="stroke:#F0F0F0;stroke-width:9.72"/>
	<line x1="1884.43" y1="496.63" x2="1949.23" y2="496.63" style="stroke:#F0F0F0;stroke-width:9.72"/>
	<line x1="1981.63" y1="496.63" x2="2046.43" y2="496.63" style="stroke:#F0F0F0;stroke-width:9.72"/>
	<line x1="2078.83" y1="496.63" x2="2143.63" y2="496.63" style="stroke:#F0F0F0;stroke-width:9.72"/>
	<line x1="2176.03" y1="496.63" x2="2240.83" y2="496.63" style="stroke:#F0F0F0;stroke-width:9.72"/>
	<line x1="2273.23" y1="496.63" x2="2338.03" y2="496.63" style="stroke:#F0F0F0;stroke-width:9.72"/>
	<line x1="2370.43" y1="496.63" x2="2435.23" y2="496.63" style="stroke:#F0F0F0;stroke-width:9.72"/>
	<line x1="2467.63" y1="496.63" x2="2532.43" y2="496.63" style="stroke:#F0F0F0;stroke-width:9.72"/>
	<line x1="2564.83" y1="496.63" x2="2629.63" y2="496.63" style="stroke:#F0F0F0;stroke-width:9.72"/>
	<line x1="2662.03" y1="496.63" x2="2726.83" y2="496.63" style="stroke:#F0F0F0;stroke-width:9.72"/>
	<line x1="2759.23" y1="496.63" x2="2824.03" y2="496.63" style="stroke:#F0F0F0;stroke-width:9.72"/>
	<line x1="2856.43" y1="496.63" x2="2921.23" y2="496.63" style="stroke:#F0F0F0;stroke-width:9.72"/>
	<line x1="2953.63" y1="496.63" x2="3018.43" y2="496.63" style="stroke:#F0F0F0;stroke-width:9.72"/>
	<line x1="3050.83" y1="496.63" x2="3115.63" y2="496.63" style="stroke:#F0F0F0;stroke-width:9.72"/>
	<line x1="3148.03" y1="496.63" x2="3212.83" y2="496.63" style="stroke:#F0F0F0;stroke-width:9.72"/>
	<line x1="3245.23" y1="496.63" x2="3310.03" y2="496.63" style="stroke:#F0F0F0;stroke-width:9.72"/>
	<line x1="3342.43" y1="496.63" x2="3407.23" y2="496.63" style="stroke:#F0F0F0;stroke-width:9.72"/>
	<line x1="3439.63" y1="496.63" x2="3504.43" y2="496.63" style="stroke:#F0F0F0;stroke-width:9.72"/>
	<line x1="3536.83" y1="496.63" x2="3601.63" y2="496.63" style="stroke:#F0F0F0;stroke-width:9.72"/>
	<line x1="3634.03" y1="496.63" x2="3698.83" y2="496.63" style="stroke:#F0F0F0;stroke-width:9.72"/>
	<line x1="3731.23" y1="496.63" x2="3796.03" y2="496.63" style="stroke:#F0F0F0;stroke-width:9.72"/>
	<line x1="3828.43" y1="496.63" x2="3893.23" y2="496.63" style="stroke:#F0F0F0;stroke-width:9.72"/>
	<line x1="3925.63" y1="496.63" x2="3990.43" y2="496.63" style="stroke:#F0F0F0;stroke-width:9.72"/>
	<line x1="4022.83" y1="496.63" x2="4087.63" y2="496.63" style="stroke:#F0F0F0;stroke-width:9.72"/>
	<line x1="4120.03" y1="496.63" x2="4184.83" y2="496.63" style="stroke:#F0F0F0;stroke-width:9.72"/>
	<line x1="4217.23" y1="496.63" x2="4282.03" y2="496.63" style="stroke:#F0F0F0;stroke-width:9.72"/>
	<line x1="4314.43" y1="496.63" x2="4379.23" y2="496.63" style="stroke:#F0F0F0;stroke-width:9.72"/>
	<line x1="4411.63" y1="496.63" x2="4476.43" y2="496.63" style="stroke:#F0F0F0;stroke-width:9.72"/>
	<line x1="4508.83" y1="496.63" x2="4573.63" y2="496.63" style="stroke:#F0F0F0;stroke-width:9.72"/>
	<line x1="4606.03" y1="496.63" x2="4670.83" y2="496.63" style="stroke:#F0F0F0;stroke-width:9.72"/>
	<line x1="4703.23" y1="496.63" x2="4768.03" y2="496.63" style="stroke:#F0F0F0;stroke-width:9.72"/>
	<line x1="4800.43" y1="496.63" x2="4865.23" y2="496.63" style="stroke:#F0F0F0;stroke-width:9.72"/>
	<line x1="4897.63" y1="496.63" x2="4962.43" y2="496.63" style="stroke:#F0F0F0;stroke-width:9.72"/>
	<line x1="4994.83" y1="496.63" x2="5059.63" y2="496.63" style="stroke:#F0F0F0;stroke-width:9.72"/>
	<line x1="5092.03" y1="496.63" x2="5156.83" y2="496.63" style="stroke:#F0F0F0;stroke-width:9.72"/>
	<line x1="5189.23" y1="496.63" x2="5254.03" y2="496.63" style="stroke:#F0F0F0;stroke-width:9.72"/>
	<line x1="5286.43" y1="496.63" x2="5286.60" y2="496.63" style="stroke:#F0F0F0;stroke-width:9.72"/>
	<line x1="692.04" y1="2766.66" x2="692.04" y2="2701.86" style="stroke:#F0F0F0;stroke-width:9.72"/>
	<line x1="692.04" y1="2669.46" x2="692.04" y2="2604.66" style="stroke:#F0F0F0;stroke-width:9.72"/>
	<line x1="692.04" y1="2572.26" x2="692.04" y2="2507.46" style="stroke:#F0F0F0;stroke-width:9.72"/>
	<line x1="692.04" y1="2475.06" x2="692.04" y2="2410.26" style="stroke:#F0F0F0;stroke-width:9.72"/>
	<line x1="692.04" y1="2377.86" x2="692.04" y2="2313.06" style="stroke:#F0F0F0;stroke-width:9.72"/>
	<line x1="692.04" y1="2280.66" x2="692.04" y2="2215.86" style="stroke:#F0F0F0;stroke-width:9.72"/>
	<line x1="692.04" y1="2183.46" x2="692.04" y2="2118.66" style="stroke:#F0F0F0;stroke-width:9.72"/>
	<line x1="692.04" y1="2086.26" x2="692.04" y2="2021.46" style="stroke:#F0F0F0;stroke-width:9.72"/>
	<line x1="692.04" y1="1989.06" x2="692.04" y2="1924.26" style="stroke:#F0F0F0;stroke-width:9.72"/>
	<line x1="692.04" y1="1891.86" x2="692.04" y2="1827.06" style="stroke:#F0F0F0;stroke-width:9.72"/>
	<line x1="692.04" y1="1794.66" x2="692.04" y2="1729.86" style="stroke:#F0F0F0;stroke-width:9.72"/>
	<line x1="692.04" y1="1697.46" x2="692.04" y2="1632.66" style="stroke:#F0F0F0;stroke-width:9.72"/>
	<line x1="692.04" y1="1600.26" x2="692.04" y2="1535.46" style="stroke:#F0F0F0;stroke-width:9.72"/>
	<line x1="692.04" y1="1503.06" x2="692.04" y2="1438.26" style="stroke:#F0F0F0;stroke-width:9.72"/>
	<line x1="692.04" y1="1405.86" x2="692.04" y2="1341.06" style="stroke:#F0F0F0;stroke-width:9.72"/>
	<line x1="692.04" y1="1308.66" x2="692.04" y2="1243.86" style="stroke:#F0F0F0;stroke-width:9.72"/>
	<line x1="692.04" y1="1211.46" x2="692.04" y2="1146.66" style="stroke:#F0F0F0;stroke-width:9.72"/>
	<line x1="692.04" y1="1114.26" x2="692.04" y2="1049.46" style="stroke:#F0F0F0;stroke-width:9.72"/>
	<line x1="692.04" y1="1017.06" x2="692.04" y2="952.26" style="stroke:#F0F0F0;stroke-width:9.72"/>
	<line x1="692.04" y1="919.86" x2="692.04" y2="855.06" style="stroke:#F0F0F0;stroke-width:9.72"/>
	<line x1="692.04" y1="822.66" x2="692.04" y2="757.86" style="stroke:#F0F0F0;stroke-width:9.72"/>
	<line x1="692.04" y1="725.46" x2="692.04" y2="660.66" style="stroke:#F0F0F0;stroke-width:9.72"/>
	<line x1="692.04" y1="628.26" x2="692.04" y2="563.46" style="stroke:#F0F0F0;stroke-width:9.72"/>
	<line x1="692.04" y1="531.06" x2="692.04" y2="466.26" style="stroke:#F0F0F0;stroke-width:9.72"/>
	<line x1="692.04" y1="433.86" x2="692.04" y2="369.06" style="stroke:#F0F0F0;stroke-width:9.72"/>
	<line x1="692.04" y1="336.66" x2="692.04" y2="293.96" style="stroke:#F0F0F0;stroke-width:9.72"/>
	<line x1="1792.63" y1="2766.66" x2="1792.63" y2="2701.86" style="stroke:#F0F0F0;stroke-width:9.72"/>
	<line x1="1792.63" y1="2669.46" x2="1792.63" y2="2604.66" style="stroke:#F0F0F0;stroke-width:9.72"/>
	<line x1="1792.63" y1="2572.26" x2="1792.63" y2="2507.46" style="stroke:#F0F0F0;stroke-width:9.72"/>
	<line x1="1792.63" y1="2475.06" x2="1792.63" y2="2410.26" style="stroke:#F0F0F0;stroke-width:9.72"/>
	<line x1="1792.63" y1="2377.86" x2="1792.63" y2="2313.06" style="stroke:#F0F0F0;stroke-width:9.72"/>
	<line x1="1792.63" y1="2280.66" x2="1792.63" y2="2215.86" style="stroke:#F0F0F0;stroke-width:9.72"/>
	<line x1="1792.63" y1="2183.46" x2="1792.63" y2="2118.66" style="stroke:#F0F0F0;stroke-width:9.72"/>
	<line x1="1792.63" y1="2086.26" x2="1792.63" y2="2021.46" style="stroke:#F0F0F0;stroke-width:9.72"/>
	<line x1="1792.63" y1="1989.06" x2="1792.63" y2="1924.26" style="stroke:#F0F0F0;stroke-width:9.72"/>
	<line x1="1792.63" y1="1891.86" x2="1792.63" y2="1827.06" style="stroke:#F0F0F0;stroke-width:9.72"/>
	<line x1="1792.63" y1="1794.66" x2="1792.63" y2="1729.86" style="stroke:#F0F0F0;stroke-width:9.72"/>
	<line x1="1792.63" y1="1697.46" x2="1792.63" y2="1632.66" style="stroke:#F0F0F0;stroke-width:9.72"/>
	<line x1="1792.63" y1="1600.26" x2="1792.63" y2="1535.46" style="stroke:#F0F0F0;stroke-width:9.72"/>
	<line x1="1792.63" y1="1503.06" x2="1792.63" y2="1438.26" style="stroke:#F0F0F0;stroke-width:9.72"/>
	<line x1="1792.63" y1="1405.86" x2="1792.63" y2="1341.06" style="stroke:#F0F0F0;stroke-width:9.72"/>
	<line x1="1792.63" y1="1308.66" x2="1792.63" y2="1243.86" style="stroke:#F0F0F0;stroke-width:9.72"/>
	<line x1="1792.63" y1="1211.46" x2="1792.63" y2="1146.66" style="stroke:#F0F0F0;stroke-width:9.72"/>
	<line x1="1792.63" y1="1114.26" x2="1792.63" y2="1049.46" style="stroke:#F0F0F0;stroke-width:9.72"/>
	<line x1="1792.63" y1="1017.06" x2="1792.63" y2="952.26" style="stroke:#F0F0F0;stroke-width:9.72"/>
	<line x1="1792.63" y1="919.86" x2="1792.63" y2="855.06" style="stroke:#F0F0F0;stroke-width:9.72"/>
	<line x1="1792.63" y1="822.66" x2="1792.63" y2="757.86" style="stroke:#F0F0F0;stroke-width:9.72"/>
	<line x1="1792.63" y1="725.46" x2="1792.63" y2="660.66" style="stroke:#F0F0F0;stroke-width:9.72"/>
	<line x1="1792.63" y1="628.26" x2="1792.63" y2="563.46" style="stroke:#F0F0F0;stroke-width:9.72"/>
	<line x1="1792.63" y1="531.06" x2="1792.63" y2="466.26" style="stroke:#F0F0F0;stroke-width:9.72"/>
	<line x1="1792.63" y1="433.86" x2="1792.63" y2="369.06" style="stroke:#F0F0F0;stroke-width:9.72"/>
	<line x1="1792.63" y1="336.66" x2="1792.63" y2="293.96" style="stroke:#F0F0F0;stroke-width:9.72"/>
	<line x1="2893.22" y1="2766.66" x2="2893.22" y2="2701.86" style="stroke:#F0F0F0;stroke-width:9.72"/>
	<line x1="2893.22" y1="2669.46" x2="2893.22" y2="2604.66" style="stroke:#F0F0F0;stroke-width:9.72"/>
	<line x1="2893.22" y1="2572.26" x2="2893.22" y2="2507.46" style="stroke:#F0F0F0;stroke-width:9.72"/>
	<line x1="2893.22" y1="2475.06" x2="2893.22" y2="2410.26" style="stroke:#F0F0F0;stroke-width:9.72"/>
	<line x1="2893.22" y1="2377.86" x2="2893.22" y2="2313.06" style="stroke:#F0F0F0;stroke-width:9.72"/>
	<line x1="2893.22" y1="2280.66" x2="2893.22" y2="2215.86" style="stroke:#F0F0F0;stroke-width:9.72"/>
	<line x1="2893.22" y1="2183.46" x2="2893.22" y2="2118.66" style="stroke:#F0F0F0;stroke-width:9.72"/>
	<line x1="2893.22" y1="2086.26" x2="2893.22" y2="2021.46" style="stroke:#F0F0F0;stroke-width:9.72"/>
	<line x1="2893.22" y1="1989.06" x2="2893.22" y2="1924.26" style="stroke:#F0F0F0;stroke-width:9.72"/>
	<line x1="2893.22" y1="1891.86" x2="2893.22" y2="1827.06" style="stroke:#F0F0F0;stroke-width:9.72"/>
	<line x1="2893.22" y1="1794.66" x2="2893.22" y2="1729.86" style="stroke:#F0F0F0;stroke-width:9.72"/>
	<line x1="2893.22" y1="1697.46" x2="2893.22" y2="1632.66" style="stroke:#F0F0F0;stroke-width:9.72"/>
	<line x1="2893.22" y1="1600.26" x2="2893.22" y2="1535.46" style="stroke:#F0F0F0;stroke-width:9.72"/>
	<line x1="2893.22" y1="1503.06" x2="2893.22" y2="1438.26" style="stroke:#F0F0F0;stroke-width:9.72"/>
	<line x1="2893.22" y1="1405.86" x2="2893.22" y2="1341.06" style="stroke:#F0F0F0;stroke-width:9.72"/>
	<line x1="2893.22" y1="1308.66" x2="2893.22" y2="1243.86" style="stroke:#F0F0F0;stroke-width:9.72"/>
	<line x1="2893.22" y1="1211.46" x2="2893.22" y2="1146.66" style="stroke:#F0F0F0;stroke-width:9.72"/>
	<line x1="2893.22" y1="1114.26" x2="2893.22" y2="1049.46" style="stroke:#F0F0F0;stroke-width:9.72"/>
	<line x1="2893.22" y1="1017.06" x2="2893.22" y2="952.26" style="stroke:#F0F0F0;stroke-width:9.72"/>
	<line x1="2893.22" y1="919.86" x2="2893.22" y2="855.06" style="stroke:#F0F0F0;stroke-width:9.72"/>
	<line x1="2893.22" y1="822.66" x2="2893.22" y2="757.86" style="stroke:#F0F0F0;stroke-width:9.72"/>
	<line x1="2893.22" y1="725.46" x2="2893.22" y2="660.66" style="stroke:#F0F0F0;stroke-width:9.72"/>
	<line x1="2893.22" y1="628.26" x2="2893.22" y2="563.46" style="stroke:#F0F0F0;stroke-width:9.72"/>
	<line x1="2893.22" y1="531.06" x2="2893.22" y2="466.26" style="stroke:#F0F0F0;stroke-width:9.72"/>
	<line x1="2893.22" y1="433.86" x2="2893.22" y2="369.06" style="stroke:#F0F0F0;stroke-width:9.72"/>
	<line x1="2893.22" y1="336.66" x2="2893.22" y2="293.96" style="stroke:#F0F0F0;stroke-width:9.72"/>
	<line x1="3993.64" y1="2766.66" x2="3993.64" y2="2701.86" style="stroke:#F0F0F0;stroke-width:9.72"/>
	<line x1="3993.64" y1="2669.46" x2="3993.64" y2="2604.66" style="stroke:#F0F0F0;stroke-width:9.72"/>
	<line x1="3993.64" y1="2572.26" x2="3993.64" y2="2507.46" style="stroke:#F0F0F0;stroke-width:9.72"/>
	<line x1="3993.64" y1="2475.06" x2="3993.64" y2="2410.26" style="stroke:#F0F0F0;stroke-width:9.72"/>
	<line x1="3993.64" y1="2377.86" x2="3993.64" y2="2313.06" style="stroke:#F0F0F0;stroke-width:9.72"/>
	<line x1="3993.64" y1="2280.66" x2="3993.64" y2="2215.86" style="stroke:#F0F0F0;stroke-width:9.72"/>
	<line x1="3993.64" y1="2183.46" x2="3993.64" y2="2118.66" style="stroke:#F0F0F0;stroke-width:9.72"/>
	<line x1="3993.64" y1="2086.26" x2="3993.64" y2="2021.46" style="stroke:#F0F0F0;stroke-width:9.72"/>
	<line x1="3993.64" y1="1989.06" x2="3993.64" y2="1924.26" style="stroke:#F0F0F0;stroke-width:9.72"/>
	<line x1="3993.64" y1="1891.86" x2="3993.64" y2="1827.06" style="stroke:#F0F0F0;stroke-width:9.72"/>
	<line x1="3993.64" y1="1794.66" x2="3993.64" y2="1729.86" style="stroke:#F0F0F0;stroke-width:9.72"/>
	<line x1="3993.64" y1="1697.46" x2="3993.64" y2="1632.66" style="stroke:#F0F0F0;stroke-width:9.72"/>
	<line x1="3993.64" y1="1600.26" x2="3993.64" y2="1535.46" style="stroke:#F0F0F0;stroke-width:9.72"/>
	<line x1="3993.64" y1="1503.06" x2="3993.64" y2="1438.26" style="stroke:#F0F0F0;stroke-width:9.72"/>
	<line x1="3993.64" y1="1405.86" x2="3993.64" y2="1341.06" style="stroke:#F0F0F0;stroke-width:9.72"/>
	<line x1="3993.64" y1="1308.66" x2="3993.64" y2="1243.86" style="stroke:#F0F0F0;stroke-width:9.72"/>
	<line x1="3993.64" y1="1211.46" x2="3993.64" y2="1146.66" style="stroke:#F0F0F0;stroke-width:9.72"/>
	<line x1="3993.64" y1="1114.26" x2="3993.64" y2="1049.46" style="stroke:#F0F0F0;stroke-width:9.72"/>
	<line x1="3993.64" y1="1017.06" x2="3993.64" y2="952.26" style="stroke:#F0F0F0;stroke-width:9.72"/>
	<line x1="3993.64" y1="919.86" x2="3993.64" y2="855.06" style="stroke:#F0F0F0;stroke-width:9.72"/>
	<line x1="3993.64" y1="822.66" x2="3993.64" y2="757.86" style="stroke:#F0F0F0;stroke-width:9.72"/>
	<line x1="3993.64" y1="725.46" x2="3993.64" y2="660.66" style="stroke:#F0F0F0;stroke-width:9.72"/>
	<line x1="3993.64" y1="628.26" x2="3993.64" y2="563.46" style="stroke:#F0F0F0;stroke-width:9.72"/>
	<line x1="3993.64" y1="531.06" x2="3993.64" y2="466.26" style="stroke:#F0F0F0;stroke-width:9.72"/>
	<line x1="3993.64" y1="433.86" x2="3993.64" y2="369.06" style="stroke:#F0F0F0;stroke-width:9.72"/>
	<line x1="3993.64" y1="336.66" x2="3993.64" y2="293.96" style="stroke:#F0F0F0;stroke-width:9.72"/>
	<line x1="5094.23" y1="2766.66" x2="5094.23" y2="2701.86" style="stroke:#F0F0F0;stroke-width:9.72"/>
	<line x1="5094.23" y1="2669.46" x2="5094.23" y2="2604.66" style="stroke:#F0F0F0;stroke-width:9.72"/>
	<line x1="5094.23" y1="2572.26" x2="5094.23" y2="2507.46" style="stroke:#F0F0F0;stroke-width:9.72"/>
	<line x1="5094.23" y1="2475.06" x2="5094.23" y2="2410.26" style="stroke:#F0F0F0;stroke-width:9.72"/>
	<line x1="5094.23" y1="2377.86" x2="5094.23" y2="2313.06" style="stroke:#F0F0F0;stroke-width:9.72"/>
	<line x1="5094.23" y1="2280.66" x2="5094.23" y2="2215.86" style="stroke:#F0F0F0;stroke-width:9.72"/>
	<line x1="5094.23" y1="2183.46" x2="5094.23" y2="2118.66" style="stroke:#F0F0F0;stroke-width:9.72"/>
	<line x1="5094.23" y1="2086.26" x2="5094.23" y2="2021.46" style="stroke:#F0F0F0;stroke-width:9.72"/>
	<line x1="5094.23" y1="1989.06" x2="5094.23" y2="1924.26" style="stroke:#F0F0F0;stroke-width:9.72"/>
	<line x1="5094.23" y1="1891.86" x2="5094.23" y2="1827.06" style="stroke:#F0F0F0;stroke-width:9.72"/>
	<line x1="5094.23" y1="1794.66" x2="5094.23" y2="1729.86" style="stroke:#F0F0F0;stroke-width:9.72"/>
	<line x1="5094.23" y1="1697.46" x2="5094.23" y2="1632.66" style="stroke:#F0F0F0;stroke-width:9.72"/>
	<line x1="5094.23" y1="1600.26" x2="5094.23" y2="1535.46" style="stroke:#F0F0F0;stroke-width:9.72"/>
	<line x1="5094.23" y1="1503.06" x2="5094.23" y2="1438.26" style="stroke:#F0F0F0;stroke-width:9.72"/>
	<line x1="5094.23" y1="1405.86" x2="5094.23" y2="1341.06" style="stroke:#F0F0F0;stroke-width:9.72"/>
	<line x1="5094.23" y1="1308.66" x2="5094.23" y2="1243.86" style="stroke:#F0F0F0;stroke-width:9.72"/>
	<line x1="5094.23" y1="1211.46" x2="5094.23" y2="1146.66" style="stroke:#F0F0F0;stroke-width:9.72"/>
	<line x1="5094.23" y1="1114.26" x2="5094.23" y2="1049.46" style="stroke:#F0F0F0;stroke-width:9.72"/>
	<line x1="5094.23" y1="1017.06" x2="5094.23" y2="952.26" style="stroke:#F0F0F0;stroke-width:9.72"/>
	<line x1="5094.23" y1="919.86" x2="5094.23" y2="855.06" style="stroke:#F0F0F0;stroke-width:9.72"/>
	<line x1="5094.23" y1="822.66" x2="5094.23" y2="757.86" style="stroke:#F0F0F0;stroke-width:9.72"/>
	<line x1="5094.23" y1="725.46" x2="5094.23" y2="660.66" style="stroke:#F0F0F0;stroke-width:9.72"/>
	<line x1="5094.23" y1="628.26" x2="5094.23" y2="563.46" style="stroke:#F0F0F0;stroke-width:9.72"/>
	<line x1="5094.23" y1="531.06" x2="5094.23" y2="466.26" style="stroke:#F0F0F0;stroke-width:9.72"/>
	<line x1="5094.23" y1="433.86" x2="5094.23" y2="369.06" style="stroke:#F0F0F0;stroke-width:9.72"/>
	<line x1="5094.23" y1="336.66" x2="5094.23" y2="293.96" style="stroke:#F0F0F0;stroke-width:9.72"/>
	<line x1="1110.21" y1="2582.55" x2="1110.21" y2="1404.34" style="stroke:#1A85FF;stroke-width:9.72"/>
	<line x1="1093.33" y1="1404.34" x2="1127.08" y2="1404.34" stroke-linecap="round" style="stroke:#1A85FF;stroke-width:9.72"/>
	<line x1="1093.33" y1="2582.55" x2="1127.08" y2="2582.55" stroke-linecap="round" style="stroke:#1A85FF;stroke-width:9.72"/>
	<line x1="1220.23" y1="2517.92" x2="1220.23" y2="1401.64" style="stroke:#1A85FF;stroke-width:9.72"/>
	<line x1="1203.36" y1="1401.64" x2="1237.11" y2="1401.64" stroke-linecap="round" style="stroke:#1A85FF;stroke-width:9.72"/>
	<line x1="1203.36" y1="2517.92" x2="1237.11" y2="2517.92" stroke-linecap="round" style="stroke:#1A85FF;stroke-width:9.72"/>
	<line x1="1330.43" y1="2453.46" x2="1330.43" y2="1398.77" style="stroke:#1A85FF;stroke-width:9.72"/>
	<line x1="1313.55" y1="1398.77" x2="1347.30" y2="1398.77" stroke-linecap="round" style="stroke:#1A85FF;stroke-width:9.72"/>
	<line x1="1313.55" y1="2453.46" x2="1347.30" y2="2453.46" stroke-linecap="round" style="stroke:#1A85FF;stroke-width:9.72"/>
	<line x1="1440.45" y1="2389.33" x2="1440.45" y2="1395.39" style="stroke:#1A85FF;stroke-width:9.72"/>
	<line x1="1423.58" y1="1395.39" x2="1457.33" y2="1395.39" stroke-linecap="round" style="stroke:#1A85FF;stroke-width:9.72"/>
	<line x1="1423.58" y1="2389.33" x2="1457.33" y2="2389.33" stroke-linecap="round" style="stroke:#1A85FF;stroke-width:9.72"/>
	<line x1="1550.48" y1="2325.71" x2="1550.48" y2="1391.85" style="stroke:#1A85FF;stroke-width:9.72"/>
	<line x1="1533.60" y1="1391.85" x2="1567.35" y2="1391.85" stroke-linecap="round" style="stroke:#1A85FF;stroke-width:9.72"/>
	<line x1="1533.60" y1="2325.71" x2="1567.35" y2="2325.71" stroke-linecap="round" style="stroke:#1A85FF;stroke-width:9.72"/>
	<line x1="1660.50" y1="2262.43" x2="1660.50" y2="1387.63" style="stroke:#1A85FF;stroke-width:9.72"/>
	<line x1="1643.63" y1="1387.63" x2="1677.38" y2="1387.63" stroke-linecap="round" style="stroke:#1A85FF;stroke-width:9.72"/>
	<line x1="1643.63" y1="2262.43" x2="1677.38" y2="2262.43" stroke-linecap="round" style="stroke:#1A85FF;stroke-width:9.72"/>
	<line x1="1770.53" y1="2199.66" x2="1770.53" y2="1383.08" style="stroke:#1A85FF;stroke-width:9.72"/>
	<line x1="1753.65" y1="1383.08" x2="1787.40" y2="1383.08" stroke-linecap="round" style="stroke:#1A85FF;stroke-width:9.72"/>
	<line x1="1753.65" y1="2199.66" x2="1787.40" y2="2199.66" stroke-linecap="round" style="stroke:#1A85FF;stroke-width:9.72"/>
	<line x1="1880.72" y1="2137.73" x2="1880.72" y2="1377.68" style="stroke:#1A85FF;stroke-width:9.72"/>
	<line x1="1863.84" y1="1377.68" x2="1897.59" y2="1377.68" stroke-linecap="round" style="stroke:#1A85FF;stroke-width:9.72"/>
	<line x1="1863.84" y1="2137.73" x2="1897.59" y2="2137.73" stroke-linecap="round" style="stroke:#1A85FF;stroke-width:9.72"/>
	<line x1="1990.74" y1="2076.47" x2="1990.74" y2="1371.43" style="stroke:#1A85FF;stroke-width:9.72"/>
	<line x1="1973.87" y1="1371.43" x2="2007.62" y2="1371.43" stroke-linecap="round" style="stroke:#1A85FF;stroke-width:9.72"/>
	<line x1="1973.87" y1="2076.47" x2="2007.62" y2="2076.47" stroke-linecap="round" style="stroke:#1A85FF;stroke-width:9.72"/>
	<line x1="2100.77" y1="2016.39" x2="2100.77" y2="1364.18" style="stroke:#1A85FF;stroke-width:9.72"/>
	<line x1="2083.89" y1="1364.18" x2="2117.64" y2="1364.18" stroke-linecap="round" style="stroke:#1A85FF;stroke-width:9.72"/>
	<line x1="2083.89" y1="2016.39" x2="2117.64" y2="2016.39" stroke-linecap="round" style="stroke:#1A85FF;stroke-width:9.72"/>
	<line x1="2210.79" y1="1957.67" x2="2210.79" y2="1355.57" style="stroke:#1A85FF;stroke-width:9.72"/>
	<line x1="2193.92" y1="1355.57" x2="2227.67" y2="1355.57" stroke-linecap="round" style="stroke:#1A85FF;stroke-width:9.72"/>
	<line x1="2193.92" y1="1957.67" x2="2227.67" y2="1957.67" stroke-linecap="round" style="stroke:#1A85FF;stroke-width:9.72"/>
	<line x1="2320.82" y1="1900.63" x2="2320.82" y2="1345.11" style="stroke:#1A85FF;stroke-width:9.72"/>
	<line x1="2303.94" y1="1345.11" x2="2337.69" y2="1345.11" stroke-linecap="round" style="stroke:#1A85FF;stroke-width:9.72"/>
	<line x1="2303.94" y1="1900.63" x2="2337.69" y2="1900.63" stroke-linecap="round" style="stroke:#1A85FF;stroke-width:9.72"/>
	<line x1="2430.84" y1="1845.79" x2="2430.84" y2="1332.62" style="stroke:#1A85FF;stroke-width:9.72"/>
	<line x1="2413.97" y1="1332.62" x2="2447.72" y2="1332.62" stroke-linecap="round" style="stroke:#1A85FF;stroke-width:9.72"/>
	<line x1="2413.97" y1="1845.79" x2="2447.72" y2="1845.79" stroke-linecap="round" style="stroke:#1A85FF;stroke-width:9.72"/>
	<line x1="2541.04" y1="1793.81" x2="2541.04" y2="1317.43" style="stroke:#1A85FF;stroke-width:9.72"/>
	<line x1="2524.16" y1="1317.43" x2="2557.91" y2="1317.43" stroke-linecap="round" style="stroke:#1A85FF;stroke-width:9.72"/>
	<line x1="2524.16" y1="1793.81" x2="2557.91" y2="1793.81" stroke-linecap="round" style="stroke:#1A85FF;stroke-width:9.72"/>
	<line x1="2651.06" y1="1745.21" x2="2651.06" y2="1298.70" style="stroke:#1A85FF;stroke-width:9.72"/>
	<line x1="2634.19" y1="1298.70" x2="2667.94" y2="1298.70" stroke-linecap="round" style="stroke:#1A85FF;stroke-width:9.72"/>
	<line x1="2634.19" y1="1745.21" x2="2667.94" y2="1745.21" stroke-linecap="round" style="stroke:#1A85FF;stroke-width:9.72"/>
	<line x1="2761.09" y1="1700.66" x2="2761.09" y2="1275.75" style="stroke:#1A85FF;stroke-width:9.72"/>
	<line x1="2744.21" y1="1275.75" x2="2777.96" y2="1275.75" stroke-linecap="round" style="stroke:#1A85FF;stroke-width:9.72"/>
	<line x1="2744.21" y1="1700.66" x2="2777.96" y2="1700.66" stroke-linecap="round" style="stroke:#1A85FF;stroke-width:9.72"/>
	<line x1="2871.11" y1="1661.01" x2="2871.11" y2="1247.91" style="stroke:#1A85FF;stroke-width:9.72"/>
	<line x1="2854.24" y1="1247.91" x2="2887.99" y2="1247.91" stroke-linecap="round" style="stroke:#1A85FF;stroke-width:9.72"/>
	<line x1="2854.24" y1="1661.01" x2="2887.99" y2="1661.01" stroke-linecap="round" style="stroke:#1A85FF;stroke-width:9.72"/>
	<line x1="2981.14" y1="1626.75" x2="2981.14" y2="1215.00" style="stroke:#1A85FF;stroke-width:9.72"/>
	<line x1="2964.26" y1="1215.00" x2="2998.01" y2="1215.00" stroke-linecap="round" style="stroke:#1A85FF;stroke-width:9.72"/>
	<line x1="2964.26" y1="1626.75" x2="2998.01" y2="1626.75" stroke-linecap="round" style="stroke:#1A85FF;stroke-width:9.72"/>
	<line x1="3091.33" y1="1597.73" x2="3091.33" y2="1176.69" style="stroke:#1A85FF;stroke-width:9.72"/>
	<line x1="3074.46" y1="1176.69" x2="3108.21" y2="1176.69" stroke-linecap="round" style="stroke:#1A85FF;stroke-width:9.72"/>
	<line x1="3074.46" y1="1597.73" x2="3108.21" y2="1597.73" stroke-linecap="round" style="stroke:#1A85FF;stroke-width:9.72"/>
	<line x1="3201.36" y1="1573.59" x2="3201.36" y2="1133.32" style="stroke:#1A85FF;stroke-width:9.72"/>
	<line x1="3184.48" y1="1133.32" x2="3218.23" y2="1133.32" stroke-linecap="round" style="stroke:#1A85FF;stroke-width:9.72"/>
	<line x1="3184.48" y1="1573.59" x2="3218.23" y2="1573.59" stroke-linecap="round" style="stroke:#1A85FF;stroke-width:9.72"/>
	<line x1="3311.38" y1="1553.85" x2="3311.38" y2="1085.74" style="stroke:#1A85FF;stroke-width:9.72"/>
	<line x1="3294.51" y1="1085.74" x2="3328.26" y2="1085.74" stroke-linecap="round" style="stroke:#1A85FF;stroke-width:9.72"/>
	<line x1="3294.51" y1="1553.85" x2="3328.26" y2="1553.85" stroke-linecap="round" style="stroke:#1A85FF;stroke-width:9.72"/>
	<line x1="3421.41" y1="1537.65" x2="3421.41" y2="1034.44" style="stroke:#1A85FF;stroke-width:9.72"/>
	<line x1="3404.53" y1="1034.44" x2="3438.28" y2="1034.44" stroke-linecap="round" style="stroke:#1A85FF;stroke-width:9.72"/>
	<line x1="3404.53" y1="1537.65" x2="3438.28" y2="1537.65" stroke-linecap="round" style="stroke:#1A85FF;stroke-width:9.72"/>
	<line x1="3531.43" y1="1524.49" x2="3531.43" y2="980.27" style="stroke:#1A85FF;stroke-width:9.72"/>
	<line x1="3514.56" y1="980.27" x2="3548.31" y2="980.27" stroke-linecap="round" style="stroke:#1A85FF;stroke-width:9.72"/>
	<line x1="3514.56" y1="1524.49" x2="3548.31" y2="1524.49" stroke-linecap="round" style="stroke:#1A85FF;stroke-width:9.72"/>
	<line x1="3641.46" y1="1513.69" x2="3641.46" y2="923.74" style="stroke:#1A85FF;stroke-width:9.72"/>
	<line x1="3624.58" y1="923.74" x2="3658.33" y2="923.74" stroke-linecap="round" style="stroke:#1A85FF;stroke-width:9.72"/>
	<line x1="3624.58" y1="1513.69" x2="3658.33" y2="1513.69" stroke-linecap="round" style="stroke:#1A85FF;stroke-width:9.72"/>
	<line x1="3751.65" y1="1504.74" x2="3751.65" y2="865.35" style="stroke:#1A85FF;stroke-width:9.72"/>
	<line x1="3734.78" y1="865.35" x2="3768.53" y2="865.35" stroke-linecap="round" style="stroke:#1A85FF;stroke-width:9.72"/>
	<line x1="3734.78" y1="1504.74" x2="3768.53" y2="1504.74" stroke-linecap="round" style="stroke:#1A85FF;stroke-width:9.72"/>
	<line x1="3861.68" y1="1497.15" x2="3861.68" y2="805.61" style="stroke:#1A85FF;stroke-width:9.72"/>
	<line x1="3844.80" y1="805.61" x2="3878.55" y2="805.61" stroke-linecap="round" style="stroke:#1A85FF;stroke-width:9.72"/>
	<line x1="3844.80" y1="1497.15" x2="3878.55" y2="1497.15" stroke-linecap="round" style="stroke:#1A85FF;stroke-width:9.72"/>
	<line x1="3971.70" y1="1490.57" x2="3971.70" y2="744.69" style="stroke:#1A85FF;stroke-width:9.72"/>
	<line x1="3954.83" y1="744.69" x2="3988.58" y2="744.69" stroke-linecap="round" style="stroke:#1A85FF;stroke-width:9.72"/>
	<line x1="3954.83" y1="1490.57" x2="3988.58" y2="1490.57" stroke-linecap="round" style="stroke:#1A85FF;stroke-width:9.72"/>
	<line x1="4081.73" y1="1485.00" x2="4081.73" y2="682.93" style="stroke:#1A85FF;stroke-width:9.72"/>
	<line x1="4064.85" y1="682.93" x2="4098.60" y2="682.93" stroke-linecap="round" style="stroke:#1A85FF;stroke-width:9.72"/>
	<line x1="4064.85" y1="1485.00" x2="4098.60" y2="1485.00" stroke-linecap="round" style="stroke:#1A85FF;stroke-width:9.72"/>
	<line x1="4191.75" y1="1480.28" x2="4191.75" y2="620.32" style="stroke:#1A85FF;stroke-width:9.72"/>
	<line x1="4174.88" y1="620.32" x2="4208.63" y2="620.32" stroke-linecap="round" style="stroke:#1A85FF;stroke-width:9.72"/>
	<line x1="4174.88" y1="1480.28" x2="4208.63" y2="1480.28" stroke-linecap="round" style="stroke:#1A85FF;stroke-width:9.72"/>
	<line x1="4301.94" y1="1475.89" x2="4301.94" y2="557.21" style="stroke:#1A85FF;stroke-width:9.72"/>
	<line x1="4285.07" y1="557.21" x2="4318.82" y2="557.21" stroke-linecap="round" style="stroke:#1A85FF;stroke-width:9.72"/>
	<line x1="4285.07" y1="1475.89" x2="4318.82" y2="1475.89" stroke-linecap="round" style="stroke:#1A85FF;stroke-width:9.72"/>
	<line x1="4411.97" y1="1472.18" x2="4411.97" y2="493.59" style="stroke:#1A85FF;stroke-width:9.72"/>
	<line x1="4395.09" y1="493.59" x2="4428.84" y2="493.59" stroke-linecap="round" style="stroke:#1A85FF;stroke-width:9.72"/>
	<line x1="4395.09" y1="1472.18" x2="4428.84" y2="1472.18" stroke-linecap="round" style="stroke:#1A85FF;stroke-width:9.72"/>
	<line x1="4521.99" y1="1468.80" x2="4521.99" y2="429.64" style="stroke:#1A85FF;stroke-width:9.72"/>
	<line x1="4505.12" y1="429.64" x2="4538.87" y2="429.64" stroke-linecap="round" style="stroke:#1A85FF;stroke-width:9.72"/>
	<line x1="4505.12" y1="1468.80" x2="4538.87" y2="1468.80" stroke-linecap="round" style="stroke:#1A85FF;stroke-width:9.72"/>
	<line x1="4632.02" y1="1465.76" x2="4632.02" y2="365.34" style="stroke:#1A85FF;stroke-width:9.72"/>
	<line x1="4615.14" y1="365.34" x2="4648.89" y2="365.34" stroke-linecap="round" style="stroke:#1A85FF;stroke-width:9.72"/>
	<line x1="4615.14" y1="1465.76" x2="4648.89" y2="1465.76" stroke-linecap="round" style="stroke:#1A85FF;stroke-width:9.72"/>
	<path d=" M1110.21 1993.61 L1220.23 1959.86 L1330.26 1926.11 L1440.28 1892.53 L1550.48 1858.78 L1660.50 1825.20 L1770.53 1791.45 L1880.55 1757.70 L1990.58 1724.12 L2100.60 1690.37 L2210.79 1656.62 L2320.82 1623.04 L2430.84 1589.29 L2540.87 1555.71 L2650.89 1521.96 L2760.92 1488.21 L2871.11 1454.63 L2981.14 1420.88 L3091.16 1387.29 L3201.19 1353.54 L3311.21 1319.79 L3421.41 1286.21 L3531.43 1252.46 L3641.46 1218.88 L3751.48 1185.13 L3861.51 1151.38 L3971.53 1117.80 L4081.73 1084.05 L4191.75 1050.30 L4301.77 1016.72 L4411.80 982.97 L4521.83 949.39 L4632.02 915.64" stroke-linejoin="round" style="fill:none;stroke:#1A85FF;stroke-width:9.72"/>
	<line x1="620.83" y1="2766.66" x2="620.83" y2="293.96" style="stroke:#000000;stroke-width:6.48"/>
	<line x1="620.83" y1="2695.28" x2="575.78" y2="2695.28" style="stroke:#000000;stroke-width:6.48"/>
	<text x="553.33" y="2734.71" style="font-family:'Helvetica';font-size:112.56px;fill:#000000" text-anchor="end">13</text>
	<line x1="620.83" y1="1962.39" x2="575.78" y2="1962.39" style="stroke:#000000;stroke-width:6.48"/>
	<text x="553.33" y="2001.83" style="font-family:'Helvetica';font-size:112.56px;fill:#000000" text-anchor="end">13.5</text>
	<line x1="620.83" y1="1229.51" x2="575.78" y2="1229.51" style="stroke:#000000;stroke-width:6.48"/>
	<text x="553.33" y="1268.95" style="font-family:'Helvetica';font-size:112.56px;fill:#000000" text-anchor="end">14</text>
	<line x1="620.83" y1="496.63" x2="575.78" y2="496.63" style="stroke:#000000;stroke-width:6.48"/>
	<text x="553.33" y="536.07" style="font-family:'Helvetica';font-size:112.56px;fill:#000000" text-anchor="end">14.5</text>
	<text x="214.55" y="1530.39" style="font-family:'Helvetica';font-size:112.56px;fill:#000000" transform="rotate(-90 214.55,1530.39)" text-anchor="middle">Predicted Libertarian-Authoritarian Score</text>
	<line x1="620.83" y1="2766.66" x2="5286.60" y2="2766.66" style="stroke:#000000;stroke-width:6.48"/>
	<line x1="692.04" y1="2766.66" x2="692.04" y2="2811.54" style="stroke:#000000;stroke-width:6.48"/>
	<text x="692.04" y="2912.86" style="font-family:'Helvetica';font-size:112.56px;fill:#000000" text-anchor="middle">-2</text>
	<line x1="1792.63" y1="2766.66" x2="1792.63" y2="2811.54" style="stroke:#000000;stroke-width:6.48"/>
	<text x="1792.63" y="2912.86" style="font-family:'Helvetica';font-size:112.56px;fill:#000000" text-anchor="middle">-1</text>
	<line x1="2893.22" y1="2766.66" x2="2893.22" y2="2811.54" style="stroke:#000000;stroke-width:6.48"/>
	<text x="2893.22" y="2912.86" style="font-family:'Helvetica';font-size:112.56px;fill:#000000" text-anchor="middle">0</text>
	<line x1="3993.64" y1="2766.66" x2="3993.64" y2="2811.54" style="stroke:#000000;stroke-width:6.48"/>
	<text x="3993.64" y="2912.86" style="font-family:'Helvetica';font-size:112.56px;fill:#000000" text-anchor="middle">1</text>
	<line x1="5094.23" y1="2766.66" x2="5094.23" y2="2811.54" style="stroke:#000000;stroke-width:6.48"/>
	<text x="5094.23" y="2912.86" style="font-family:'Helvetica';font-size:112.56px;fill:#000000" text-anchor="middle">2</text>
	<text x="2953.63" y="3070.31" style="font-family:'Helvetica';font-size:112.56px;fill:#000000" text-anchor="middle">Chan-Goldthorpe Scale</text>
	<text x="2700.00" y="231.95" style="font-family:'Helvetica';font-size:141.75px;fill:#000000" text-anchor="middle">Effect of Social Status on Libertarian-Authoritarian Axis</text>
</svg>